Madurai-Regular.ufo
<glyph name="aytham-tamil" format="2">
	<advance width="600"/>
	<unicode hex="0B83"/>
	<outline>
		<contour>
			<point x="300" y="380" type="curve" smooth="yes"/>
			<point x="342.8" y="380"/>
			<point x="380" y="417.2"/>
			<point x="380" y="460" type="curve" smooth="yes"/>
			<point x="380" y="502.8"/>
			<point x="342.8" y="540"/>
			<point x="300" y="540" type="curve" smooth="yes"/>
			<point x="257.2" y="540"/>
			<point x="220" y="502.8"/>
			<point x="220" y="460" type="curve" smooth="yes"/>
			<point x="220" y="417.2"/>
			<point x="257.2" y="380"/>
		</contour>
		<contour>
			<point x="110" y="-20" type="curve" smooth="yes"/>
			<point x="152.8" y="-20"/>
			<point x="190" y="17.2"/>
			<point x="190" y="60" type="curve" smooth="yes"/>
			<point x="190" y="102.8"/>
			<point x="152.8" y="140"/>
			<point x="110" y="140" type="curve" smooth="yes"/>
			<point x="67.2" y="140"/>
			<point x="30" y="102.8"/>
			<point x="30" y="60" type="curve" smooth="yes"/>
			<point x="30" y="17.2"/>
			<point x="67.2" y="-20"/>
		</contour>
		<contour>
			<point x="110" y="20" type="curve" smooth="yes"/>
			<point x="86.4" y="20"/>
			<point x="70" y="36.4"/>
			<point x="70" y="60" type="curve" smooth="yes"/>
			<point x="70" y="83.6"/>
			<point x="86.4" y="100"/>
			<point x="110" y="100" type="curve" smooth="yes"/>
			<point x="133.6" y="100"/>
			<point x="150" y="83.6"/>
			<point x="150" y="60" type="curve" smooth="yes"/>
			<point x="150" y="36.4"/>
			<point x="133.6" y="20"/>
		</contour>
		<contour>
			<point x="490" y="-20" type="curve" smooth="yes"/>
			<point x="532.8" y="-20"/>
			<point x="570" y="17.2"/>
			<point x="570" y="60" type="curve" smooth="yes"/>
			<point x="570" y="102.8"/>
			<point x="532.8" y="140"/>
			<point x="490" y="140" type="curve" smooth="yes"/>
			<point x="447.2" y="140"/>
			<point x="410" y="102.8"/>
			<point x="410" y="60" type="curve" smooth="yes"/>
			<point x="410" y="17.2"/>
			<point x="447.2" y="-20"/>
		</contour>
		<contour>
			<point x="490" y="20" type="curve" smooth="yes"/>
			<point x="466.4" y="20"/>
			<point x="450" y="36.4"/>
			<point x="450" y="60" type="curve" smooth="yes"/>
			<point x="450" y="83.6"/>
			<point x="466.4" y="100"/>
			<point x="490" y="100" type="curve" smooth="yes"/>
			<point x="513.6" y="100"/>
			<point x="530" y="83.6"/>
			<point x="530" y="60" type="curve" smooth="yes"/>
			<point x="530" y="36.4"/>
			<point x="513.6" y="20"/>
		</contour>
		<contour>
			<point x="300" y="420" type="curve" smooth="yes"/>
			<point x="276.4" y="420"/>
			<point x="260" y="436.4"/>
			<point x="260" y="460" type="curve" smooth="yes"/>
			<point x="260" y="483.6"/>
			<point x="276.4" y="500"/>
			<point x="300" y="500" type="curve" smooth="yes"/>
			<point x="323.6" y="500"/>
			<point x="340" y="483.6"/>
			<point x="340" y="460" type="curve" smooth="yes"/>
			<point x="340" y="436.4"/>
			<point x="323.6" y="420"/>
		</contour>
	</outline>
</glyph>
<glyph name="a-tamil" format="2">
	<advance width="490"/>
	<unicode hex="0B85"/>
	<outline>
		<contour>
			<point x="172" y="-20" type="curve" smooth="yes"/>
			<point x="238" y="-20" type="line" smooth="yes"/>
			<point x="320" y="-20"/>
			<point x="380" y="40"/>
			<point x="380" y="122" type="curve" smooth="yes"/>
			<point x="380" y="230" type="line"/>
			<point x="420" y="230" type="line"/>
			<point x="420" y="0" type="line" smooth="yes"/>
			<point x="420" y="-11.2"/>
			<point x="428.8" y="-20"/>
			<point x="440" y="-20" type="curve" smooth="yes"/>
			<point x="451.2" y="-20"/>
			<point x="460" y="-11.2"/>
			<point x="460" y="0" type="curve" smooth="yes"/>
			<point x="460" y="450" type="line" smooth="yes"/>
			<point x="460" y="461.2"/>
			<point x="451.2" y="470"/>
			<point x="440" y="470" type="curve" smooth="yes"/>
			<point x="428.8" y="470"/>
			<point x="420" y="461.2"/>
			<point x="420" y="450" type="curve" smooth="yes"/>
			<point x="420" y="270" type="line"/>
			<point x="380" y="270" type="line"/>
			<point x="380" y="478" type="line" smooth="yes"/>
			<point x="380" y="560"/>
			<point x="320" y="620"/>
			<point x="238" y="620" type="curve" smooth="yes"/>
			<point x="202" y="620" type="line" smooth="yes"/>
			<point x="120" y="620"/>
			<point x="60" y="560"/>
			<point x="60" y="478" type="curve" smooth="yes"/>
			<point x="60" y="376" type="line" smooth="yes"/>
			<point x="60" y="318.8"/>
			<point x="100.4" y="274"/>
			<point x="155.2" y="274" type="curve" smooth="yes"/>
			<point x="210.8" y="274"/>
			<point x="250" y="318.8"/>
			<point x="250" y="376" type="curve" smooth="yes"/>
			<point x="250" y="412" type="line" smooth="yes"/>
			<point x="250" y="469.2"/>
			<point x="209.6" y="514"/>
			<point x="155.2" y="514" type="curve" smooth="yes"/>
			<point x="134.8" y="514"/>
			<point x="116.4" y="507.6"/>
			<point x="101.2" y="497.2" type="curve"/>
			<point x="108.4" y="548.4"/>
			<point x="146" y="580"/>
			<point x="202" y="580" type="curve" smooth="yes"/>
			<point x="238" y="580" type="line" smooth="yes"/>
			<point x="300.8" y="580"/>
			<point x="340" y="540.8"/>
			<point x="340" y="478" type="curve" smooth="yes"/>
			<point x="340" y="270" type="line"/>
			<point x="50" y="270" type="line" smooth="yes"/>
			<point x="37.2" y="270"/>
			<point x="30" y="263.2"/>
			<point x="30" y="250" type="curve" smooth="yes"/>
			<point x="30" y="122" type="line" smooth="yes"/>
			<point x="30" y="40"/>
			<point x="90" y="-20"/>
		</contour>
		<contour>
			<point x="172" y="20" type="line" smooth="yes"/>
			<point x="109.2" y="20"/>
			<point x="70" y="59.2"/>
			<point x="70" y="122" type="curve" smooth="yes"/>
			<point x="70" y="230" type="line"/>
			<point x="340" y="230" type="line"/>
			<point x="340" y="122" type="line" smooth="yes"/>
			<point x="340" y="59.2"/>
			<point x="300.8" y="20"/>
			<point x="238" y="20" type="curve" smooth="yes"/>
		</contour>
		<contour>
			<point x="155.2" y="314" type="curve" smooth="yes"/>
			<point x="120.8" y="314"/>
			<point x="100" y="336.8"/>
			<point x="100" y="376" type="curve" smooth="yes"/>
			<point x="100" y="412" type="line" smooth="yes"/>
			<point x="100" y="451.2"/>
			<point x="120.8" y="474"/>
			<point x="155.2" y="474" type="curve" smooth="yes"/>
			<point x="189.2" y="474"/>
			<point x="210" y="451.2"/>
			<point x="210" y="412" type="curve" smooth="yes"/>
			<point x="210" y="376" type="line" smooth="yes"/>
			<point x="210" y="336.4"/>
			<point x="190" y="314"/>
		</contour>
	</outline>
</glyph>
<glyph name="aa-tamil" format="2">
	<advance width="570"/>
	<unicode hex="0B86"/>
	<outline>
		<contour>
			<point x="305.2" y="-230" type="curve" smooth="yes"/>
			<point x="428" y="-230" type="line" smooth="yes"/>
			<point x="492" y="-230"/>
			<point x="540" y="-182"/>
			<point x="540" y="-118" type="curve" smooth="yes"/>
			<point x="540" y="4" type="line" smooth="yes"/>
			<point x="540" y="40.8"/>
			<point x="510.8" y="70"/>
			<point x="474" y="70" type="curve" smooth="yes"/>
			<point x="460" y="70" type="line"/>
			<point x="460" y="450" type="line" smooth="yes"/>
			<point x="460" y="461.2"/>
			<point x="451.2" y="470"/>
			<point x="440" y="470" type="curve" smooth="yes"/>
			<point x="428.8" y="470"/>
			<point x="420" y="461.2"/>
			<point x="420" y="450" type="curve" smooth="yes"/>
			<point x="420" y="270" type="line"/>
			<point x="380" y="270" type="line"/>
			<point x="380" y="478" type="line" smooth="yes"/>
			<point x="380" y="560"/>
			<point x="320" y="620"/>
			<point x="238" y="620" type="curve" smooth="yes"/>
			<point x="202" y="620" type="line" smooth="yes"/>
			<point x="120" y="620"/>
			<point x="60" y="560"/>
			<point x="60" y="478" type="curve" smooth="yes"/>
			<point x="60" y="376" type="line" smooth="yes"/>
			<point x="60" y="318.8"/>
			<point x="100.4" y="274"/>
			<point x="155.2" y="274" type="curve" smooth="yes"/>
			<point x="210.8" y="274"/>
			<point x="250" y="318.8"/>
			<point x="250" y="376" type="curve" smooth="yes"/>
			<point x="250" y="412" type="line" smooth="yes"/>
			<point x="250" y="469.2"/>
			<point x="209.6" y="514"/>
			<point x="155.2" y="514" type="curve" smooth="yes"/>
			<point x="134.8" y="514"/>
			<point x="116.4" y="507.6"/>
			<point x="101.2" y="497.2" type="curve"/>
			<point x="108.4" y="548.4"/>
			<point x="146" y="580"/>
			<point x="202" y="580" type="curve" smooth="yes"/>
			<point x="238" y="580" type="line" smooth="yes"/>
			<point x="300.8" y="580"/>
			<point x="340" y="540.8"/>
			<point x="340" y="478" type="curve" smooth="yes"/>
			<point x="340" y="270" type="line"/>
			<point x="50" y="270" type="line" smooth="yes"/>
			<point x="37.2" y="270"/>
			<point x="30" y="263.2"/>
			<point x="30" y="250" type="curve" smooth="yes"/>
			<point x="30" y="122" type="line" smooth="yes"/>
			<point x="30" y="40"/>
			<point x="90" y="-20"/>
			<point x="172" y="-20" type="curve" smooth="yes"/>
			<point x="238" y="-20" type="line" smooth="yes"/>
			<point x="320" y="-20"/>
			<point x="380" y="40"/>
			<point x="380" y="122" type="curve" smooth="yes"/>
			<point x="380" y="230" type="line"/>
			<point x="420" y="230" type="line"/>
			<point x="420" y="0" type="line" smooth="yes"/>
			<point x="420" y="-11.2"/>
			<point x="428.8" y="-20"/>
			<point x="440" y="-20" type="curve" smooth="yes"/>
			<point x="451.2" y="-20"/>
			<point x="460" y="-11.2"/>
			<point x="460" y="0" type="curve" smooth="yes"/>
			<point x="460" y="30" type="line"/>
			<point x="474" y="30" type="line" smooth="yes"/>
			<point x="491.6" y="30"/>
			<point x="500" y="21.6"/>
			<point x="500" y="4" type="curve" smooth="yes"/>
			<point x="500" y="-118" type="line" smooth="yes"/>
			<point x="500" y="-162.8"/>
			<point x="472.8" y="-190"/>
			<point x="428" y="-190" type="curve" smooth="yes"/>
			<point x="368" y="-190" type="line"/>
			<point x="372.4" y="-180.8"/>
			<point x="375.2" y="-170.8"/>
			<point x="375.2" y="-160" type="curve" smooth="yes"/>
			<point x="375.2" y="-122"/>
			<point x="342.8" y="-90"/>
			<point x="305.2" y="-90" type="curve" smooth="yes"/>
			<point x="267.2" y="-90"/>
			<point x="235.2" y="-122"/>
			<point x="235.2" y="-160" type="curve" smooth="yes"/>
			<point x="235.2" y="-198"/>
			<point x="267.2" y="-230"/>
		</contour>
		<contour>
			<point x="305.2" y="-190" type="curve" smooth="yes"/>
			<point x="286.4" y="-190"/>
			<point x="275.2" y="-178.8"/>
			<point x="275.2" y="-160" type="curve" smooth="yes"/>
			<point x="275.2" y="-141.2"/>
			<point x="286.4" y="-130"/>
			<point x="305.2" y="-130" type="curve" smooth="yes"/>
			<point x="323.6" y="-130"/>
			<point x="335.2" y="-141.2"/>
			<point x="335.2" y="-160" type="curve" smooth="yes"/>
			<point x="335.2" y="-178.8"/>
			<point x="323.6" y="-190"/>
		</contour>
		<contour>
			<point x="172" y="20" type="line" smooth="yes"/>
			<point x="109.2" y="20"/>
			<point x="70" y="59.2"/>
			<point x="70" y="122" type="curve" smooth="yes"/>
			<point x="70" y="230" type="line"/>
			<point x="340" y="230" type="line"/>
			<point x="340" y="122" type="line" smooth="yes"/>
			<point x="340" y="59.2"/>
			<point x="300.8" y="20"/>
			<point x="238" y="20" type="curve" smooth="yes"/>
		</contour>
		<contour>
			<point x="155.2" y="314" type="curve" smooth="yes"/>
			<point x="120.8" y="314"/>
			<point x="100" y="336.8"/>
			<point x="100" y="376" type="curve" smooth="yes"/>
			<point x="100" y="412" type="line" smooth="yes"/>
			<point x="100" y="451.2"/>
			<point x="120.8" y="474"/>
			<point x="155.2" y="474" type="curve" smooth="yes"/>
			<point x="189.2" y="474"/>
			<point x="210" y="451.2"/>
			<point x="210" y="412" type="curve" smooth="yes"/>
			<point x="210" y="376" type="line" smooth="yes"/>
			<point x="210" y="336.4"/>
			<point x="190" y="314"/>
		</contour>
	</outline>
</glyph>
<glyph name="i-tamil" format="2">
	<advance width="600"/>
	<unicode hex="0B87"/>
	<outline>
		<contour>
			<point x="172" y="-20" type="curve" smooth="yes"/>
			<point x="428" y="-20" type="line" smooth="yes"/>
			<point x="510" y="-20"/>
			<point x="570" y="40"/>
			<point x="570" y="122" type="curve" smooth="yes"/>
			<point x="570" y="250" type="line" smooth="yes"/>
			<point x="570" y="263.2"/>
			<point x="563.2" y="270"/>
			<point x="550" y="270" type="curve" smooth="yes"/>
			<point x="480" y="270" type="line"/>
			<point x="480" y="478" type="line" smooth="yes"/>
			<point x="480" y="560"/>
			<point x="420" y="620"/>
			<point x="338" y="620" type="curve" smooth="yes"/>
			<point x="322" y="620" type="line" smooth="yes"/>
			<point x="240" y="620"/>
			<point x="180" y="560"/>
			<point x="180" y="478" type="curve" smooth="yes"/>
			<point x="180" y="376" type="line" smooth="yes"/>
			<point x="180" y="318.8"/>
			<point x="220.4" y="274"/>
			<point x="275.2" y="274" type="curve" smooth="yes"/>
			<point x="330.8" y="274"/>
			<point x="370" y="318.8"/>
			<point x="370" y="376" type="curve" smooth="yes"/>
			<point x="370" y="412" type="line" smooth="yes"/>
			<point x="370" y="469.2"/>
			<point x="329.6" y="514"/>
			<point x="275.2" y="514" type="curve" smooth="yes"/>
			<point x="254.8" y="514"/>
			<point x="236.4" y="507.6"/>
			<point x="221.2" y="497.2" type="curve"/>
			<point x="228.4" y="548.4"/>
			<point x="266" y="580"/>
			<point x="322" y="580" type="curve" smooth="yes"/>
			<point x="338" y="580" type="line" smooth="yes"/>
			<point x="400.8" y="580"/>
			<point x="440" y="540.8"/>
			<point x="440" y="478" type="curve" smooth="yes"/>
			<point x="440" y="270" type="line"/>
			<point x="160" y="270" type="line"/>
			<point x="160" y="484" type="line" smooth="yes"/>
			<point x="160" y="582.8"/>
			<point x="227.2" y="650"/>
			<point x="326" y="650" type="curve" smooth="yes"/>
			<point x="334" y="650" type="line" smooth="yes"/>
			<point x="432.8" y="650"/>
			<point x="500" y="582.8"/>
			<point x="500" y="484" type="curve" smooth="yes"/>
			<point x="500" y="330" type="line" smooth="yes"/>
			<point x="500" y="318.8"/>
			<point x="508.8" y="310"/>
			<point x="520" y="310" type="curve" smooth="yes"/>
			<point x="531.2" y="310"/>
			<point x="540" y="318.8"/>
			<point x="540" y="330" type="curve" smooth="yes"/>
			<point x="540" y="484" type="line" smooth="yes"/>
			<point x="540" y="602"/>
			<point x="452" y="690"/>
			<point x="334" y="690" type="curve" smooth="yes"/>
			<point x="326" y="690" type="line" smooth="yes"/>
			<point x="208" y="690"/>
			<point x="120" y="602"/>
			<point x="120" y="484" type="curve" smooth="yes"/>
			<point x="120" y="270" type="line"/>
			<point x="50" y="270" type="line" smooth="yes"/>
			<point x="37.2" y="270"/>
			<point x="30" y="263.2"/>
			<point x="30" y="250" type="curve" smooth="yes"/>
			<point x="30" y="122" type="line" smooth="yes"/>
			<point x="30" y="40"/>
			<point x="90" y="-20"/>
		</contour>
		<contour>
			<point x="160" y="20.4" type="curve"/>
			<point x="104.4" y="25.2"/>
			<point x="70" y="63.2"/>
			<point x="70" y="122" type="curve" smooth="yes"/>
			<point x="70" y="230" type="line"/>
			<point x="120" y="230" type="line"/>
			<point x="120" y="122" type="line" smooth="yes"/>
			<point x="120" y="81.2"/>
			<point x="134.8" y="45.6"/>
		</contour>
		<contour>
			<point x="262" y="20" type="line" smooth="yes"/>
			<point x="199.2" y="20"/>
			<point x="160" y="59.2"/>
			<point x="160" y="122" type="curve" smooth="yes"/>
			<point x="160" y="230" type="line"/>
			<point x="440" y="230" type="line"/>
			<point x="440" y="122" type="line" smooth="yes"/>
			<point x="440" y="59.2"/>
			<point x="400.8" y="20"/>
			<point x="338" y="20" type="curve" smooth="yes"/>
		</contour>
		<contour>
			<point x="440" y="20.4" type="curve"/>
			<point x="465.2" y="45.6"/>
			<point x="480" y="81.2"/>
			<point x="480" y="122" type="curve" smooth="yes"/>
			<point x="480" y="230" type="line"/>
			<point x="530" y="230" type="line"/>
			<point x="530" y="122" type="line" smooth="yes"/>
			<point x="530" y="63.2"/>
			<point x="495.6" y="25.2"/>
		</contour>
		<contour>
			<point x="275.2" y="314" type="curve" smooth="yes"/>
			<point x="240.8" y="314"/>
			<point x="220" y="336.8"/>
			<point x="220" y="376" type="curve" smooth="yes"/>
			<point x="220" y="412" type="line" smooth="yes"/>
			<point x="220" y="451.2"/>
			<point x="240.8" y="474"/>
			<point x="275.2" y="474" type="curve" smooth="yes"/>
			<point x="309.2" y="474"/>
			<point x="330" y="451.2"/>
			<point x="330" y="412" type="curve" smooth="yes"/>
			<point x="330" y="376" type="line" smooth="yes"/>
			<point x="330" y="336.4"/>
			<point x="310" y="314"/>
		</contour>
	</outline>
</glyph>
<glyph name="ii-tamil" format="2">
	<advance width="510"/>
	<unicode hex="0B88"/>
	<outline>
		<contour>
			<point x="50" y="-20" type="curve" smooth="yes"/>
			<point x="61.2" y="-20"/>
			<point x="70" y="-11.2"/>
			<point x="70" y="0" type="curve" smooth="yes"/>
			<point x="70" y="580" type="line"/>
			<point x="300" y="580" type="line"/>
			<point x="300" y="0" type="line" smooth="yes"/>
			<point x="300" y="-11.2"/>
			<point x="308.8" y="-20"/>
			<point x="320" y="-20" type="curve" smooth="yes"/>
			<point x="331.2" y="-20"/>
			<point x="340" y="-11.2"/>
			<point x="340" y="0" type="curve" smooth="yes"/>
			<point x="340" y="580" type="line"/>
			<point x="440" y="580" type="line" smooth="yes"/>
			<point x="451.2" y="580"/>
			<point x="460" y="588.8"/>
			<point x="460" y="600" type="curve" smooth="yes"/>
			<point x="460" y="611.2"/>
			<point x="451.2" y="620"/>
			<point x="440" y="620" type="curve" smooth="yes"/>
			<point x="50" y="620" type="line" smooth="yes"/>
			<point x="37.2" y="620"/>
			<point x="30" y="613.2"/>
			<point x="30" y="600" type="curve" smooth="yes"/>
			<point x="30" y="0" type="line" smooth="yes"/>
			<point x="30" y="-11.2"/>
			<point x="38.8" y="-20"/>
		</contour>
		<contour>
			<point x="185.2" y="230" type="curve" smooth="yes"/>
			<point x="222.8" y="230"/>
			<point x="255.2" y="262"/>
			<point x="255.2" y="300" type="curve" smooth="yes"/>
			<point x="255.2" y="338"/>
			<point x="222.8" y="370"/>
			<point x="185.2" y="370" type="curve" smooth="yes"/>
			<point x="147.2" y="370"/>
			<point x="115.2" y="338"/>
			<point x="115.2" y="300" type="curve" smooth="yes"/>
			<point x="115.2" y="262"/>
			<point x="147.2" y="230"/>
		</contour>
		<contour>
			<point x="185.2" y="270" type="curve" smooth="yes"/>
			<point x="166.4" y="270"/>
			<point x="155.2" y="281.2"/>
			<point x="155.2" y="300" type="curve" smooth="yes"/>
			<point x="155.2" y="318.8"/>
			<point x="166.4" y="330"/>
			<point x="185.2" y="330" type="curve" smooth="yes"/>
			<point x="203.6" y="330"/>
			<point x="215.2" y="318.8"/>
			<point x="215.2" y="300" type="curve" smooth="yes"/>
			<point x="215.2" y="281.2"/>
			<point x="203.6" y="270"/>
		</contour>
		<contour>
			<point x="430" y="230" type="curve" smooth="yes"/>
			<point x="468" y="230"/>
			<point x="500" y="262"/>
			<point x="500" y="300" type="curve" smooth="yes"/>
			<point x="500" y="338"/>
			<point x="468" y="370"/>
			<point x="430" y="370" type="curve" smooth="yes"/>
			<point x="392" y="370"/>
			<point x="360" y="338"/>
			<point x="360" y="300" type="curve" smooth="yes"/>
			<point x="360" y="262"/>
			<point x="392" y="230"/>
		</contour>
		<contour>
			<point x="430" y="270" type="curve" smooth="yes"/>
			<point x="411.2" y="270"/>
			<point x="400" y="281.2"/>
			<point x="400" y="300" type="curve" smooth="yes"/>
			<point x="400" y="318.8"/>
			<point x="411.2" y="330"/>
			<point x="430" y="330" type="curve" smooth="yes"/>
			<point x="448.8" y="330"/>
			<point x="460" y="318.8"/>
			<point x="460" y="300" type="curve" smooth="yes"/>
			<point x="460" y="281.2"/>
			<point x="448.8" y="270"/>
		</contour>
	</outline>
</glyph>
<glyph name="uu-tamil" format="2">
	<advance width="820"/>
	<unicode hex="0B8A"/>
	<outline>
		<contour>
			<point x="110" y="-20" type="curve" smooth="yes"/>
			<point x="770" y="-20" type="line" smooth="yes"/>
			<point x="781.2" y="-20"/>
			<point x="790" y="-11.2"/>
			<point x="790" y="0" type="curve" smooth="yes"/>
			<point x="790" y="11.2"/>
			<point x="781.2" y="20"/>
			<point x="770" y="20" type="curve" smooth="yes"/>
			<point x="110" y="20" type="line" smooth="yes"/>
			<point x="89.2" y="20"/>
			<point x="79.2" y="29.6"/>
			<point x="79.2" y="50" type="curve" smooth="yes"/>
			<point x="79.2" y="70.4"/>
			<point x="89.2" y="80"/>
			<point x="110" y="80" type="curve" smooth="yes"/>
			<point x="198" y="80" type="line" smooth="yes"/>
			<point x="280" y="80"/>
			<point x="340" y="140"/>
			<point x="340" y="222" type="curve" smooth="yes"/>
			<point x="340" y="478" type="line" smooth="yes"/>
			<point x="340" y="560"/>
			<point x="280" y="620"/>
			<point x="198" y="620" type="curve" smooth="yes"/>
			<point x="172" y="620" type="line" smooth="yes"/>
			<point x="90" y="620"/>
			<point x="30" y="560"/>
			<point x="30" y="478" type="curve" smooth="yes"/>
			<point x="30" y="278" type="line" smooth="yes"/>
			<point x="30" y="220.8"/>
			<point x="70.4" y="176"/>
			<point x="125.2" y="176" type="curve" smooth="yes"/>
			<point x="180.8" y="176"/>
			<point x="220" y="220.8"/>
			<point x="220" y="278" type="curve" smooth="yes"/>
			<point x="220" y="314" type="line" smooth="yes"/>
			<point x="220" y="371.2"/>
			<point x="179.6" y="416"/>
			<point x="125.2" y="416" type="curve" smooth="yes"/>
			<point x="104" y="416"/>
			<point x="85.2" y="409.6"/>
			<point x="70" y="398" type="curve"/>
			<point x="70" y="478" type="line" smooth="yes"/>
			<point x="70" y="540.8"/>
			<point x="109.2" y="580"/>
			<point x="172" y="580" type="curve" smooth="yes"/>
			<point x="198" y="580" type="line" smooth="yes"/>
			<point x="260.8" y="580"/>
			<point x="300" y="540.8"/>
			<point x="300" y="478" type="curve" smooth="yes"/>
			<point x="300" y="222" type="line" smooth="yes"/>
			<point x="300" y="159.2"/>
			<point x="260.8" y="120"/>
			<point x="198" y="120" type="curve" smooth="yes"/>
			<point x="110" y="120" type="line" smooth="yes"/>
			<point x="70.4" y="120"/>
			<point x="39.2" y="90"/>
			<point x="39.2" y="50" type="curve" smooth="yes"/>
			<point x="39.2" y="10"/>
			<point x="70.4" y="-20"/>
		</contour>
		<contour>
			<point x="125.2" y="216" type="curve" smooth="yes"/>
			<point x="90.8" y="216"/>
			<point x="70" y="238.8"/>
			<point x="70" y="278" type="curve" smooth="yes"/>
			<point x="70" y="314" type="line" smooth="yes"/>
			<point x="70" y="353.2"/>
			<point x="90.8" y="376"/>
			<point x="125.2" y="376" type="curve" smooth="yes"/>
			<point x="159.2" y="376"/>
			<point x="180" y="353.2"/>
			<point x="180" y="314" type="curve" smooth="yes"/>
			<point x="180" y="278" type="line" smooth="yes"/>
			<point x="180" y="238.4"/>
			<point x="160" y="216"/>
		</contour>
		<contour>
			<point x="470.8" y="70" type="curve" smooth="yes"/>
			<point x="468.8" y="70"/>
			<point x="467.2" y="70"/>
			<point x="465.2" y="70.4" type="curve" smooth="yes"/>
			<point x="445.2" y="72"/>
			<point x="434" y="86"/>
			<point x="434" y="112" type="curve" smooth="yes"/>
			<point x="434" y="139.2" type="line" smooth="yes"/>
			<point x="434" y="166"/>
			<point x="446.8" y="180"/>
			<point x="470" y="180" type="curve" smooth="yes"/>
			<point x="494.4" y="180"/>
			<point x="507.2" y="166"/>
			<point x="507.2" y="139.2" type="curve" smooth="yes"/>
			<point x="507.2" y="112" type="line" smooth="yes"/>
			<point x="507.2" y="84"/>
			<point x="494.4" y="70.4"/>
		</contour>
		<contour>
			<point x="470" y="30" type="curve" smooth="yes"/>
			<point x="472" y="30" type="line" smooth="yes"/>
			<point x="515.2" y="31.2"/>
			<point x="547.2" y="66.4"/>
			<point x="547.2" y="112" type="curve" smooth="yes"/>
			<point x="547.2" y="139.2" type="line" smooth="yes"/>
			<point x="547.2" y="184.4"/>
			<point x="514.4" y="220"/>
			<point x="470" y="220" type="curve" smooth="yes"/>
			<point x="437.6" y="220"/>
			<point x="411.2" y="200.4"/>
			<point x="400" y="171.2" type="curve"/>
			<point x="400" y="409.2" type="line" smooth="yes"/>
			<point x="400" y="453.6"/>
			<point x="426.4" y="480"/>
			<point x="472" y="480" type="curve" smooth="yes"/>
			<point x="490" y="480" type="line" smooth="yes"/>
			<point x="533.2" y="480"/>
			<point x="560" y="455.2"/>
			<point x="560" y="405.2" type="curve" smooth="yes"/>
			<point x="560" y="200" type="line" smooth="yes"/>
			<point x="560" y="188.8"/>
			<point x="568.8" y="180"/>
			<point x="580" y="180" type="curve" smooth="yes"/>
			<point x="591.2" y="180"/>
			<point x="600" y="188.8"/>
			<point x="600" y="200" type="curve" smooth="yes"/>
			<point x="600" y="480" type="line"/>
			<point x="695.2" y="480" type="line"/>
			<point x="695.2" y="50" type="line" smooth="yes"/>
			<point x="695.2" y="38.8"/>
			<point x="704" y="30"/>
			<point x="715.2" y="30" type="curve" smooth="yes"/>
			<point x="726" y="30"/>
			<point x="735.2" y="38.8"/>
			<point x="735.2" y="50" type="curve" smooth="yes"/>
			<point x="735.2" y="480" type="line"/>
			<point x="765.2" y="480" type="line" smooth="yes"/>
			<point x="776" y="480"/>
			<point x="785.2" y="488.8"/>
			<point x="785.2" y="500" type="curve" smooth="yes"/>
			<point x="785.2" y="511.2"/>
			<point x="776" y="520"/>
			<point x="765.2" y="520" type="curve" smooth="yes"/>
			<point x="580" y="520" type="line" smooth="yes"/>
			<point x="567.2" y="520"/>
			<point x="560" y="513.2"/>
			<point x="560" y="500" type="curve" smooth="yes"/>
			<point x="560" y="496" type="line"/>
			<point x="541.2" y="511.6"/>
			<point x="516.8" y="520"/>
			<point x="490" y="520" type="curve" smooth="yes"/>
			<point x="472" y="520" type="line" smooth="yes"/>
			<point x="407.2" y="520"/>
			<point x="360" y="472.8"/>
			<point x="360" y="409.2" type="curve" smooth="yes"/>
			<point x="360" y="142" type="line" smooth="yes"/>
			<point x="360" y="80"/>
			<point x="403.6" y="34.4"/>
			<point x="462.8" y="30.4" type="curve" smooth="yes"/>
			<point x="465.2" y="30"/>
			<point x="467.6" y="30"/>
		</contour>
	</outline>
</glyph>
<glyph name="ai-tamil" format="2">
	<advance width="634"/>
	<unicode hex="0B90"/>
	<outline>
		<contour>
			<point x="171.2" y="-20.8" type="curve" smooth="yes"/>
			<point x="195.2" y="-20.8" type="line" smooth="yes"/>
			<point x="248.8" y="-20.8"/>
			<point x="293.2" y="4.8"/>
			<point x="317.2" y="46" type="curve"/>
			<point x="341.6" y="5.6"/>
			<point x="385.6" y="-20"/>
			<point x="439.2" y="-20" type="curve" smooth="yes"/>
			<point x="463.2" y="-20" type="line" smooth="yes"/>
			<point x="541.2" y="-20"/>
			<point x="604" y="36.4"/>
			<point x="604" y="127.2" type="curve" smooth="yes"/>
			<point x="604" y="154" type="line" smooth="yes"/>
			<point x="604" y="208.8"/>
			<point x="563.2" y="251.2"/>
			<point x="508" y="251.2" type="curve" smooth="yes"/>
			<point x="482" y="251.2" type="line" smooth="yes"/>
			<point x="470.8" y="251.2"/>
			<point x="462" y="242"/>
			<point x="462" y="231.2" type="curve" smooth="yes"/>
			<point x="462" y="220"/>
			<point x="470.8" y="211.2"/>
			<point x="482" y="211.2" type="curve" smooth="yes"/>
			<point x="508" y="211.2" type="line" smooth="yes"/>
			<point x="543.6" y="211.2"/>
			<point x="564" y="190"/>
			<point x="564" y="154" type="curve" smooth="yes"/>
			<point x="564" y="127.2" type="line" smooth="yes"/>
			<point x="564" y="56.8"/>
			<point x="523.2" y="20"/>
			<point x="463.2" y="20" type="curve" smooth="yes"/>
			<point x="439.2" y="20" type="line" smooth="yes"/>
			<point x="376.4" y="20"/>
			<point x="337.2" y="59.2"/>
			<point x="337.2" y="122" type="curve" smooth="yes"/>
			<point x="337.2" y="172" type="line" smooth="yes"/>
			<point x="337.2" y="183.2"/>
			<point x="328" y="192"/>
			<point x="317.2" y="192" type="curve" smooth="yes"/>
			<point x="306" y="192"/>
			<point x="297.2" y="183.2"/>
			<point x="297.2" y="172" type="curve" smooth="yes"/>
			<point x="297.2" y="121.2" type="line" smooth="yes"/>
			<point x="297.2" y="58.4"/>
			<point x="257.6" y="19.2"/>
			<point x="195.2" y="19.2" type="curve" smooth="yes"/>
			<point x="171.2" y="19.2" type="line" smooth="yes"/>
			<point x="110.8" y="19.2"/>
			<point x="70" y="56"/>
			<point x="70" y="126" type="curve" smooth="yes"/>
			<point x="70" y="172.8"/>
			<point x="93.2" y="184.4"/>
			<point x="145.2" y="198.8" type="curve" smooth="yes"/>
			<point x="482.4" y="293.6" type="line" smooth="yes"/>
			<point x="553.2" y="314"/>
			<point x="604" y="373.6"/>
			<point x="604" y="450" type="curve" smooth="yes"/>
			<point x="604" y="473.2" type="line" smooth="yes"/>
			<point x="604" y="563.6"/>
			<point x="541.2" y="620"/>
			<point x="463.2" y="620" type="curve" smooth="yes"/>
			<point x="439.2" y="620" type="line" smooth="yes"/>
			<point x="385.2" y="620"/>
			<point x="340.8" y="594"/>
			<point x="316.8" y="553.2" type="curve"/>
			<point x="292" y="595.6"/>
			<point x="247.6" y="620"/>
			<point x="196" y="620" type="curve" smooth="yes"/>
			<point x="172" y="620" type="line" smooth="yes"/>
			<point x="90" y="620"/>
			<point x="30" y="560"/>
			<point x="30" y="478" type="curve" smooth="yes"/>
			<point x="30" y="417.2" type="line" smooth="yes"/>
			<point x="30" y="338"/>
			<point x="86.8" y="279.6"/>
			<point x="162.8" y="275.2" type="curve" smooth="yes"/>
			<point x="170" y="275.2" type="line"/>
			<point x="172" y="275.2" type="line" smooth="yes"/>
			<point x="226.4" y="276"/>
			<point x="265.2" y="320.4"/>
			<point x="265.2" y="377.2" type="curve" smooth="yes"/>
			<point x="265.2" y="413.2" type="line" smooth="yes"/>
			<point x="265.2" y="470.4"/>
			<point x="224.4" y="515.2"/>
			<point x="170" y="515.2" type="curve" smooth="yes"/>
			<point x="115.6" y="515.2"/>
			<point x="75.2" y="470.4"/>
			<point x="75.2" y="413.2" type="curve" smooth="yes"/>
			<point x="75.2" y="381.2" type="line"/>
			<point x="71.6" y="392"/>
			<point x="70" y="404"/>
			<point x="70" y="417.2" type="curve" smooth="yes"/>
			<point x="70" y="478" type="line" smooth="yes"/>
			<point x="70" y="540.8"/>
			<point x="109.2" y="580"/>
			<point x="172" y="580" type="curve" smooth="yes"/>
			<point x="196" y="580" type="line" smooth="yes"/>
			<point x="256.4" y="580"/>
			<point x="297.2" y="543.2"/>
			<point x="297.2" y="473.2" type="curve" smooth="yes"/>
			<point x="297.2" y="371.2" type="line" smooth="yes"/>
			<point x="297.2" y="360"/>
			<point x="306" y="351.2"/>
			<point x="317.2" y="351.2" type="curve" smooth="yes"/>
			<point x="328" y="351.2"/>
			<point x="337.2" y="360"/>
			<point x="337.2" y="371.2" type="curve" smooth="yes"/>
			<point x="337.2" y="478" type="line" smooth="yes"/>
			<point x="337.2" y="540.8"/>
			<point x="376.4" y="580"/>
			<point x="439.2" y="580" type="curve" smooth="yes"/>
			<point x="463.2" y="580" type="line" smooth="yes"/>
			<point x="523.2" y="580"/>
			<point x="564" y="543.2"/>
			<point x="564" y="473.2" type="curve" smooth="yes"/>
			<point x="564" y="450" type="line" smooth="yes"/>
			<point x="564" y="390.4"/>
			<point x="528.8" y="348.4"/>
			<point x="471.6" y="332.4" type="curve" smooth="yes"/>
			<point x="134.8" y="237.2" type="line" smooth="yes"/>
			<point x="77.6" y="221.6"/>
			<point x="30" y="198.4"/>
			<point x="30" y="126" type="curve" smooth="yes"/>
			<point x="30" y="35.6"/>
			<point x="92.8" y="-20.8"/>
		</contour>
		<contour>
			<point x="164.8" y="315.2" type="line" smooth="yes"/>
			<point x="133.6" y="317.6"/>
			<point x="115.2" y="339.6"/>
			<point x="115.2" y="377.2" type="curve" smooth="yes"/>
			<point x="115.2" y="413.2" type="line" smooth="yes"/>
			<point x="115.2" y="452.4"/>
			<point x="136" y="475.2"/>
			<point x="170" y="475.2" type="curve" smooth="yes"/>
			<point x="204" y="475.2"/>
			<point x="225.2" y="452.4"/>
			<point x="225.2" y="413.2" type="curve" smooth="yes"/>
			<point x="225.2" y="377.2" type="line" smooth="yes"/>
			<point x="225.2" y="338"/>
			<point x="205.2" y="315.2"/>
			<point x="170.8" y="315.2" type="curve" smooth="yes"/>
		</contour>
	</outline>
</glyph>
<glyph name="o-tamil" format="2">
	<advance width="490"/>
	<unicode hex="0B92"/>
	<outline>
		<contour>
			<point x="244" y="-232.8" type="curve" smooth="yes"/>
			<point x="315.2" y="-232.8"/>
			<point x="369.2" y="-177.6"/>
			<point x="369.2" y="-106" type="curve" smooth="yes"/>
			<point x="369.2" y="-60"/>
			<point x="394.4" y="-29.2"/>
			<point x="434" y="-21.6" type="curve" smooth="yes"/>
			<point x="446.4" y="-19.2"/>
			<point x="453.2" y="-13.6"/>
			<point x="453.2" y="-0.8" type="curve" smooth="yes"/>
			<point x="453.2" y="0" type="line" smooth="yes"/>
			<point x="453.2" y="13.2"/>
			<point x="446.4" y="20"/>
			<point x="433.2" y="20" type="curve" smooth="yes"/>
			<point x="412" y="20" type="line" smooth="yes"/>
			<point x="367.6" y="20"/>
			<point x="340" y="48"/>
			<point x="340" y="92" type="curve" smooth="yes"/>
			<point x="340" y="117.2" type="line"/>
			<point x="440" y="117.2" type="line" smooth="yes"/>
			<point x="453.2" y="117.2"/>
			<point x="460" y="124.4"/>
			<point x="460" y="137.2" type="curve" smooth="yes"/>
			<point x="460" y="416" type="line" smooth="yes"/>
			<point x="460" y="532.8"/>
			<point x="372.8" y="620"/>
			<point x="256" y="620" type="curve" smooth="yes"/>
			<point x="234" y="620" type="line" smooth="yes"/>
			<point x="117.2" y="620"/>
			<point x="30" y="532.8"/>
			<point x="30" y="416" type="curve" smooth="yes"/>
			<point x="30" y="256" type="line" smooth="yes"/>
			<point x="30" y="198.8"/>
			<point x="70.4" y="154"/>
			<point x="125.2" y="154" type="curve" smooth="yes"/>
			<point x="180.8" y="154"/>
			<point x="220" y="198.8"/>
			<point x="220" y="256" type="curve" smooth="yes"/>
			<point x="220" y="292" type="line" smooth="yes"/>
			<point x="220" y="349.2"/>
			<point x="179.6" y="394"/>
			<point x="125.2" y="394" type="curve" smooth="yes"/>
			<point x="104" y="394"/>
			<point x="85.2" y="387.6"/>
			<point x="70" y="376" type="curve"/>
			<point x="70" y="416" type="line" smooth="yes"/>
			<point x="70" y="513.6"/>
			<point x="136.4" y="580"/>
			<point x="234" y="580" type="curve" smooth="yes"/>
			<point x="256" y="580" type="line" smooth="yes"/>
			<point x="353.6" y="580"/>
			<point x="420" y="513.6"/>
			<point x="420" y="416" type="curve" smooth="yes"/>
			<point x="420" y="157.2" type="line"/>
			<point x="340" y="157.2" type="line"/>
			<point x="340" y="227.2" type="line" smooth="yes"/>
			<point x="340" y="238"/>
			<point x="331.2" y="247.2"/>
			<point x="320" y="247.2" type="curve" smooth="yes"/>
			<point x="308.8" y="247.2"/>
			<point x="300" y="238"/>
			<point x="300" y="227.2" type="curve" smooth="yes"/>
			<point x="300" y="92" type="line" smooth="yes"/>
			<point x="300" y="44.4"/>
			<point x="327.6" y="4.4"/>
			<point x="369.2" y="-12" type="curve"/>
			<point x="344.4" y="-34.8"/>
			<point x="329.2" y="-68"/>
			<point x="329.2" y="-106" type="curve" smooth="yes"/>
			<point x="329.2" y="-158.8"/>
			<point x="295.6" y="-192.8"/>
			<point x="244" y="-192.8" type="curve" smooth="yes"/>
			<point x="192.4" y="-192.8"/>
			<point x="159.2" y="-158.8"/>
			<point x="159.2" y="-106" type="curve" smooth="yes"/>
			<point x="159.2" y="-94.8"/>
			<point x="150" y="-86"/>
			<point x="139.2" y="-86" type="curve" smooth="yes"/>
			<point x="128" y="-86"/>
			<point x="119.2" y="-94.8"/>
			<point x="119.2" y="-106" type="curve" smooth="yes"/>
			<point x="119.2" y="-177.6"/>
			<point x="172.8" y="-232.8"/>
		</contour>
		<contour>
			<point x="125.2" y="194" type="curve" smooth="yes"/>
			<point x="90.8" y="194"/>
			<point x="70" y="216.8"/>
			<point x="70" y="256" type="curve" smooth="yes"/>
			<point x="70" y="292" type="line" smooth="yes"/>
			<point x="70" y="331.2"/>
			<point x="90.8" y="354"/>
			<point x="125.2" y="354" type="curve" smooth="yes"/>
			<point x="159.2" y="354"/>
			<point x="180" y="331.2"/>
			<point x="180" y="292" type="curve" smooth="yes"/>
			<point x="180" y="256" type="line" smooth="yes"/>
			<point x="180" y="216.4"/>
			<point x="160" y="194"/>
		</contour>
	</outline>
</glyph>
<glyph name="au-tamil" format="2">
	<advance width="1096"/>
	<unicode hex="0B94"/>
	<outline>
		<contour>
			<point x="244" y="-232.8" type="curve" smooth="yes"/>
			<point x="315.2" y="-232.8"/>
			<point x="369.2" y="-177.6"/>
			<point x="369.2" y="-106" type="curve" smooth="yes"/>
			<point x="369.2" y="-60"/>
			<point x="394.4" y="-29.2"/>
			<point x="434" y="-21.6" type="curve" smooth="yes"/>
			<point x="446.4" y="-19.2"/>
			<point x="453.2" y="-13.6"/>
			<point x="453.2" y="-0.8" type="curve" smooth="yes"/>
			<point x="453.2" y="0" type="line" smooth="yes"/>
			<point x="453.2" y="13.2"/>
			<point x="446.4" y="20"/>
			<point x="433.2" y="20" type="curve" smooth="yes"/>
			<point x="412" y="20" type="line" smooth="yes"/>
			<point x="367.6" y="20"/>
			<point x="340" y="48"/>
			<point x="340" y="92" type="curve" smooth="yes"/>
			<point x="340" y="117.2" type="line"/>
			<point x="440" y="117.2" type="line" smooth="yes"/>
			<point x="453.2" y="117.2"/>
			<point x="460" y="124.4"/>
			<point x="460" y="137.2" type="curve" smooth="yes"/>
			<point x="460" y="416" type="line" smooth="yes"/>
			<point x="460" y="532.8"/>
			<point x="372.8" y="620"/>
			<point x="256" y="620" type="curve" smooth="yes"/>
			<point x="234" y="620" type="line" smooth="yes"/>
			<point x="117.2" y="620"/>
			<point x="30" y="532.8"/>
			<point x="30" y="416" type="curve" smooth="yes"/>
			<point x="30" y="256" type="line" smooth="yes"/>
			<point x="30" y="198.8"/>
			<point x="70.4" y="154"/>
			<point x="125.2" y="154" type="curve" smooth="yes"/>
			<point x="180.8" y="154"/>
			<point x="220" y="198.8"/>
			<point x="220" y="256" type="curve" smooth="yes"/>
			<point x="220" y="292" type="line" smooth="yes"/>
			<point x="220" y="349.2"/>
			<point x="179.6" y="394"/>
			<point x="125.2" y="394" type="curve" smooth="yes"/>
			<point x="104" y="394"/>
			<point x="85.2" y="387.6"/>
			<point x="70" y="376" type="curve"/>
			<point x="70" y="416" type="line" smooth="yes"/>
			<point x="70" y="513.6"/>
			<point x="136.4" y="580"/>
			<point x="234" y="580" type="curve" smooth="yes"/>
			<point x="256" y="580" type="line" smooth="yes"/>
			<point x="353.6" y="580"/>
			<point x="420" y="513.6"/>
			<point x="420" y="416" type="curve" smooth="yes"/>
			<point x="420" y="157.2" type="line"/>
			<point x="340" y="157.2" type="line"/>
			<point x="340" y="227.2" type="line" smooth="yes"/>
			<point x="340" y="238"/>
			<point x="331.2" y="247.2"/>
			<point x="320" y="247.2" type="curve" smooth="yes"/>
			<point x="308.8" y="247.2"/>
			<point x="300" y="238"/>
			<point x="300" y="227.2" type="curve" smooth="yes"/>
			<point x="300" y="92" type="line" smooth="yes"/>
			<point x="300" y="44.4"/>
			<point x="327.6" y="4.4"/>
			<point x="369.2" y="-12" type="curve"/>
			<point x="344.4" y="-34.8"/>
			<point x="329.2" y="-68"/>
			<point x="329.2" y="-106" type="curve" smooth="yes"/>
			<point x="329.2" y="-158.8"/>
			<point x="295.6" y="-192.8"/>
			<point x="244" y="-192.8" type="curve" smooth="yes"/>
			<point x="192.4" y="-192.8"/>
			<point x="159.2" y="-158.8"/>
			<point x="159.2" y="-106" type="curve" smooth="yes"/>
			<point x="159.2" y="-94.8"/>
			<point x="150" y="-86"/>
			<point x="139.2" y="-86" type="curve" smooth="yes"/>
			<point x="128" y="-86"/>
			<point x="119.2" y="-94.8"/>
			<point x="119.2" y="-106" type="curve" smooth="yes"/>
			<point x="119.2" y="-177.6"/>
			<point x="172.8" y="-232.8"/>
		</contour>
		<contour>
			<point x="125.2" y="194" type="curve" smooth="yes"/>
			<point x="90.8" y="194"/>
			<point x="70" y="216.8"/>
			<point x="70" y="256" type="curve" smooth="yes"/>
			<point x="70" y="292" type="line" smooth="yes"/>
			<point x="70" y="331.2"/>
			<point x="90.8" y="354"/>
			<point x="125.2" y="354" type="curve" smooth="yes"/>
			<point x="159.2" y="354"/>
			<point x="180" y="331.2"/>
			<point x="180" y="292" type="curve" smooth="yes"/>
			<point x="180" y="256" type="line" smooth="yes"/>
			<point x="180" y="216.4"/>
			<point x="160" y="194"/>
		</contour>
		<contour>
			<point x="633.6" y="20" type="line" smooth="yes"/>
			<point x="602.8" y="22.4"/>
			<point x="584" y="44.8"/>
			<point x="584" y="82" type="curve" smooth="yes"/>
			<point x="584" y="118" type="line" smooth="yes"/>
			<point x="584" y="157.2"/>
			<point x="604.8" y="180"/>
			<point x="639.2" y="180" type="curve" smooth="yes"/>
			<point x="673.2" y="180"/>
			<point x="694" y="157.2"/>
			<point x="694" y="118" type="curve" smooth="yes"/>
			<point x="694" y="82" type="line" smooth="yes"/>
			<point x="694" y="42.8"/>
			<point x="674.4" y="20.4"/>
			<point x="640" y="20" type="curve" smooth="yes"/>
		</contour>
		<contour>
			<point x="639.2" y="-20" type="curve" smooth="yes"/>
			<point x="641.2" y="-20" type="line" smooth="yes"/>
			<point x="695.6" y="-18.8"/>
			<point x="734" y="25.6"/>
			<point x="734" y="82" type="curve" smooth="yes"/>
			<point x="734" y="118" type="line" smooth="yes"/>
			<point x="734" y="175.2"/>
			<point x="693.6" y="220"/>
			<point x="639.2" y="220" type="curve" smooth="yes"/>
			<point x="584.4" y="220"/>
			<point x="544" y="175.2"/>
			<point x="544" y="118" type="curve" smooth="yes"/>
			<point x="544" y="86.4" type="line"/>
			<point x="540.8" y="97.2"/>
			<point x="539.2" y="109.2"/>
			<point x="539.2" y="122" type="curve" smooth="yes"/>
			<point x="539.2" y="478" type="line" smooth="yes"/>
			<point x="539.2" y="540.8"/>
			<point x="578.4" y="580"/>
			<point x="641.2" y="580" type="curve" smooth="yes"/>
			<point x="665.2" y="580" type="line" smooth="yes"/>
			<point x="725.2" y="580"/>
			<point x="766" y="543.2"/>
			<point x="766" y="473.2" type="curve" smooth="yes"/>
			<point x="766" y="200" type="line" smooth="yes"/>
			<point x="766" y="188.8"/>
			<point x="774.8" y="180"/>
			<point x="786" y="180" type="curve" smooth="yes"/>
			<point x="797.2" y="180"/>
			<point x="806" y="188.8"/>
			<point x="806" y="200" type="curve" smooth="yes"/>
			<point x="806" y="580" type="line"/>
			<point x="946" y="580" type="line"/>
			<point x="946" y="0" type="line" smooth="yes"/>
			<point x="946" y="-11.2"/>
			<point x="954.8" y="-20"/>
			<point x="966" y="-20" type="curve" smooth="yes"/>
			<point x="977.2" y="-20"/>
			<point x="986" y="-11.2"/>
			<point x="986" y="0" type="curve" smooth="yes"/>
			<point x="986" y="580" type="line"/>
			<point x="1046" y="580" type="line" smooth="yes"/>
			<point x="1057.2" y="580"/>
			<point x="1066" y="588.8"/>
			<point x="1066" y="600" type="curve" smooth="yes"/>
			<point x="1066" y="611.2"/>
			<point x="1057.2" y="620"/>
			<point x="1046" y="620" type="curve" smooth="yes"/>
			<point x="786" y="620" type="line" smooth="yes"/>
			<point x="773.2" y="620"/>
			<point x="766" y="613.2"/>
			<point x="766" y="600" type="curve" smooth="yes"/>
			<point x="766" y="579.2" type="line"/>
			<point x="740.4" y="605.6"/>
			<point x="704.8" y="620"/>
			<point x="665.2" y="620" type="curve" smooth="yes"/>
			<point x="641.2" y="620" type="line" smooth="yes"/>
			<point x="559.2" y="620"/>
			<point x="499.2" y="560"/>
			<point x="499.2" y="478" type="curve" smooth="yes"/>
			<point x="499.2" y="122" type="line" smooth="yes"/>
			<point x="499.2" y="43.2"/>
			<point x="555.6" y="-15.6"/>
			<point x="632" y="-19.6" type="curve" smooth="yes"/>
			<point x="634.4" y="-20"/>
			<point x="636.8" y="-20"/>
		</contour>
	</outline>
</glyph>
<glyph name="ka-tamil" format="2">
	<advance width="460"/>
	<unicode hex="0B95"/>
	<anchor x="231" y="600" name="imatra"/>
	<anchor x="250" y="600" name="top"/>
	<outline>
		<contour>
			<point x="150" y="-20" type="curve" smooth="yes"/>
			<point x="177.2" y="-20"/>
			<point x="202" y="-11.6"/>
			<point x="221.6" y="2.4" type="curve"/>
			<point x="221.2" y="1.6" type="line"/>
			<point x="244.4" y="-11.6"/>
			<point x="271.6" y="-20"/>
			<point x="300" y="-20" type="curve" smooth="yes"/>
			<point x="400.4" y="-20"/>
			<point x="430" y="71.6"/>
			<point x="430" y="175.2" type="curve" smooth="yes"/>
			<point x="430" y="278.8"/>
			<point x="400" y="370"/>
			<point x="290" y="370" type="curve" smooth="yes"/>
			<point x="270" y="370" type="line"/>
			<point x="270" y="580" type="line"/>
			<point x="360" y="580" type="line" smooth="yes"/>
			<point x="371.2" y="580"/>
			<point x="380" y="588.8"/>
			<point x="380" y="600" type="curve" smooth="yes"/>
			<point x="380" y="611.2"/>
			<point x="371.2" y="620"/>
			<point x="360" y="620" type="curve" smooth="yes"/>
			<point x="130" y="620" type="line" smooth="yes"/>
			<point x="117.2" y="620"/>
			<point x="110" y="612.8"/>
			<point x="110" y="600" type="curve" smooth="yes"/>
			<point x="110" y="364.8" type="line"/>
			<point x="64.8" y="350.4"/>
			<point x="30" y="305.2"/>
			<point x="30" y="248" type="curve" smooth="yes"/>
			<point x="30" y="102" type="line" smooth="yes"/>
			<point x="30" y="32.4"/>
			<point x="80.8" y="-20"/>
		</contour>
		<contour>
			<point x="150" y="20" type="curve" smooth="yes"/>
			<point x="100.4" y="20"/>
			<point x="70" y="51.2"/>
			<point x="70" y="102" type="curve" smooth="yes"/>
			<point x="70" y="248" type="line" smooth="yes"/>
			<point x="70" y="298.8"/>
			<point x="101.2" y="330"/>
			<point x="142" y="330" type="curve" smooth="yes"/>
			<point x="230" y="330" type="line"/>
			<point x="230" y="102" type="line" smooth="yes"/>
			<point x="230" y="51.2"/>
			<point x="199.6" y="20"/>
		</contour>
		<contour>
			<point x="300" y="20" type="curve" smooth="yes"/>
			<point x="281.2" y="20"/>
			<point x="265.6" y="24"/>
			<point x="249.6" y="31.6" type="curve"/>
			<point x="262.4" y="51.2"/>
			<point x="270" y="75.6"/>
			<point x="270" y="102" type="curve" smooth="yes"/>
			<point x="270" y="330" type="line"/>
			<point x="290" y="330" type="line" smooth="yes"/>
			<point x="369.6" y="330"/>
			<point x="390" y="269.6"/>
			<point x="390" y="175.2" type="curve" smooth="yes"/>
			<point x="390" y="80.4"/>
			<point x="369.6" y="20"/>
		</contour>
		<contour>
			<point x="150" y="370" type="line"/>
			<point x="150" y="580" type="line"/>
			<point x="230" y="580" type="line"/>
			<point x="230" y="370" type="line"/>
		</contour>
	</outline>
</glyph>
<glyph name="ca-tamil" format="2">
	<advance width="410"/>
	<unicode hex="0B9A"/>
	<anchor x="205" y="600" name="imatra"/>
	<anchor x="205" y="600" name="top"/>
	<outline>
		<contour>
			<point x="150" y="-20" type="curve" smooth="yes"/>
			<point x="219.2" y="-20"/>
			<point x="270" y="32.4"/>
			<point x="270" y="102" type="curve" smooth="yes"/>
			<point x="270" y="330" type="line"/>
			<point x="360" y="330" type="line" smooth="yes"/>
			<point x="371.2" y="330"/>
			<point x="380" y="338.8"/>
			<point x="380" y="350" type="curve" smooth="yes"/>
			<point x="380" y="361.2"/>
			<point x="371.2" y="370"/>
			<point x="360" y="370" type="curve" smooth="yes"/>
			<point x="270" y="370" type="line"/>
			<point x="270" y="580" type="line"/>
			<point x="360" y="580" type="line" smooth="yes"/>
			<point x="371.2" y="580"/>
			<point x="380" y="588.8"/>
			<point x="380" y="600" type="curve" smooth="yes"/>
			<point x="380" y="611.2"/>
			<point x="371.2" y="620"/>
			<point x="360" y="620" type="curve" smooth="yes"/>
			<point x="130" y="620" type="line" smooth="yes"/>
			<point x="117.2" y="620"/>
			<point x="110" y="612.8"/>
			<point x="110" y="600" type="curve" smooth="yes"/>
			<point x="110" y="364.8" type="line"/>
			<point x="64.8" y="350.4"/>
			<point x="30" y="305.2"/>
			<point x="30" y="248" type="curve" smooth="yes"/>
			<point x="30" y="102" type="line" smooth="yes"/>
			<point x="30" y="32.4"/>
			<point x="80.8" y="-20"/>
		</contour>
		<contour>
			<point x="150" y="20" type="curve" smooth="yes"/>
			<point x="100.4" y="20"/>
			<point x="70" y="51.2"/>
			<point x="70" y="102" type="curve" smooth="yes"/>
			<point x="70" y="248" type="line" smooth="yes"/>
			<point x="70" y="298.8"/>
			<point x="101.2" y="330"/>
			<point x="142" y="330" type="curve" smooth="yes"/>
			<point x="230" y="330" type="line"/>
			<point x="230" y="102" type="line" smooth="yes"/>
			<point x="230" y="51.2"/>
			<point x="199.6" y="20"/>
		</contour>
		<contour>
			<point x="150" y="370" type="line"/>
			<point x="150" y="580" type="line"/>
			<point x="230" y="580" type="line"/>
			<point x="230" y="370" type="line"/>
		</contour>
	</outline>
</glyph>
<glyph name="ja-tamil" format="2">
	<advance width="600"/>
	<unicode hex="0B9C"/>
	<anchor x="463" y="600" name="imatra"/>
	<anchor x="317" y="600" name="top"/>
	<outline>
		<contour>
			<point x="171.2" y="-20.8" type="curve" smooth="yes"/>
			<point x="195.2" y="-20.8" type="line" smooth="yes"/>
			<point x="291.2" y="-20.8"/>
			<point x="321.6" y="48.4"/>
			<point x="347.2" y="107.6" type="curve" smooth="yes"/>
			<point x="373.6" y="168.4"/>
			<point x="395.2" y="218"/>
			<point x="474" y="218" type="curve" smooth="yes"/>
			<point x="484" y="218" type="line" smooth="yes"/>
			<point x="539.2" y="218"/>
			<point x="564" y="179.2"/>
			<point x="564" y="123.2" type="curve" smooth="yes"/>
			<point x="564" y="43.2"/>
			<point x="535.6" y="20"/>
			<point x="478" y="20" type="curve" smooth="yes"/>
			<point x="412.8" y="20"/>
			<point x="392" y="42"/>
			<point x="392" y="85.2" type="curve" smooth="yes"/>
			<point x="392" y="96"/>
			<point x="383.2" y="105.2"/>
			<point x="372" y="105.2" type="curve" smooth="yes"/>
			<point x="360.8" y="105.2"/>
			<point x="352" y="96"/>
			<point x="352" y="85.2" type="curve" smooth="yes"/>
			<point x="352" y="23.2"/>
			<point x="392.4" y="-20"/>
			<point x="478" y="-20" type="curve" smooth="yes"/>
			<point x="553.2" y="-20"/>
			<point x="604" y="22"/>
			<point x="604" y="123.2" type="curve" smooth="yes"/>
			<point x="604" y="193.6"/>
			<point x="563.6" y="258"/>
			<point x="484" y="258" type="curve" smooth="yes"/>
			<point x="474" y="258" type="line" smooth="yes"/>
			<point x="368.8" y="258"/>
			<point x="336.8" y="184.4"/>
			<point x="310.4" y="123.6" type="curve" smooth="yes"/>
			<point x="284.8" y="64.8"/>
			<point x="264.8" y="19.2"/>
			<point x="195.2" y="19.2" type="curve" smooth="yes"/>
			<point x="171.2" y="19.2" type="line" smooth="yes"/>
			<point x="110.8" y="19.2"/>
			<point x="70" y="56"/>
			<point x="70" y="106" type="curve" smooth="yes"/>
			<point x="70" y="176"/>
			<point x="91.6" y="195.6"/>
			<point x="168.4" y="213.6" type="curve" smooth="yes"/>
			<point x="492.4" y="290.4" type="line" smooth="yes"/>
			<point x="567.2" y="308"/>
			<point x="604" y="376"/>
			<point x="604" y="450" type="curve" smooth="yes"/>
			<point x="604" y="473.2" type="line" smooth="yes"/>
			<point x="604" y="563.6"/>
			<point x="541.2" y="620"/>
			<point x="463.2" y="620" type="curve" smooth="yes"/>
			<point x="439.2" y="620" type="line" smooth="yes"/>
			<point x="385.2" y="620"/>
			<point x="340.8" y="594"/>
			<point x="316.8" y="553.2" type="curve"/>
			<point x="292" y="595.6"/>
			<point x="247.6" y="620"/>
			<point x="196" y="620" type="curve" smooth="yes"/>
			<point x="172" y="620" type="line" smooth="yes"/>
			<point x="90" y="620"/>
			<point x="30" y="560"/>
			<point x="30" y="478" type="curve" smooth="yes"/>
			<point x="30" y="417.2" type="line" smooth="yes"/>
			<point x="30" y="338"/>
			<point x="86.8" y="279.6"/>
			<point x="162.8" y="275.2" type="curve" smooth="yes"/>
			<point x="170" y="275.2" type="line"/>
			<point x="172" y="275.2" type="line" smooth="yes"/>
			<point x="226.4" y="276"/>
			<point x="265.2" y="320.4"/>
			<point x="265.2" y="377.2" type="curve" smooth="yes"/>
			<point x="265.2" y="413.2" type="line" smooth="yes"/>
			<point x="265.2" y="470.4"/>
			<point x="224.4" y="515.2"/>
			<point x="170" y="515.2" type="curve" smooth="yes"/>
			<point x="115.6" y="515.2"/>
			<point x="75.2" y="470.4"/>
			<point x="75.2" y="413.2" type="curve" smooth="yes"/>
			<point x="75.2" y="381.2" type="line"/>
			<point x="71.6" y="392"/>
			<point x="70" y="404"/>
			<point x="70" y="417.2" type="curve" smooth="yes"/>
			<point x="70" y="478" type="line" smooth="yes"/>
			<point x="70" y="540.8"/>
			<point x="109.2" y="580"/>
			<point x="172" y="580" type="curve" smooth="yes"/>
			<point x="196" y="580" type="line" smooth="yes"/>
			<point x="256.4" y="580"/>
			<point x="297.2" y="543.2"/>
			<point x="297.2" y="473.2" type="curve" smooth="yes"/>
			<point x="297.2" y="371.2" type="line" smooth="yes"/>
			<point x="297.2" y="360"/>
			<point x="306" y="351.2"/>
			<point x="317.2" y="351.2" type="curve" smooth="yes"/>
			<point x="328" y="351.2"/>
			<point x="337.2" y="360"/>
			<point x="337.2" y="371.2" type="curve" smooth="yes"/>
			<point x="337.2" y="478" type="line" smooth="yes"/>
			<point x="337.2" y="540.8"/>
			<point x="376.4" y="580"/>
			<point x="439.2" y="580" type="curve" smooth="yes"/>
			<point x="463.2" y="580" type="line" smooth="yes"/>
			<point x="523.2" y="580"/>
			<point x="564" y="543.2"/>
			<point x="564" y="473.2" type="curve" smooth="yes"/>
			<point x="564" y="450" type="line" smooth="yes"/>
			<point x="564" y="388"/>
			<point x="538.8" y="342.4"/>
			<point x="483.6" y="329.6" type="curve" smooth="yes"/>
			<point x="159.6" y="252.4" type="line" smooth="yes"/>
			<point x="70.4" y="232"/>
			<point x="30" y="196"/>
			<point x="30" y="106" type="curve" smooth="yes"/>
			<point x="30" y="35.6"/>
			<point x="92.8" y="-20.8"/>
		</contour>
		<contour>
			<point x="164.8" y="315.2" type="line" smooth="yes"/>
			<point x="133.6" y="317.6"/>
			<point x="115.2" y="339.6"/>
			<point x="115.2" y="377.2" type="curve" smooth="yes"/>
			<point x="115.2" y="413.2" type="line" smooth="yes"/>
			<point x="115.2" y="452.4"/>
			<point x="136" y="475.2"/>
			<point x="170" y="475.2" type="curve" smooth="yes"/>
			<point x="204" y="475.2"/>
			<point x="225.2" y="452.4"/>
			<point x="225.2" y="413.2" type="curve" smooth="yes"/>
			<point x="225.2" y="377.2" type="line" smooth="yes"/>
			<point x="225.2" y="338"/>
			<point x="205.2" y="315.2"/>
			<point x="170.8" y="315.2" type="curve" smooth="yes"/>
		</contour>
	</outline>
</glyph>
<glyph name="nya-tamil" format="2">
	<advance width="700"/>
	<unicode hex="0B9E"/>
	<anchor x="470" y="600" name="imatra"/>
	<anchor x="350" y="600" name="top"/>
	<outline>
		<contour>
			<point x="203.2" y="-160" type="curve" smooth="yes"/>
			<point x="492" y="-160" type="line" smooth="yes"/>
			<point x="634" y="-160"/>
			<point x="670" y="-53.6"/>
			<point x="670" y="37.2" type="curve" smooth="yes"/>
			<point x="670" y="194"/>
			<point x="670" y="267.2"/>
			<point x="551.2" y="267.2" type="curve" smooth="yes"/>
			<point x="525.2" y="267.2"/>
			<point x="505.2" y="260.8"/>
			<point x="490" y="250" type="curve"/>
			<point x="490" y="580" type="line"/>
			<point x="590" y="580" type="line" smooth="yes"/>
			<point x="601.2" y="580"/>
			<point x="610" y="588.8"/>
			<point x="610" y="600" type="curve" smooth="yes"/>
			<point x="610" y="611.2"/>
			<point x="601.2" y="620"/>
			<point x="590" y="620" type="curve" smooth="yes"/>
			<point x="354" y="620" type="line" smooth="yes"/>
			<point x="225.2" y="620"/>
			<point x="130" y="524.8"/>
			<point x="130" y="396" type="curve" smooth="yes"/>
			<point x="130" y="148" type="line" smooth="yes"/>
			<point x="130" y="81.6"/>
			<point x="176.4" y="30"/>
			<point x="240" y="30" type="curve" smooth="yes"/>
			<point x="304.8" y="30"/>
			<point x="350" y="82"/>
			<point x="350" y="148" type="curve" smooth="yes"/>
			<point x="350" y="192" type="line" smooth="yes"/>
			<point x="350" y="258.4"/>
			<point x="303.6" y="310"/>
			<point x="240" y="310" type="curve" smooth="yes"/>
			<point x="212.8" y="310"/>
			<point x="188.8" y="300.4"/>
			<point x="170" y="284.4" type="curve"/>
			<point x="170" y="396" type="line" smooth="yes"/>
			<point x="170" y="505.6"/>
			<point x="244.4" y="580"/>
			<point x="354" y="580" type="curve" smooth="yes"/>
			<point x="450" y="580" type="line"/>
			<point x="450" y="0" type="line" smooth="yes"/>
			<point x="450" y="-11.2"/>
			<point x="458.8" y="-20"/>
			<point x="470" y="-20" type="curve" smooth="yes"/>
			<point x="481.2" y="-20"/>
			<point x="490" y="-11.2"/>
			<point x="490" y="0" type="curve" smooth="yes"/>
			<point x="490" y="162" type="line" smooth="yes"/>
			<point x="490" y="202"/>
			<point x="503.2" y="227.2"/>
			<point x="551.2" y="227.2" type="curve" smooth="yes"/>
			<point x="630" y="227.2"/>
			<point x="630" y="194"/>
			<point x="630" y="37.2" type="curve" smooth="yes"/>
			<point x="630" y="-43.6"/>
			<point x="604.4" y="-120"/>
			<point x="492" y="-120" type="curve" smooth="yes"/>
			<point x="203.2" y="-120" type="line" smooth="yes"/>
			<point x="123.2" y="-120"/>
			<point x="70" y="-66.8"/>
			<point x="70" y="13.2" type="curve" smooth="yes"/>
			<point x="70" y="247.2" type="line" smooth="yes"/>
			<point x="70" y="258"/>
			<point x="61.2" y="267.2"/>
			<point x="50" y="267.2" type="curve" smooth="yes"/>
			<point x="38.8" y="267.2"/>
			<point x="30" y="258"/>
			<point x="30" y="247.2" type="curve" smooth="yes"/>
			<point x="30" y="13.2" type="line" smooth="yes"/>
			<point x="30" y="-86"/>
			<point x="104" y="-160"/>
		</contour>
		<contour>
			<point x="240" y="70" type="curve" smooth="yes"/>
			<point x="196.8" y="70"/>
			<point x="170" y="99.6"/>
			<point x="170" y="148" type="curve" smooth="yes"/>
			<point x="170" y="192" type="line" smooth="yes"/>
			<point x="170" y="240.4"/>
			<point x="196.8" y="270"/>
			<point x="240" y="270" type="curve" smooth="yes"/>
			<point x="283.2" y="270"/>
			<point x="310" y="240.4"/>
			<point x="310" y="192" type="curve" smooth="yes"/>
			<point x="310" y="148" type="line" smooth="yes"/>
			<point x="310" y="99.6"/>
			<point x="284" y="70"/>
		</contour>
	</outline>
</glyph>
<glyph name="ta-tamil" format="2">
	<advance width="460"/>
	<unicode hex="0BA4"/>
	<anchor x="251" y="600" name="imatra"/>
	<anchor x="250" y="600" name="top"/>
	<outline>
		<contour>
			<point x="50" y="-320" type="curve" smooth="yes"/>
			<point x="61.2" y="-320"/>
			<point x="70" y="-311.2"/>
			<point x="70" y="-300" type="curve" smooth="yes"/>
			<point x="70" y="-212.8" type="line" smooth="yes"/>
			<point x="70" y="-133.2"/>
			<point x="123.2" y="-80"/>
			<point x="203.2" y="-80" type="curve" smooth="yes"/>
			<point x="251.2" y="-80" type="line" smooth="yes"/>
			<point x="374.4" y="-80"/>
			<point x="430" y="7.6"/>
			<point x="430" y="145.2" type="curve" smooth="yes"/>
			<point x="430" y="288"/>
			<point x="382" y="370"/>
			<point x="271.2" y="370" type="curve"/>
			<point x="271.2" y="580" type="line"/>
			<point x="361.2" y="580" type="line" smooth="yes"/>
			<point x="372" y="580"/>
			<point x="381.2" y="588.8"/>
			<point x="381.2" y="600" type="curve" smooth="yes"/>
			<point x="381.2" y="611.2"/>
			<point x="372" y="620"/>
			<point x="361.2" y="620" type="curve" smooth="yes"/>
			<point x="131.2" y="620" type="line" smooth="yes"/>
			<point x="118.4" y="620"/>
			<point x="111.2" y="612.8"/>
			<point x="111.2" y="600" type="curve" smooth="yes"/>
			<point x="111.2" y="364.8" type="line"/>
			<point x="65.6" y="350.4"/>
			<point x="31.2" y="305.2"/>
			<point x="31.2" y="248" type="curve" smooth="yes"/>
			<point x="31.2" y="102" type="line" smooth="yes"/>
			<point x="31.2" y="32.4"/>
			<point x="82" y="-20"/>
			<point x="151.2" y="-20" type="curve" smooth="yes"/>
			<point x="220" y="-20"/>
			<point x="271.2" y="32.4"/>
			<point x="271.2" y="102" type="curve" smooth="yes"/>
			<point x="271.2" y="330" type="line"/>
			<point x="356.8" y="330"/>
			<point x="390" y="274.4"/>
			<point x="390" y="145.2" type="curve" smooth="yes"/>
			<point x="390" y="22"/>
			<point x="350" y="-40"/>
			<point x="251.2" y="-40" type="curve" smooth="yes"/>
			<point x="203.2" y="-40" type="line" smooth="yes"/>
			<point x="104" y="-40"/>
			<point x="30" y="-114"/>
			<point x="30" y="-212.8" type="curve" smooth="yes"/>
			<point x="30" y="-300" type="line" smooth="yes"/>
			<point x="30" y="-311.2"/>
			<point x="38.8" y="-320"/>
		</contour>
		<contour>
			<point x="151.2" y="20" type="curve" smooth="yes"/>
			<point x="101.6" y="20"/>
			<point x="71.2" y="51.2"/>
			<point x="71.2" y="102" type="curve" smooth="yes"/>
			<point x="71.2" y="248" type="line" smooth="yes"/>
			<point x="71.2" y="298.8"/>
			<point x="102.4" y="330"/>
			<point x="143.2" y="330" type="curve" smooth="yes"/>
			<point x="231.2" y="330" type="line"/>
			<point x="231.2" y="102" type="line" smooth="yes"/>
			<point x="231.2" y="51.2"/>
			<point x="200.4" y="20"/>
		</contour>
		<contour>
			<point x="151.2" y="370" type="line"/>
			<point x="151.2" y="580" type="line"/>
			<point x="231.2" y="580" type="line"/>
			<point x="231.2" y="370" type="line"/>
		</contour>
	</outline>
</glyph>
<glyph name="na-tamil" format="2">
	<advance width="460"/>
	<unicode hex="0BA8"/>
	<anchor x="230" y="-300" name="bottom"/>
	<anchor x="460" y="-300" name="bottomright"/>
	<anchor x="230" y="600" name="imatra"/>
	<anchor x="230" y="600" name="top"/>
	<outline>
		<contour>
			<point x="50" y="-320.8" type="curve" smooth="yes"/>
			<point x="61.2" y="-320.8"/>
			<point x="70" y="-312"/>
			<point x="70" y="-300.8" type="curve" smooth="yes"/>
			<point x="70" y="-214" type="line" smooth="yes"/>
			<point x="70" y="-125.2"/>
			<point x="123.2" y="-72"/>
			<point x="203.2" y="-72" type="curve" smooth="yes"/>
			<point x="252" y="-72" type="line" smooth="yes"/>
			<point x="393.2" y="-72"/>
			<point x="430" y="-7.2"/>
			<point x="430" y="155.2" type="curve" smooth="yes"/>
			<point x="430" y="292"/>
			<point x="430" y="365.2"/>
			<point x="311.2" y="365.2" type="curve" smooth="yes"/>
			<point x="285.2" y="365.2"/>
			<point x="265.2" y="358.8"/>
			<point x="250" y="348" type="curve"/>
			<point x="250" y="580" type="line"/>
			<point x="360" y="580" type="line" smooth="yes"/>
			<point x="371.2" y="580"/>
			<point x="380" y="588.8"/>
			<point x="380" y="600" type="curve" smooth="yes"/>
			<point x="380" y="611.2"/>
			<point x="371.2" y="620"/>
			<point x="360" y="620" type="curve" smooth="yes"/>
			<point x="50" y="620" type="line" smooth="yes"/>
			<point x="37.2" y="620"/>
			<point x="30" y="613.2"/>
			<point x="30" y="600" type="curve" smooth="yes"/>
			<point x="30" y="80" type="line" smooth="yes"/>
			<point x="30" y="68.8"/>
			<point x="38.8" y="60"/>
			<point x="50" y="60" type="curve" smooth="yes"/>
			<point x="61.2" y="60"/>
			<point x="70" y="68.8"/>
			<point x="70" y="80" type="curve" smooth="yes"/>
			<point x="70" y="580" type="line"/>
			<point x="210" y="580" type="line"/>
			<point x="210" y="150" type="line" smooth="yes"/>
			<point x="210" y="138.8"/>
			<point x="218.8" y="130"/>
			<point x="230" y="130" type="curve" smooth="yes"/>
			<point x="241.2" y="130"/>
			<point x="250" y="138.8"/>
			<point x="250" y="150" type="curve" smooth="yes"/>
			<point x="250" y="260" type="line" smooth="yes"/>
			<point x="250" y="300"/>
			<point x="263.2" y="325.2"/>
			<point x="311.2" y="325.2" type="curve" smooth="yes"/>
			<point x="390.4" y="325.2"/>
			<point x="390" y="292.4"/>
			<point x="390" y="155.2" type="curve" smooth="yes"/>
			<point x="390" y="6.4"/>
			<point x="367.6" y="-32"/>
			<point x="252" y="-32" type="curve" smooth="yes"/>
			<point x="203.2" y="-32" type="line" smooth="yes"/>
			<point x="104" y="-32"/>
			<point x="30" y="-106"/>
			<point x="30" y="-214" type="curve" smooth="yes"/>
			<point x="30" y="-300.8" type="line" smooth="yes"/>
			<point x="30" y="-312"/>
			<point x="38.8" y="-320.8"/>
		</contour>
	</outline>
</glyph>
<glyph name="pa-tamil" format="2">
	<advance width="400"/>
	<unicode hex="0BAA"/>
	<anchor x="350" y="600" name="imatra"/>
	<anchor x="200" y="600" name="top"/>
	<outline>
		<contour>
			<point x="50" y="-20" type="curve" smooth="yes"/>
			<point x="350" y="-20" type="line" smooth="yes"/>
			<point x="363.2" y="-20"/>
			<point x="370" y="-13.2"/>
			<point x="370" y="0" type="curve" smooth="yes"/>
			<point x="370" y="600" type="line" smooth="yes"/>
			<point x="370" y="611.2"/>
			<point x="361.2" y="620"/>
			<point x="350" y="620" type="curve" smooth="yes"/>
			<point x="338.8" y="620"/>
			<point x="330" y="611.2"/>
			<point x="330" y="600" type="curve" smooth="yes"/>
			<point x="330" y="20" type="line"/>
			<point x="70" y="20" type="line"/>
			<point x="70" y="600" type="line" smooth="yes"/>
			<point x="70" y="611.2"/>
			<point x="61.2" y="620"/>
			<point x="50" y="620" type="curve" smooth="yes"/>
			<point x="38.8" y="620"/>
			<point x="30" y="611.2"/>
			<point x="30" y="600" type="curve" smooth="yes"/>
			<point x="30" y="0" type="line" smooth="yes"/>
			<point x="30" y="-12.8"/>
			<point x="37.2" y="-20"/>
		</contour>
	</outline>
</glyph>
<glyph name="ma-tamil" format="2">
	<advance width="450"/>
	<unicode hex="0BAE"/>
	<anchor x="313" y="600" name="imatra"/>
	<anchor x="225" y="600" name="top"/>
	<outline>
		<contour>
			<point x="50" y="-20" type="curve" smooth="yes"/>
			<point x="311.2" y="-20" type="line" smooth="yes"/>
			<point x="372.8" y="-20"/>
			<point x="420" y="27.2"/>
			<point x="420" y="89.2" type="curve" smooth="yes"/>
			<point x="420" y="511.2" type="line" smooth="yes"/>
			<point x="420" y="572.8"/>
			<point x="374" y="620"/>
			<point x="313.2" y="620" type="curve" smooth="yes"/>
			<point x="252" y="620"/>
			<point x="205.2" y="572.8"/>
			<point x="205.2" y="511.2" type="curve" smooth="yes"/>
			<point x="205.2" y="20" type="line"/>
			<point x="70" y="20" type="line"/>
			<point x="70" y="600" type="line" smooth="yes"/>
			<point x="70" y="611.2"/>
			<point x="61.2" y="620"/>
			<point x="50" y="620" type="curve" smooth="yes"/>
			<point x="38.8" y="620"/>
			<point x="30" y="611.2"/>
			<point x="30" y="600" type="curve" smooth="yes"/>
			<point x="30" y="0" type="line" smooth="yes"/>
			<point x="30" y="-12.8"/>
			<point x="37.2" y="-20"/>
		</contour>
		<contour>
			<point x="245.2" y="20" type="line"/>
			<point x="245.2" y="511.2" type="line" smooth="yes"/>
			<point x="245.2" y="553.6"/>
			<point x="271.2" y="580"/>
			<point x="313.2" y="580" type="curve" smooth="yes"/>
			<point x="354.4" y="580"/>
			<point x="380" y="554"/>
			<point x="380" y="511.2" type="curve" smooth="yes"/>
			<point x="380" y="89.2" type="line" smooth="yes"/>
			<point x="380" y="46.4"/>
			<point x="353.6" y="20"/>
			<point x="311.2" y="20" type="curve" smooth="yes"/>
		</contour>
	</outline>
</glyph>
<glyph name="ya-tamil" format="2">
	<advance width="460"/>
	<unicode hex="0BAF"/>
	<anchor x="410" y="600" name="imatra"/>
	<anchor x="230" y="600" name="top"/>
	<outline>
		<contour>
			<point x="140" y="-20" type="curve" smooth="yes"/>
			<point x="167.2" y="-20"/>
			<point x="191.2" y="-11.2"/>
			<point x="210" y="4.4" type="curve"/>
			<point x="210" y="-7.6" type="line" smooth="yes"/>
			<point x="210" y="-15.6"/>
			<point x="217.2" y="-20"/>
			<point x="230" y="-20" type="curve" smooth="yes"/>
			<point x="410" y="-20" type="line" smooth="yes"/>
			<point x="423.2" y="-20"/>
			<point x="430" y="-13.2"/>
			<point x="430" y="0" type="curve" smooth="yes"/>
			<point x="430" y="600" type="line" smooth="yes"/>
			<point x="430" y="611.2"/>
			<point x="421.2" y="620"/>
			<point x="410" y="620" type="curve" smooth="yes"/>
			<point x="398.8" y="620"/>
			<point x="390" y="611.2"/>
			<point x="390" y="600" type="curve" smooth="yes"/>
			<point x="390" y="20" type="line"/>
			<point x="250" y="20" type="line"/>
			<point x="250" y="580" type="line" smooth="yes"/>
			<point x="250" y="593.2"/>
			<point x="243.2" y="600"/>
			<point x="230" y="600" type="curve" smooth="yes"/>
			<point x="217.2" y="600"/>
			<point x="210" y="593.2"/>
			<point x="210" y="580" type="curve" smooth="yes"/>
			<point x="210" y="92" type="line" smooth="yes"/>
			<point x="210" y="47.2"/>
			<point x="183.6" y="20"/>
			<point x="140" y="20" type="curve" smooth="yes"/>
			<point x="96.4" y="20"/>
			<point x="70" y="47.2"/>
			<point x="70" y="92" type="curve" smooth="yes"/>
			<point x="70" y="600" type="line" smooth="yes"/>
			<point x="70" y="611.2"/>
			<point x="61.2" y="620"/>
			<point x="50" y="620" type="curve" smooth="yes"/>
			<point x="38.8" y="620"/>
			<point x="30" y="611.2"/>
			<point x="30" y="600" type="curve" smooth="yes"/>
			<point x="30" y="92" type="line" smooth="yes"/>
			<point x="30" y="28.4"/>
			<point x="76.8" y="-20"/>
		</contour>
	</outline>
</glyph>
<glyph name="ra-tamil" format="2">
	<advance width="400"/>
	<unicode hex="0BB0"/>
	<anchor x="250" y="600" name="imatra"/>
	<anchor x="195" y="600" name="top"/>
	<outline>
		<contour>
			<point x="80" y="-316" type="curve" smooth="yes"/>
			<point x="87.6" y="-316"/>
			<point x="94" y="-312"/>
			<point x="97.2" y="-306" type="curve" smooth="yes"/>
			<point x="97.6" y="-305.6" type="line"/>
			<point x="263.2" y="-16.8" type="line" smooth="yes"/>
			<point x="268" y="-8.4"/>
			<point x="270" y="-1.6"/>
			<point x="270" y="8" type="curve" smooth="yes"/>
			<point x="270" y="580" type="line"/>
			<point x="350" y="580" type="line" smooth="yes"/>
			<point x="361.2" y="580"/>
			<point x="370" y="588.8"/>
			<point x="370" y="600" type="curve" smooth="yes"/>
			<point x="370" y="611.2"/>
			<point x="361.2" y="620"/>
			<point x="350" y="620" type="curve" smooth="yes"/>
			<point x="50" y="620" type="line" smooth="yes"/>
			<point x="37.2" y="620"/>
			<point x="30" y="612.8"/>
			<point x="30" y="600" type="curve" smooth="yes"/>
			<point x="30" y="100" type="line" smooth="yes"/>
			<point x="30" y="88.8"/>
			<point x="38.8" y="80"/>
			<point x="50" y="80" type="curve" smooth="yes"/>
			<point x="61.2" y="80"/>
			<point x="70" y="88.8"/>
			<point x="70" y="100" type="curve" smooth="yes"/>
			<point x="70" y="580" type="line"/>
			<point x="230" y="580" type="line"/>
			<point x="230" y="5.2" type="line"/>
			<point x="62.8" y="-285.6" type="line"/>
			<point x="62.8" y="-286" type="line"/>
			<point x="60.8" y="-288.8"/>
			<point x="60" y="-292.4"/>
			<point x="60" y="-296" type="curve" smooth="yes"/>
			<point x="60" y="-307.2"/>
			<point x="68.8" y="-316"/>
		</contour>
	</outline>
</glyph>
<glyph name="rra-tamil" format="2">
	<advance width="460"/>
	<unicode hex="0BB1"/>
	<anchor x="311" y="601" name="imatra"/>
	<anchor x="230" y="600" name="top"/>
	<outline>
		<contour>
			<point x="50" y="-320.8" type="curve" smooth="yes"/>
			<point x="61.2" y="-320.8"/>
			<point x="70" y="-312"/>
			<point x="70" y="-300.8" type="curve" smooth="yes"/>
			<point x="70" y="-214" type="line" smooth="yes"/>
			<point x="70" y="-125.2"/>
			<point x="123.2" y="-72"/>
			<point x="203.2" y="-72" type="curve" smooth="yes"/>
			<point x="252" y="-72" type="line" smooth="yes"/>
			<point x="392.8" y="-72"/>
			<point x="430" y="-8.4"/>
			<point x="430" y="225.2" type="curve" smooth="yes"/>
			<point x="430" y="369.2" type="line" smooth="yes"/>
			<point x="430" y="507.2"/>
			<point x="424.4" y="621.2"/>
			<point x="311.2" y="621.2" type="curve" smooth="yes"/>
			<point x="271.6" y="621.2"/>
			<point x="245.6" y="606"/>
			<point x="230" y="584.4" type="curve"/>
			<point x="212.8" y="606.4"/>
			<point x="186" y="620"/>
			<point x="155.2" y="620" type="curve" smooth="yes"/>
			<point x="101.2" y="620"/>
			<point x="60" y="578.8"/>
			<point x="60" y="524" type="curve" smooth="yes"/>
			<point x="60" y="80" type="line" smooth="yes"/>
			<point x="60" y="68.8"/>
			<point x="68.8" y="60"/>
			<point x="80" y="60" type="curve" smooth="yes"/>
			<point x="91.2" y="60"/>
			<point x="100" y="68.8"/>
			<point x="100" y="80" type="curve" smooth="yes"/>
			<point x="100" y="524" type="line" smooth="yes"/>
			<point x="100" y="559.6"/>
			<point x="120.4" y="580"/>
			<point x="155.2" y="580" type="curve" smooth="yes"/>
			<point x="189.6" y="580"/>
			<point x="210" y="559.6"/>
			<point x="210" y="524" type="curve" smooth="yes"/>
			<point x="210" y="120" type="line" smooth="yes"/>
			<point x="210" y="108.8"/>
			<point x="218.8" y="100"/>
			<point x="230" y="100" type="curve" smooth="yes"/>
			<point x="241.2" y="100"/>
			<point x="250" y="108.8"/>
			<point x="250" y="120" type="curve" smooth="yes"/>
			<point x="250" y="516" type="line" smooth="yes"/>
			<point x="250" y="556"/>
			<point x="263.2" y="581.2"/>
			<point x="311.2" y="581.2" type="curve" smooth="yes"/>
			<point x="386" y="581.2"/>
			<point x="390" y="505.6"/>
			<point x="390" y="369.2" type="curve" smooth="yes"/>
			<point x="390" y="225.2" type="line" smooth="yes"/>
			<point x="390" y="6.4"/>
			<point x="367.6" y="-32"/>
			<point x="252" y="-32" type="curve" smooth="yes"/>
			<point x="203.2" y="-32" type="line" smooth="yes"/>
			<point x="104" y="-32"/>
			<point x="30" y="-106"/>
			<point x="30" y="-214" type="curve" smooth="yes"/>
			<point x="30" y="-300.8" type="line" smooth="yes"/>
			<point x="30" y="-312"/>
			<point x="38.8" y="-320.8"/>
		</contour>
	</outline>
</glyph>
<glyph name="llla-tamil" format="2">
	<advance width="450"/>
	<unicode hex="0BB4"/>
	<anchor x="313" y="600" name="imatra"/>
	<anchor x="225" y="600" name="top"/>
	<outline>
		<contour>
			<point x="175.2" y="-318.8" type="curve" smooth="yes"/>
			<point x="235.2" y="-318.8"/>
			<point x="281.2" y="-272.8"/>
			<point x="282" y="-212" type="curve" smooth="yes"/>
			<point x="282" y="-169.2"/>
			<point x="307.6" y="-142.8"/>
			<point x="349.2" y="-142.8" type="curve" smooth="yes"/>
			<point x="370" y="-142.8" type="line" smooth="yes"/>
			<point x="381.2" y="-142.8"/>
			<point x="390" y="-134"/>
			<point x="390" y="-122.8" type="curve" smooth="yes"/>
			<point x="390" y="-112"/>
			<point x="381.2" y="-102.8"/>
			<point x="370" y="-102.8" type="curve" smooth="yes"/>
			<point x="317.2" y="-102.8" type="line" smooth="yes"/>
			<point x="272.4" y="-102.8"/>
			<point x="245.2" y="-75.6"/>
			<point x="245.2" y="-30.8" type="curve" smooth="yes"/>
			<point x="245.2" y="-20" type="line"/>
			<point x="311.2" y="-20" type="line" smooth="yes"/>
			<point x="372.8" y="-20"/>
			<point x="420" y="27.2"/>
			<point x="420" y="89.2" type="curve" smooth="yes"/>
			<point x="420" y="511.2" type="line" smooth="yes"/>
			<point x="420" y="572.8"/>
			<point x="374" y="620"/>
			<point x="313.2" y="620" type="curve" smooth="yes"/>
			<point x="252" y="620"/>
			<point x="205.2" y="572.8"/>
			<point x="205.2" y="511.2" type="curve" smooth="yes"/>
			<point x="205.2" y="20" type="line"/>
			<point x="70" y="20" type="line"/>
			<point x="70" y="600" type="line" smooth="yes"/>
			<point x="70" y="611.2"/>
			<point x="61.2" y="620"/>
			<point x="50" y="620" type="curve" smooth="yes"/>
			<point x="38.8" y="620"/>
			<point x="30" y="611.2"/>
			<point x="30" y="600" type="curve" smooth="yes"/>
			<point x="30" y="0" type="line" smooth="yes"/>
			<point x="30" y="-12.8"/>
			<point x="37.2" y="-20"/>
			<point x="50" y="-20" type="curve" smooth="yes"/>
			<point x="205.2" y="-20" type="line"/>
			<point x="205.2" y="-30.8" type="line" smooth="yes"/>
			<point x="205.2" y="-78.8"/>
			<point x="232" y="-118"/>
			<point x="272.4" y="-134.4" type="curve"/>
			<point x="254" y="-153.6"/>
			<point x="242.4" y="-180"/>
			<point x="242" y="-210" type="curve" smooth="yes"/>
			<point x="242" y="-252.8"/>
			<point x="216.4" y="-278.8"/>
			<point x="175.2" y="-278.8" type="curve" smooth="yes"/>
			<point x="133.2" y="-278.8"/>
			<point x="107.2" y="-252.8"/>
			<point x="107.2" y="-210" type="curve" smooth="yes"/>
			<point x="107.2" y="-198.8"/>
			<point x="98" y="-190"/>
			<point x="87.2" y="-190" type="curve" smooth="yes"/>
			<point x="76" y="-190"/>
			<point x="67.2" y="-198.8"/>
			<point x="67.2" y="-210" type="curve" smooth="yes"/>
			<point x="67.2" y="-272"/>
			<point x="114" y="-318.8"/>
		</contour>
		<contour>
			<point x="245.2" y="20" type="line"/>
			<point x="245.2" y="511.2" type="line" smooth="yes"/>
			<point x="245.2" y="553.6"/>
			<point x="271.2" y="580"/>
			<point x="313.2" y="580" type="curve" smooth="yes"/>
			<point x="354.4" y="580"/>
			<point x="380" y="554"/>
			<point x="380" y="511.2" type="curve" smooth="yes"/>
			<point x="380" y="89.2" type="line" smooth="yes"/>
			<point x="380" y="46.4"/>
			<point x="353.6" y="20"/>
			<point x="311.2" y="20" type="curve" smooth="yes"/>
		</contour>
	</outline>
</glyph>
<glyph name="sha-tamil" format="2">
	<advance width="560"/>
	<unicode hex="0BB6"/>
	<anchor x="510" y="600" name="imatra"/>
	<anchor x="280" y="600" name="top"/>
	<outline>
		<contour>
			<point x="140" y="-20" type="curve" smooth="yes"/>
			<point x="203.2" y="-20"/>
			<point x="250" y="28.4"/>
			<point x="250" y="92" type="curve" smooth="yes"/>
			<point x="250" y="580" type="line"/>
			<point x="310" y="580" type="line"/>
			<point x="310" y="92" type="line" smooth="yes"/>
			<point x="310" y="28.4"/>
			<point x="356.8" y="-20"/>
			<point x="420" y="-20" type="curve" smooth="yes"/>
			<point x="483.2" y="-20"/>
			<point x="530" y="28.4"/>
			<point x="530" y="92" type="curve" smooth="yes"/>
			<point x="530" y="600" type="line" smooth="yes"/>
			<point x="530" y="613.2"/>
			<point x="523.2" y="620"/>
			<point x="510" y="620" type="curve" smooth="yes"/>
			<point x="230" y="620" type="line" smooth="yes"/>
			<point x="217.2" y="620"/>
			<point x="210" y="612.8"/>
			<point x="210" y="600" type="curve" smooth="yes"/>
			<point x="210" y="92" type="line" smooth="yes"/>
			<point x="210" y="47.2"/>
			<point x="183.6" y="20"/>
			<point x="140" y="20" type="curve" smooth="yes"/>
			<point x="96.4" y="20"/>
			<point x="70" y="47.2"/>
			<point x="70" y="92" type="curve" smooth="yes"/>
			<point x="70" y="600" type="line" smooth="yes"/>
			<point x="70" y="611.2"/>
			<point x="61.2" y="620"/>
			<point x="50" y="620" type="curve" smooth="yes"/>
			<point x="38.8" y="620"/>
			<point x="30" y="611.2"/>
			<point x="30" y="600" type="curve" smooth="yes"/>
			<point x="30" y="92" type="line" smooth="yes"/>
			<point x="30" y="28.4"/>
			<point x="76.8" y="-20"/>
		</contour>
		<contour>
			<point x="420" y="20" type="curve" smooth="yes"/>
			<point x="376.4" y="20"/>
			<point x="350" y="47.2"/>
			<point x="350" y="92" type="curve" smooth="yes"/>
			<point x="350" y="580" type="line"/>
			<point x="490" y="580" type="line"/>
			<point x="490" y="92" type="line" smooth="yes"/>
			<point x="490" y="47.2"/>
			<point x="463.6" y="20"/>
		</contour>
	</outline>
</glyph>
<glyph name="ssa-tamil" format="2">
	<advance width="660"/>
	<unicode hex="0BB7"/>
	<anchor x="450" y="280" name="imatra"/>
	<anchor x="330" y="600" name="top"/>
	<outline>
		<contour>
			<point x="530" y="-316.8" type="curve" smooth="yes"/>
			<point x="541.2" y="-316.8"/>
			<point x="550" y="-308"/>
			<point x="550" y="-296.8" type="curve" smooth="yes"/>
			<point x="550" y="-20" type="line"/>
			<point x="610" y="-20" type="line" smooth="yes"/>
			<point x="621.2" y="-20"/>
			<point x="630" y="-11.2"/>
			<point x="630" y="0" type="curve" smooth="yes"/>
			<point x="630" y="11.2"/>
			<point x="621.2" y="20"/>
			<point x="610" y="20" type="curve" smooth="yes"/>
			<point x="550" y="20" type="line"/>
			<point x="550" y="198" type="line" smooth="yes"/>
			<point x="550" y="256.8"/>
			<point x="506.8" y="300"/>
			<point x="450" y="300" type="curve" smooth="yes"/>
			<point x="393.2" y="300"/>
			<point x="350" y="256.8"/>
			<point x="350" y="198" type="curve" smooth="yes"/>
			<point x="350" y="82" type="line" smooth="yes"/>
			<point x="350" y="58"/>
			<point x="357.2" y="36.8"/>
			<point x="368.8" y="20" type="curve"/>
			<point x="110" y="20" type="line" smooth="yes"/>
			<point x="89.2" y="20"/>
			<point x="79.2" y="29.6"/>
			<point x="79.2" y="50" type="curve" smooth="yes"/>
			<point x="79.2" y="70.4"/>
			<point x="89.2" y="80"/>
			<point x="110" y="80" type="curve" smooth="yes"/>
			<point x="198" y="80" type="line" smooth="yes"/>
			<point x="280" y="80"/>
			<point x="340" y="140"/>
			<point x="340" y="222" type="curve" smooth="yes"/>
			<point x="340" y="478" type="line" smooth="yes"/>
			<point x="340" y="560"/>
			<point x="280" y="620"/>
			<point x="198" y="620" type="curve" smooth="yes"/>
			<point x="172" y="620" type="line" smooth="yes"/>
			<point x="90" y="620"/>
			<point x="30" y="560"/>
			<point x="30" y="478" type="curve" smooth="yes"/>
			<point x="30" y="278" type="line" smooth="yes"/>
			<point x="30" y="220.8"/>
			<point x="70.4" y="176"/>
			<point x="125.2" y="176" type="curve" smooth="yes"/>
			<point x="180.8" y="176"/>
			<point x="220" y="220.8"/>
			<point x="220" y="278" type="curve" smooth="yes"/>
			<point x="220" y="314" type="line" smooth="yes"/>
			<point x="220" y="371.2"/>
			<point x="179.6" y="416"/>
			<point x="125.2" y="416" type="curve" smooth="yes"/>
			<point x="104" y="416"/>
			<point x="85.2" y="409.6"/>
			<point x="70" y="398" type="curve"/>
			<point x="70" y="478" type="line" smooth="yes"/>
			<point x="70" y="540.8"/>
			<point x="109.2" y="580"/>
			<point x="172" y="580" type="curve" smooth="yes"/>
			<point x="198" y="580" type="line" smooth="yes"/>
			<point x="260.8" y="580"/>
			<point x="300" y="540.8"/>
			<point x="300" y="478" type="curve" smooth="yes"/>
			<point x="300" y="222" type="line" smooth="yes"/>
			<point x="300" y="159.2"/>
			<point x="260.8" y="120"/>
			<point x="198" y="120" type="curve" smooth="yes"/>
			<point x="110" y="120" type="line" smooth="yes"/>
			<point x="70.4" y="120"/>
			<point x="39.2" y="90"/>
			<point x="39.2" y="50" type="curve" smooth="yes"/>
			<point x="39.2" y="10"/>
			<point x="70.4" y="-20"/>
			<point x="110" y="-20" type="curve" smooth="yes"/>
			<point x="510" y="-20" type="line"/>
			<point x="510" y="-296.8" type="line" smooth="yes"/>
			<point x="510" y="-308"/>
			<point x="518.8" y="-316.8"/>
		</contour>
		<contour>
			<point x="125.2" y="216" type="curve" smooth="yes"/>
			<point x="90.8" y="216"/>
			<point x="70" y="238.8"/>
			<point x="70" y="278" type="curve" smooth="yes"/>
			<point x="70" y="314" type="line" smooth="yes"/>
			<point x="70" y="353.2"/>
			<point x="90.8" y="376"/>
			<point x="125.2" y="376" type="curve" smooth="yes"/>
			<point x="159.2" y="376"/>
			<point x="180" y="353.2"/>
			<point x="180" y="314" type="curve" smooth="yes"/>
			<point x="180" y="278" type="line" smooth="yes"/>
			<point x="180" y="238.4"/>
			<point x="160" y="216"/>
		</contour>
		<contour>
			<point x="444" y="20" type="line" smooth="yes"/>
			<point x="412.4" y="20"/>
			<point x="390" y="42.4"/>
			<point x="390" y="82" type="curve" smooth="yes"/>
			<point x="390" y="198" type="line" smooth="yes"/>
			<point x="390" y="237.6"/>
			<point x="412.4" y="260"/>
			<point x="450" y="260" type="curve" smooth="yes"/>
			<point x="487.6" y="260"/>
			<point x="510" y="237.6"/>
			<point x="510" y="198" type="curve" smooth="yes"/>
			<point x="510" y="20" type="line"/>
		</contour>
	</outline>
</glyph>
<glyph name="sa-tamil" format="2">
	<advance width="659"/>
	<unicode hex="0BB8"/>
	<anchor x="507" y="600" name="imatra"/>
	<anchor x="314" y="600" name="top"/>
	<outline>
		<contour>
			<point x="170" y="-20" type="curve" smooth="yes"/>
			<point x="172" y="-20" type="line" smooth="yes"/>
			<point x="226.4" y="-18.8"/>
			<point x="265.2" y="25.6"/>
			<point x="265.2" y="82" type="curve" smooth="yes"/>
			<point x="265.2" y="118" type="line" smooth="yes"/>
			<point x="265.2" y="175.2"/>
			<point x="224.4" y="220"/>
			<point x="170" y="220" type="curve" smooth="yes"/>
			<point x="115.6" y="220"/>
			<point x="75.2" y="175.2"/>
			<point x="75.2" y="118" type="curve" smooth="yes"/>
			<point x="75.2" y="86.4" type="line"/>
			<point x="71.6" y="97.2"/>
			<point x="70" y="109.2"/>
			<point x="70" y="122" type="curve" smooth="yes"/>
			<point x="70" y="478" type="line" smooth="yes"/>
			<point x="70" y="540.8"/>
			<point x="109.2" y="580"/>
			<point x="172" y="580" type="curve" smooth="yes"/>
			<point x="196" y="580" type="line" smooth="yes"/>
			<point x="256.4" y="580"/>
			<point x="297.2" y="543.2"/>
			<point x="297.2" y="473.2" type="curve" smooth="yes"/>
			<point x="297.2" y="76" type="line" smooth="yes"/>
			<point x="297.2" y="64.8"/>
			<point x="306" y="56"/>
			<point x="317.2" y="56" type="curve" smooth="yes"/>
			<point x="328" y="56"/>
			<point x="337.2" y="64.8"/>
			<point x="337.2" y="76" type="curve" smooth="yes"/>
			<point x="337.2" y="473.2" type="line" smooth="yes"/>
			<point x="337.2" y="492"/>
			<point x="334" y="509.6"/>
			<point x="329.2" y="525.6" type="curve"/>
			<point x="329.6" y="560.4"/>
			<point x="350" y="580"/>
			<point x="384" y="580" type="curve" smooth="yes"/>
			<point x="418.8" y="580"/>
			<point x="439.2" y="559.6"/>
			<point x="439.2" y="524" type="curve" smooth="yes"/>
			<point x="439.2" y="76" type="line" smooth="yes"/>
			<point x="439.2" y="21.2"/>
			<point x="480" y="-20"/>
			<point x="534" y="-20" type="curve" smooth="yes"/>
			<point x="588" y="-20"/>
			<point x="629.2" y="21.2"/>
			<point x="629.2" y="76" type="curve" smooth="yes"/>
			<point x="629.2" y="523.2" type="line" smooth="yes"/>
			<point x="629.2" y="577.6"/>
			<point x="588" y="620"/>
			<point x="533.2" y="620" type="curve" smooth="yes"/>
			<point x="507.2" y="620" type="line" smooth="yes"/>
			<point x="496" y="620"/>
			<point x="487.2" y="611.2"/>
			<point x="487.2" y="600" type="curve" smooth="yes"/>
			<point x="487.2" y="588.8"/>
			<point x="496" y="580"/>
			<point x="507.2" y="580" type="curve" smooth="yes"/>
			<point x="533.2" y="580" type="line" smooth="yes"/>
			<point x="568.4" y="580"/>
			<point x="589.2" y="558.8"/>
			<point x="589.2" y="523.2" type="curve" smooth="yes"/>
			<point x="589.2" y="76" type="line" smooth="yes"/>
			<point x="589.2" y="40.4"/>
			<point x="568.8" y="20"/>
			<point x="534" y="20" type="curve" smooth="yes"/>
			<point x="499.2" y="20"/>
			<point x="479.2" y="40.4"/>
			<point x="479.2" y="76" type="curve" smooth="yes"/>
			<point x="479.2" y="524" type="line" smooth="yes"/>
			<point x="479.2" y="578.8"/>
			<point x="438" y="620"/>
			<point x="384" y="620" type="curve" smooth="yes"/>
			<point x="348.4" y="620"/>
			<point x="318.4" y="602"/>
			<point x="302" y="574" type="curve"/>
			<point x="276.4" y="603.6"/>
			<point x="238.40045" y="620"/>
			<point x="196" y="620" type="curve" smooth="yes"/>
			<point x="172" y="620" type="line" smooth="yes"/>
			<point x="90" y="620"/>
			<point x="30" y="560"/>
			<point x="30" y="478" type="curve" smooth="yes"/>
			<point x="30" y="122" type="line" smooth="yes"/>
			<point x="30" y="43.2"/>
			<point x="86.8" y="-15.6"/>
			<point x="162.8" y="-19.6" type="curve" smooth="yes"/>
			<point x="165.2" y="-20"/>
			<point x="167.6" y="-20"/>
		</contour>
		<contour>
			<point x="164.8" y="20" type="line" smooth="yes"/>
			<point x="133.6" y="22.4"/>
			<point x="115.2" y="44.8"/>
			<point x="115.2" y="82" type="curve" smooth="yes"/>
			<point x="115.2" y="118" type="line" smooth="yes"/>
			<point x="115.2" y="157.2"/>
			<point x="136" y="180"/>
			<point x="170" y="180" type="curve" smooth="yes"/>
			<point x="204" y="180"/>
			<point x="225.2" y="157.2"/>
			<point x="225.2" y="118" type="curve" smooth="yes"/>
			<point x="225.2" y="82" type="line" smooth="yes"/>
			<point x="225.2" y="42.8"/>
			<point x="205.2" y="20.4"/>
			<point x="170.8" y="20" type="curve" smooth="yes"/>
		</contour>
	</outline>
</glyph>
<glyph name="ha-tamil" format="2">
	<advance width="780"/>
	<unicode hex="0BB9"/>
	<anchor x="631" y="601" name="imatra"/>
	<anchor x="400" y="600" name="top"/>
	<outline>
		<contour>
			<point x="370" y="-320.8" type="curve" smooth="yes"/>
			<point x="381.2" y="-320.8"/>
			<point x="390" y="-312"/>
			<point x="390" y="-300.8" type="curve" smooth="yes"/>
			<point x="390" y="-214" type="line" smooth="yes"/>
			<point x="390" y="-125.2"/>
			<point x="443.2" y="-72"/>
			<point x="523.2" y="-72" type="curve" smooth="yes"/>
			<point x="572" y="-72" type="line" smooth="yes"/>
			<point x="712.8" y="-72"/>
			<point x="750" y="-8.4"/>
			<point x="750" y="225.2" type="curve" smooth="yes"/>
			<point x="750" y="369.2" type="line" smooth="yes"/>
			<point x="750" y="507.2"/>
			<point x="744.4" y="621.2"/>
			<point x="631.2" y="621.2" type="curve" smooth="yes"/>
			<point x="591.6" y="621.2"/>
			<point x="565.6" y="606"/>
			<point x="550" y="584.4" type="curve"/>
			<point x="532.8" y="606.4"/>
			<point x="506" y="620"/>
			<point x="475.2" y="620" type="curve" smooth="yes"/>
			<point x="421.2" y="620"/>
			<point x="380" y="578.8"/>
			<point x="380" y="524" type="curve" smooth="yes"/>
			<point x="380" y="20" type="line"/>
			<point x="110" y="20" type="line" smooth="yes"/>
			<point x="89.2" y="20"/>
			<point x="79.2" y="29.6"/>
			<point x="79.2" y="50" type="curve" smooth="yes"/>
			<point x="79.2" y="70.4"/>
			<point x="89.2" y="80"/>
			<point x="110" y="80" type="curve" smooth="yes"/>
			<point x="198" y="80" type="line" smooth="yes"/>
			<point x="280" y="80"/>
			<point x="340" y="140"/>
			<point x="340" y="222" type="curve" smooth="yes"/>
			<point x="340" y="478" type="line" smooth="yes"/>
			<point x="340" y="560"/>
			<point x="280" y="620"/>
			<point x="198" y="620" type="curve" smooth="yes"/>
			<point x="172" y="620" type="line" smooth="yes"/>
			<point x="90" y="620"/>
			<point x="30" y="560"/>
			<point x="30" y="478" type="curve" smooth="yes"/>
			<point x="30" y="278" type="line" smooth="yes"/>
			<point x="30" y="220.8"/>
			<point x="70.4" y="176"/>
			<point x="125.2" y="176" type="curve" smooth="yes"/>
			<point x="180.8" y="176"/>
			<point x="220" y="220.8"/>
			<point x="220" y="278" type="curve" smooth="yes"/>
			<point x="220" y="314" type="line" smooth="yes"/>
			<point x="220" y="371.2"/>
			<point x="179.6" y="416"/>
			<point x="125.2" y="416" type="curve" smooth="yes"/>
			<point x="104" y="416"/>
			<point x="85.2" y="409.6"/>
			<point x="70" y="398" type="curve"/>
			<point x="70" y="478" type="line" smooth="yes"/>
			<point x="70" y="540.8"/>
			<point x="109.2" y="580"/>
			<point x="172" y="580" type="curve" smooth="yes"/>
			<point x="198" y="580" type="line" smooth="yes"/>
			<point x="260.8" y="580"/>
			<point x="300" y="540.8"/>
			<point x="300" y="478" type="curve" smooth="yes"/>
			<point x="300" y="222" type="line" smooth="yes"/>
			<point x="300" y="159.2"/>
			<point x="260.8" y="120"/>
			<point x="198" y="120" type="curve" smooth="yes"/>
			<point x="110" y="120" type="line" smooth="yes"/>
			<point x="70.4" y="120"/>
			<point x="39.2" y="90"/>
			<point x="39.2" y="50" type="curve" smooth="yes"/>
			<point x="39.2" y="10"/>
			<point x="70.4" y="-20"/>
			<point x="110" y="-20" type="curve" smooth="yes"/>
			<point x="400" y="-20" type="line" smooth="yes"/>
			<point x="413.2" y="-20"/>
			<point x="420" y="-12.8"/>
			<point x="420" y="0" type="curve" smooth="yes"/>
			<point x="420" y="524" type="line" smooth="yes"/>
			<point x="420" y="559.6"/>
			<point x="440.4" y="580"/>
			<point x="475.2" y="580" type="curve" smooth="yes"/>
			<point x="509.6" y="580"/>
			<point x="530" y="559.6"/>
			<point x="530" y="524" type="curve" smooth="yes"/>
			<point x="530" y="120" type="line" smooth="yes"/>
			<point x="530" y="108.8"/>
			<point x="538.8" y="100"/>
			<point x="550" y="100" type="curve" smooth="yes"/>
			<point x="561.2" y="100"/>
			<point x="570" y="108.8"/>
			<point x="570" y="120" type="curve" smooth="yes"/>
			<point x="570" y="516" type="line" smooth="yes"/>
			<point x="570" y="556"/>
			<point x="583.2" y="581.2"/>
			<point x="631.2" y="581.2" type="curve" smooth="yes"/>
			<point x="706" y="581.2"/>
			<point x="710" y="505.6"/>
			<point x="710" y="369.2" type="curve" smooth="yes"/>
			<point x="710" y="225.2" type="line" smooth="yes"/>
			<point x="710" y="6.4"/>
			<point x="687.6" y="-32"/>
			<point x="572" y="-32" type="curve" smooth="yes"/>
			<point x="523.2" y="-32" type="line" smooth="yes"/>
			<point x="424" y="-32"/>
			<point x="350" y="-106"/>
			<point x="350" y="-214" type="curve" smooth="yes"/>
			<point x="350" y="-300.8" type="line" smooth="yes"/>
			<point x="350" y="-312"/>
			<point x="358.8" y="-320.8"/>
		</contour>
		<contour>
			<point x="125.2" y="216" type="curve" smooth="yes"/>
			<point x="90.8" y="216"/>
			<point x="70" y="238.8"/>
			<point x="70" y="278" type="curve" smooth="yes"/>
			<point x="70" y="314" type="line" smooth="yes"/>
			<point x="70" y="353.2"/>
			<point x="90.8" y="376"/>
			<point x="125.2" y="376" type="curve" smooth="yes"/>
			<point x="159.2" y="376"/>
			<point x="180" y="353.2"/>
			<point x="180" y="314" type="curve" smooth="yes"/>
			<point x="180" y="278" type="line" smooth="yes"/>
			<point x="180" y="238.4"/>
			<point x="160" y="216"/>
		</contour>
	</outline>
</glyph>
<glyph name="aaMatra-tamil" format="2">
	<advance width="390"/>
	<unicode hex="0BBE"/>
	<outline>
		<contour>
			<point x="50" y="-20" type="curve" smooth="yes"/>
			<point x="61.2" y="-20"/>
			<point x="70" y="-11.2"/>
			<point x="70" y="0" type="curve" smooth="yes"/>
			<point x="70" y="580" type="line"/>
			<point x="250" y="580" type="line"/>
			<point x="250" y="0" type="line" smooth="yes"/>
			<point x="250" y="-11.2"/>
			<point x="258.8" y="-20"/>
			<point x="270" y="-20" type="curve" smooth="yes"/>
			<point x="281.2" y="-20"/>
			<point x="290" y="-11.2"/>
			<point x="290" y="0" type="curve" smooth="yes"/>
			<point x="290" y="580" type="line"/>
			<point x="390" y="580" type="line" smooth="yes"/>
			<point x="401.2" y="580"/>
			<point x="410" y="588.8"/>
			<point x="410" y="600" type="curve" smooth="yes"/>
			<point x="410" y="611.2"/>
			<point x="401.2" y="620"/>
			<point x="390" y="620" type="curve" smooth="yes"/>
			<point x="50" y="620" type="line" smooth="yes"/>
			<point x="37.2" y="620"/>
			<point x="30" y="613.2"/>
			<point x="30" y="600" type="curve" smooth="yes"/>
			<point x="30" y="0" type="line" smooth="yes"/>
			<point x="30" y="-11.2"/>
			<point x="38.8" y="-20"/>
		</contour>
	</outline>
</glyph>
<glyph name="iMatra-tamil" format="2">
	<advance width="75"/>
	<unicode hex="0BBF"/>
	<anchor x="-150" y="600" name="_imatra"/>
	<outline>
		<contour>
			<point x="50" y="-20" type="curve" smooth="yes"/>
			<point x="61.2" y="-20"/>
			<point x="70" y="-11.2"/>
			<point x="70" y="0" type="curve" smooth="yes"/>
			<point x="70" y="708" type="line" smooth="yes"/>
			<point x="70" y="772"/>
			<point x="22" y="820"/>
			<point x="-42" y="820" type="curve" smooth="yes"/>
			<point x="-58" y="820" type="line" smooth="yes"/>
			<point x="-122" y="820"/>
			<point x="-170" y="772"/>
			<point x="-170" y="708" type="curve" smooth="yes"/>
			<point x="-170" y="600" type="line" smooth="yes"/>
			<point x="-170" y="588.8"/>
			<point x="-161.2" y="580"/>
			<point x="-150" y="580" type="curve" smooth="yes"/>
			<point x="-138.8" y="580"/>
			<point x="-130" y="588.8"/>
			<point x="-130" y="600" type="curve" smooth="yes"/>
			<point x="-130" y="708" type="line" smooth="yes"/>
			<point x="-130" y="752.8"/>
			<point x="-102.8" y="780"/>
			<point x="-58" y="780" type="curve" smooth="yes"/>
			<point x="-42" y="780" type="line" smooth="yes"/>
			<point x="2.8" y="780"/>
			<point x="30" y="752.8"/>
			<point x="30" y="708" type="curve" smooth="yes"/>
			<point x="30" y="0" type="line" smooth="yes"/>
			<point x="30" y="-11.2"/>
			<point x="38.8" y="-20"/>
		</contour>
	</outline>
</glyph>
<glyph name="iiMatra-tamil" format="2">
	<advance width="200"/>
	<unicode hex="0BC0"/>
	<anchor x="0" y="592" name="_imatra"/>
	<anchor x="92" y="800" name="top"/>
	<outline>
		<contour>
			<point x="0" y="572" type="curve" smooth="yes"/>
			<point x="11.2" y="572"/>
			<point x="20" y="580.8"/>
			<point x="20" y="592" type="curve" smooth="yes"/>
			<point x="20" y="708" type="line" smooth="yes"/>
			<point x="20" y="752.8"/>
			<point x="47.2" y="780"/>
			<point x="92" y="780" type="curve" smooth="yes"/>
			<point x="108" y="780" type="line" smooth="yes"/>
			<point x="117.6" y="780"/>
			<point x="126.8" y="778.8"/>
			<point x="134.8" y="776.4" type="curve"/>
			<point x="104" y="768.8"/>
			<point x="80" y="740.8"/>
			<point x="80" y="708" type="curve" smooth="yes"/>
			<point x="80" y="670"/>
			<point x="112" y="638"/>
			<point x="150" y="638" type="curve" smooth="yes"/>
			<point x="188" y="638"/>
			<point x="220" y="670"/>
			<point x="220" y="708" type="curve" smooth="yes"/>
			<point x="220" y="772"/>
			<point x="172" y="820"/>
			<point x="108" y="820" type="curve" smooth="yes"/>
			<point x="92" y="820" type="line" smooth="yes"/>
			<point x="28" y="820"/>
			<point x="-20" y="772"/>
			<point x="-20" y="708" type="curve" smooth="yes"/>
			<point x="-20" y="592" type="line" smooth="yes"/>
			<point x="-20" y="580.8"/>
			<point x="-11.2" y="572"/>
		</contour>
		<contour>
			<point x="150" y="678" type="curve" smooth="yes"/>
			<point x="131.2" y="678"/>
			<point x="120" y="689.2"/>
			<point x="120" y="708" type="curve" smooth="yes"/>
			<point x="120" y="726.8"/>
			<point x="131.2" y="738"/>
			<point x="150" y="738" type="curve" smooth="yes"/>
			<point x="168.8" y="738"/>
			<point x="180" y="726.8"/>
			<point x="180" y="708" type="curve" smooth="yes"/>
			<point x="180" y="689.2"/>
			<point x="168.8" y="678"/>
		</contour>
	</outline>
</glyph>
<glyph name="eMatra-tamil" format="2">
	<advance width="420"/>
	<unicode hex="0BC6"/>
	<outline>
		<contour>
			<point x="395.2" y="-20" type="curve" smooth="yes"/>
			<point x="406" y="-20"/>
			<point x="415.2" y="-11.2"/>
			<point x="415.2" y="0" type="curve" smooth="yes"/>
			<point x="415.2" y="447.2" type="line" smooth="yes"/>
			<point x="415.2" y="546"/>
			<point x="340.8" y="620"/>
			<point x="242" y="620" type="curve" smooth="yes"/>
			<point x="229.2" y="620" type="line" smooth="yes"/>
			<point x="100" y="620"/>
			<point x="5.2" y="524.8"/>
			<point x="5.2" y="396" type="curve" smooth="yes"/>
			<point x="5.2" y="148" type="line" smooth="yes"/>
			<point x="5.2" y="81.6"/>
			<point x="51.6" y="30"/>
			<point x="115.2" y="30" type="curve" smooth="yes"/>
			<point x="179.6" y="30"/>
			<point x="225.2" y="82"/>
			<point x="225.2" y="148" type="curve" smooth="yes"/>
			<point x="225.2" y="192" type="line" smooth="yes"/>
			<point x="225.2" y="258.4"/>
			<point x="178.4" y="310"/>
			<point x="115.2" y="310" type="curve" smooth="yes"/>
			<point x="87.6" y="310"/>
			<point x="63.6" y="300.4"/>
			<point x="45.2" y="284.4" type="curve"/>
			<point x="45.2" y="396" type="line" smooth="yes"/>
			<point x="45.2" y="505.6"/>
			<point x="119.2" y="580"/>
			<point x="229.2" y="580" type="curve" smooth="yes"/>
			<point x="242" y="580" type="line" smooth="yes"/>
			<point x="321.6" y="580"/>
			<point x="375.2" y="526.8"/>
			<point x="375.2" y="447.2" type="curve" smooth="yes"/>
			<point x="375.2" y="0" type="line" smooth="yes"/>
			<point x="375.2" y="-11.2"/>
			<point x="384" y="-20"/>
		</contour>
		<contour>
			<point x="115.2" y="70" type="curve" smooth="yes"/>
			<point x="72" y="70"/>
			<point x="45.2" y="99.6"/>
			<point x="45.2" y="148" type="curve" smooth="yes"/>
			<point x="45.2" y="192" type="line" smooth="yes"/>
			<point x="45.2" y="240.4"/>
			<point x="72" y="270"/>
			<point x="115.2" y="270" type="curve" smooth="yes"/>
			<point x="158" y="270"/>
			<point x="185.2" y="240.4"/>
			<point x="185.2" y="192" type="curve" smooth="yes"/>
			<point x="185.2" y="148" type="line" smooth="yes"/>
			<point x="185.2" y="99.6"/>
			<point x="158.8" y="70"/>
		</contour>
	</outline>
</glyph>
<glyph name="eeMatra-tamil" format="2">
	<advance width="352"/>
	<unicode hex="0BC7"/>
	<outline>
		<contour>
			<point x="172" y="-20" type="curve" smooth="yes"/>
			<point x="252" y="-20" type="line" smooth="yes"/>
			<point x="307.6" y="-20"/>
			<point x="347.2" y="24.8"/>
			<point x="347.2" y="82" type="curve" smooth="yes"/>
			<point x="347.2" y="118" type="line" smooth="yes"/>
			<point x="347.2" y="175.2"/>
			<point x="306.4" y="220"/>
			<point x="252" y="220" type="curve" smooth="yes"/>
			<point x="197.6" y="220"/>
			<point x="157.2" y="175.2"/>
			<point x="157.2" y="118" type="curve" smooth="yes"/>
			<point x="157.2" y="82" type="line" smooth="yes"/>
			<point x="157.2" y="58.4"/>
			<point x="164" y="37.2"/>
			<point x="175.6" y="20" type="curve"/>
			<point x="172" y="20" type="line" smooth="yes"/>
			<point x="110" y="20"/>
			<point x="70" y="59.2"/>
			<point x="70" y="122" type="curve" smooth="yes"/>
			<point x="70" y="478" type="line" smooth="yes"/>
			<point x="70" y="540.8"/>
			<point x="109.2" y="580"/>
			<point x="172" y="580" type="curve" smooth="yes"/>
			<point x="175.6" y="580" type="line"/>
			<point x="164" y="562.8"/>
			<point x="157.2" y="541.6"/>
			<point x="157.2" y="518" type="curve" smooth="yes"/>
			<point x="157.2" y="482" type="line" smooth="yes"/>
			<point x="157.2" y="424.8"/>
			<point x="197.6" y="380"/>
			<point x="252" y="380" type="curve" smooth="yes"/>
			<point x="307.6" y="380"/>
			<point x="347.2" y="424.8"/>
			<point x="347.2" y="482" type="curve" smooth="yes"/>
			<point x="347.2" y="518" type="line" smooth="yes"/>
			<point x="347.2" y="575.2"/>
			<point x="306.4" y="620"/>
			<point x="252" y="620" type="curve" smooth="yes"/>
			<point x="172" y="620" type="line" smooth="yes"/>
			<point x="90" y="620"/>
			<point x="30" y="560"/>
			<point x="30" y="478" type="curve" smooth="yes"/>
			<point x="30" y="122" type="line" smooth="yes"/>
			<point x="30" y="40"/>
			<point x="91.2" y="-20"/>
		</contour>
		<contour>
			<point x="252" y="20" type="curve" smooth="yes"/>
			<point x="218" y="20"/>
			<point x="197.2" y="42.8"/>
			<point x="197.2" y="82" type="curve" smooth="yes"/>
			<point x="197.2" y="118" type="line" smooth="yes"/>
			<point x="197.2" y="157.2"/>
			<point x="218" y="180"/>
			<point x="252" y="180" type="curve" smooth="yes"/>
			<point x="286" y="180"/>
			<point x="307.2" y="157.2"/>
			<point x="307.2" y="118" type="curve" smooth="yes"/>
			<point x="307.2" y="82" type="line" smooth="yes"/>
			<point x="307.2" y="42.4"/>
			<point x="286.8" y="20"/>
		</contour>
		<contour>
			<point x="252" y="420" type="curve" smooth="yes"/>
			<point x="218" y="420"/>
			<point x="197.2" y="442.8"/>
			<point x="197.2" y="482" type="curve" smooth="yes"/>
			<point x="197.2" y="518" type="line" smooth="yes"/>
			<point x="197.2" y="557.2"/>
			<point x="218" y="580"/>
			<point x="252" y="580" type="curve" smooth="yes"/>
			<point x="286" y="580"/>
			<point x="307.2" y="557.2"/>
			<point x="307.2" y="518" type="curve" smooth="yes"/>
			<point x="307.2" y="482" type="line" smooth="yes"/>
			<point x="307.2" y="442.4"/>
			<point x="286.8" y="420"/>
		</contour>
	</outline>
</glyph>
<glyph name="aiMatra-tamil" format="2">
	<advance width="687"/>
	<unicode hex="0BC8"/>
	<outline>
		<contour>
			<point x="170" y="-20" type="curve" smooth="yes"/>
			<point x="172" y="-20" type="line" smooth="yes"/>
			<point x="226.4" y="-18.8"/>
			<point x="265.2" y="25.6"/>
			<point x="265.2" y="82" type="curve" smooth="yes"/>
			<point x="265.2" y="118" type="line" smooth="yes"/>
			<point x="265.2" y="175.2"/>
			<point x="224.4" y="220"/>
			<point x="170" y="220" type="curve" smooth="yes"/>
			<point x="115.6" y="220"/>
			<point x="75.2" y="175.2"/>
			<point x="75.2" y="118" type="curve" smooth="yes"/>
			<point x="75.2" y="86.4" type="line"/>
			<point x="71.6" y="97.2"/>
			<point x="70" y="109.2"/>
			<point x="70" y="122" type="curve" smooth="yes"/>
			<point x="70" y="416" type="line" smooth="yes"/>
			<point x="70" y="513.6"/>
			<point x="136.4" y="580"/>
			<point x="234" y="580" type="curve" smooth="yes"/>
			<point x="305.6" y="580" type="line"/>
			<point x="290.8" y="561.6"/>
			<point x="282" y="537.6"/>
			<point x="282" y="511.2" type="curve" smooth="yes"/>
			<point x="282" y="89.2" type="line" smooth="yes"/>
			<point x="282" y="27.2"/>
			<point x="328" y="-20"/>
			<point x="389.2" y="-20" type="curve" smooth="yes"/>
			<point x="450" y="-20"/>
			<point x="497.2" y="27.2"/>
			<point x="497.2" y="89.2" type="curve" smooth="yes"/>
			<point x="497.2" y="511.2" type="line" smooth="yes"/>
			<point x="497.2" y="537.6"/>
			<point x="488.4" y="561.6"/>
			<point x="474" y="580" type="curve"/>
			<point x="515.2" y="580" type="line" smooth="yes"/>
			<point x="577.6" y="580"/>
			<point x="617.2" y="540.8"/>
			<point x="617.2" y="478" type="curve" smooth="yes"/>
			<point x="617.2" y="122" type="line" smooth="yes"/>
			<point x="617.2" y="59.2"/>
			<point x="577.6" y="20"/>
			<point x="515.2" y="20" type="curve" smooth="yes"/>
			<point x="503.2" y="20" type="line" smooth="yes"/>
			<point x="492" y="20"/>
			<point x="483.2" y="11.2"/>
			<point x="483.2" y="0" type="curve" smooth="yes"/>
			<point x="483.2" y="-11.2"/>
			<point x="492" y="-20"/>
			<point x="503.2" y="-20" type="curve" smooth="yes"/>
			<point x="515.2" y="-20" type="line" smooth="yes"/>
			<point x="596.8" y="-20"/>
			<point x="657.2" y="40"/>
			<point x="657.2" y="122" type="curve" smooth="yes"/>
			<point x="657.2" y="478" type="line" smooth="yes"/>
			<point x="657.2" y="560"/>
			<point x="596.8" y="620"/>
			<point x="515.2" y="620" type="curve" smooth="yes"/>
			<point x="234" y="620" type="line" smooth="yes"/>
			<point x="117.2" y="620"/>
			<point x="30" y="532.8"/>
			<point x="30" y="416" type="curve" smooth="yes"/>
			<point x="30" y="122" type="line" smooth="yes"/>
			<point x="30" y="43.2"/>
			<point x="86.8" y="-15.6"/>
			<point x="162.8" y="-19.6" type="curve" smooth="yes"/>
			<point x="165.2" y="-20"/>
			<point x="167.6" y="-20"/>
		</contour>
		<contour>
			<point x="164.8" y="20" type="line" smooth="yes"/>
			<point x="133.6" y="22.4"/>
			<point x="115.2" y="44.8"/>
			<point x="115.2" y="82" type="curve" smooth="yes"/>
			<point x="115.2" y="118" type="line" smooth="yes"/>
			<point x="115.2" y="157.2"/>
			<point x="136" y="180"/>
			<point x="170" y="180" type="curve" smooth="yes"/>
			<point x="204" y="180"/>
			<point x="225.2" y="157.2"/>
			<point x="225.2" y="118" type="curve" smooth="yes"/>
			<point x="225.2" y="82" type="line" smooth="yes"/>
			<point x="225.2" y="42.8"/>
			<point x="205.2" y="20.4"/>
			<point x="170.8" y="20" type="curve" smooth="yes"/>
		</contour>
		<contour>
			<point x="389.2" y="20" type="curve" smooth="yes"/>
			<point x="347.6" y="20"/>
			<point x="322" y="46"/>
			<point x="322" y="89.2" type="curve" smooth="yes"/>
			<point x="322" y="511.2" type="line" smooth="yes"/>
			<point x="322" y="553.6"/>
			<point x="348.4" y="580"/>
			<point x="391.2" y="580" type="curve" smooth="yes"/>
			<point x="431.6" y="580"/>
			<point x="457.2" y="554"/>
			<point x="457.2" y="511.2" type="curve" smooth="yes"/>
			<point x="457.2" y="89.2" type="line" smooth="yes"/>
			<point x="457.2" y="46.4"/>
			<point x="430.8" y="20"/>
		</contour>
	</outline>
</glyph>
<glyph name="pulli-tamil" format="2">
	<advance width="120"/>
	<unicode hex="0BCD"/>
	<anchor x="60" y="600" name="_top"/>
	<outline>
		<contour>
			<point x="60" y="660" type="curve" smooth="yes"/>
			<point x="102.8" y="660"/>
			<point x="140" y="697.2"/>
			<point x="140" y="740" type="curve" smooth="yes"/>
			<point x="140" y="782.8"/>
			<point x="102.8" y="820"/>
			<point x="60" y="820" type="curve" smooth="yes"/>
			<point x="17.2" y="820"/>
			<point x="-20" y="782.8"/>
			<point x="-20" y="740" type="curve" smooth="yes"/>
			<point x="-20" y="697.2"/>
			<point x="17.2" y="660"/>
		</contour>
		<contour>
			<point x="60" y="700" type="curve" smooth="yes"/>
			<point x="36.4" y="700"/>
			<point x="20" y="716.4"/>
			<point x="20" y="740" type="curve" smooth="yes"/>
			<point x="20" y="763.6"/>
			<point x="36.4" y="780"/>
			<point x="60" y="780" type="curve" smooth="yes"/>
			<point x="83.6" y="780"/>
			<point x="100" y="763.6"/>
			<point x="100" y="740" type="curve" smooth="yes"/>
			<point x="100" y="716.4"/>
			<point x="83.6" y="700"/>
		</contour>
	</outline>
</glyph>
<glyph name="auLength-tamil" format="2">
	<advance width="597"/>
	<unicode hex="0BD7"/>
	<anchor x="472" y="600" name="imatra"/>
	<anchor x="289" y="600" name="top"/>
	<outline>
		<contour>
			<point x="145.2" y="-20" type="curve" smooth="yes"/>
			<point x="147.2" y="-20" type="line" smooth="yes"/>
			<point x="201.6" y="-18.8"/>
			<point x="240" y="25.6"/>
			<point x="240" y="82" type="curve" smooth="yes"/>
			<point x="240" y="118" type="line" smooth="yes"/>
			<point x="240" y="175.2"/>
			<point x="199.6" y="220"/>
			<point x="145.2" y="220" type="curve" smooth="yes"/>
			<point x="90.4" y="220"/>
			<point x="50" y="175.2"/>
			<point x="50" y="118" type="curve" smooth="yes"/>
			<point x="50" y="86.4" type="line"/>
			<point x="46.8" y="97.2"/>
			<point x="45.2" y="109.2"/>
			<point x="45.2" y="122" type="curve" smooth="yes"/>
			<point x="45.2" y="478" type="line" smooth="yes"/>
			<point x="45.2" y="540.8"/>
			<point x="84.4" y="580"/>
			<point x="147.2" y="580" type="curve" smooth="yes"/>
			<point x="171.2" y="580" type="line" smooth="yes"/>
			<point x="231.2" y="580"/>
			<point x="272" y="543.2"/>
			<point x="272" y="473.2" type="curve" smooth="yes"/>
			<point x="272" y="200" type="line" smooth="yes"/>
			<point x="272" y="188.8"/>
			<point x="280.8" y="180"/>
			<point x="292" y="180" type="curve" smooth="yes"/>
			<point x="303.2" y="180"/>
			<point x="312" y="188.8"/>
			<point x="312" y="200" type="curve" smooth="yes"/>
			<point x="312" y="580" type="line"/>
			<point x="452" y="580" type="line"/>
			<point x="452" y="0" type="line" smooth="yes"/>
			<point x="452" y="-11.2"/>
			<point x="460.8" y="-20"/>
			<point x="472" y="-20" type="curve" smooth="yes"/>
			<point x="483.2" y="-20"/>
			<point x="492" y="-11.2"/>
			<point x="492" y="0" type="curve" smooth="yes"/>
			<point x="492" y="580" type="line"/>
			<point x="572" y="580" type="line" smooth="yes"/>
			<point x="583.2" y="580"/>
			<point x="592" y="588.8"/>
			<point x="592" y="600" type="curve" smooth="yes"/>
			<point x="592" y="611.2"/>
			<point x="583.2" y="620"/>
			<point x="572" y="620" type="curve" smooth="yes"/>
			<point x="292" y="620" type="line" smooth="yes"/>
			<point x="279.2" y="620"/>
			<point x="272" y="613.2"/>
			<point x="272" y="600" type="curve" smooth="yes"/>
			<point x="272" y="579.2" type="line"/>
			<point x="246.4" y="605.6"/>
			<point x="210.8" y="620"/>
			<point x="171.2" y="620" type="curve" smooth="yes"/>
			<point x="147.2" y="620" type="line" smooth="yes"/>
			<point x="65.2" y="620"/>
			<point x="5.2" y="560"/>
			<point x="5.2" y="478" type="curve" smooth="yes"/>
			<point x="5.2" y="122" type="line" smooth="yes"/>
			<point x="5.2" y="43.2"/>
			<point x="61.6" y="-15.6"/>
			<point x="138" y="-19.6" type="curve" smooth="yes"/>
			<point x="140.4" y="-20"/>
			<point x="142.8" y="-20"/>
		</contour>
		<contour>
			<point x="139.6" y="20" type="line" smooth="yes"/>
			<point x="108.8" y="22.4"/>
			<point x="90" y="44.8"/>
			<point x="90" y="82" type="curve" smooth="yes"/>
			<point x="90" y="118" type="line" smooth="yes"/>
			<point x="90" y="157.2"/>
			<point x="110.8" y="180"/>
			<point x="145.2" y="180" type="curve" smooth="yes"/>
			<point x="179.2" y="180"/>
			<point x="200" y="157.2"/>
			<point x="200" y="118" type="curve" smooth="yes"/>
			<point x="200" y="82" type="line" smooth="yes"/>
			<point x="200" y="42.8"/>
			<point x="180.4" y="20.4"/>
			<point x="146" y="20" type="curve" smooth="yes"/>
		</contour>
	</outline>
</glyph>
<glyph name="zero-tamil" format="2">
	<advance width="430"/>
	<unicode hex="0BE6"/>
	<outline>
		<contour>
			<point x="203.2" y="-20" type="curve" smooth="yes"/>
			<point x="227.2" y="-20" type="line" smooth="yes"/>
			<point x="326" y="-20"/>
			<point x="400" y="54"/>
			<point x="400" y="153.2" type="curve" smooth="yes"/>
			<point x="400" y="447.2" type="line" smooth="yes"/>
			<point x="400" y="546"/>
			<point x="326" y="620"/>
			<point x="227.2" y="620" type="curve" smooth="yes"/>
			<point x="203.2" y="620" type="line" smooth="yes"/>
			<point x="104" y="620"/>
			<point x="30" y="546"/>
			<point x="30" y="447.2" type="curve" smooth="yes"/>
			<point x="30" y="153.2" type="line" smooth="yes"/>
			<point x="30" y="54"/>
			<point x="104" y="-20"/>
		</contour>
		<contour>
			<point x="203.2" y="20" type="line" smooth="yes"/>
			<point x="123.2" y="20"/>
			<point x="70" y="73.2"/>
			<point x="70" y="153.2" type="curve" smooth="yes"/>
			<point x="70" y="447.2" type="line" smooth="yes"/>
			<point x="70" y="526.8"/>
			<point x="123.2" y="580"/>
			<point x="203.2" y="580" type="curve" smooth="yes"/>
			<point x="227.2" y="580" type="line" smooth="yes"/>
			<point x="306.8" y="580"/>
			<point x="360" y="526.8"/>
			<point x="360" y="447.2" type="curve" smooth="yes"/>
			<point x="360" y="153.2" type="line" smooth="yes"/>
			<point x="360" y="73.2"/>
			<point x="306.8" y="20"/>
			<point x="227.2" y="20" type="curve" smooth="yes"/>
		</contour>
	</outline>
</glyph>
<glyph name="three-tamil" format="2">
	<advance width="560"/>
	<unicode hex="0BE9"/>
	<outline>
		<contour>
			<point x="252" y="-22" type="line"/>
			<point x="258.8" y="-22" type="line"/>
			<point x="510" y="-20" type="line" smooth="yes"/>
			<point x="521.2" y="-20"/>
			<point x="530" y="-10.8"/>
			<point x="530" y="0" type="curve" smooth="yes"/>
			<point x="530" y="11.2"/>
			<point x="521.2" y="20"/>
			<point x="510" y="20" type="curve" smooth="yes"/>
			<point x="388.8" y="19.2" type="line"/>
			<point x="419.6" y="49.2"/>
			<point x="430" y="95.6"/>
			<point x="430" y="155.2" type="curve" smooth="yes"/>
			<point x="430" y="292"/>
			<point x="430" y="365.2"/>
			<point x="311.2" y="365.2" type="curve" smooth="yes"/>
			<point x="285.2" y="365.2"/>
			<point x="265.2" y="358.8"/>
			<point x="250" y="348" type="curve"/>
			<point x="250" y="580" type="line"/>
			<point x="360" y="580" type="line" smooth="yes"/>
			<point x="371.2" y="580"/>
			<point x="380" y="588.8"/>
			<point x="380" y="600" type="curve" smooth="yes"/>
			<point x="380" y="611.2"/>
			<point x="371.2" y="620"/>
			<point x="360" y="620" type="curve" smooth="yes"/>
			<point x="50" y="620" type="line" smooth="yes"/>
			<point x="37.2" y="620"/>
			<point x="30" y="613.2"/>
			<point x="30" y="600" type="curve" smooth="yes"/>
			<point x="30" y="0" type="line" smooth="yes"/>
			<point x="30" y="-11.2"/>
			<point x="38.8" y="-20"/>
			<point x="50" y="-20" type="curve" smooth="yes"/>
			<point x="61.2" y="-20"/>
			<point x="70" y="-11.2"/>
			<point x="70" y="0" type="curve" smooth="yes"/>
			<point x="70" y="580" type="line"/>
			<point x="210" y="580" type="line"/>
			<point x="210" y="150" type="line" smooth="yes"/>
			<point x="210" y="138.8"/>
			<point x="218.8" y="130"/>
			<point x="230" y="130" type="curve" smooth="yes"/>
			<point x="241.2" y="130"/>
			<point x="250" y="138.8"/>
			<point x="250" y="150" type="curve" smooth="yes"/>
			<point x="250" y="260" type="line" smooth="yes"/>
			<point x="250" y="300"/>
			<point x="263.2" y="325.2"/>
			<point x="311.2" y="325.2" type="curve" smooth="yes"/>
			<point x="390.4" y="325.2"/>
			<point x="390" y="292.4"/>
			<point x="390" y="155.2" type="curve" smooth="yes"/>
			<point x="390" y="58.8"/>
			<point x="368.4" y="19.6"/>
			<point x="260" y="18" type="curve" smooth="yes"/>
			<point x="255.2" y="18"/>
			<point x="252" y="11.2"/>
			<point x="252" y="-2" type="curve" smooth="yes"/>
		</contour>
	</outline>
</glyph>
<glyph name="five-tamil" format="2">
	<advance width="560"/>
	<unicode hex="0BEB"/>
	<outline>
		<contour>
			<point x="203.2" y="-160" type="curve" smooth="yes"/>
			<point x="352" y="-160" type="line" smooth="yes"/>
			<point x="493.2" y="-160"/>
			<point x="530" y="-95.2"/>
			<point x="530" y="97.2" type="curve" smooth="yes"/>
			<point x="530" y="264"/>
			<point x="530" y="337.2"/>
			<point x="411.2" y="337.2" type="curve" smooth="yes"/>
			<point x="385.2" y="337.2"/>
			<point x="365.2" y="330.8"/>
			<point x="350" y="320" type="curve"/>
			<point x="350" y="580" type="line"/>
			<point x="420" y="580" type="line" smooth="yes"/>
			<point x="431.2" y="580"/>
			<point x="440" y="588.8"/>
			<point x="440" y="600" type="curve" smooth="yes"/>
			<point x="440" y="611.2"/>
			<point x="431.2" y="620"/>
			<point x="420" y="620" type="curve" smooth="yes"/>
			<point x="150" y="620" type="line" smooth="yes"/>
			<point x="137.2" y="620"/>
			<point x="130" y="612.8"/>
			<point x="130" y="600" type="curve" smooth="yes"/>
			<point x="130" y="100" type="line" smooth="yes"/>
			<point x="130" y="88.8"/>
			<point x="138.8" y="80"/>
			<point x="150" y="80" type="curve" smooth="yes"/>
			<point x="161.2" y="80"/>
			<point x="170" y="88.8"/>
			<point x="170" y="100" type="curve" smooth="yes"/>
			<point x="170" y="580" type="line"/>
			<point x="310" y="580" type="line"/>
			<point x="310" y="160" type="line" smooth="yes"/>
			<point x="310" y="148.8"/>
			<point x="318.8" y="140"/>
			<point x="330" y="140" type="curve" smooth="yes"/>
			<point x="341.2" y="140"/>
			<point x="350" y="148.8"/>
			<point x="350" y="160" type="curve" smooth="yes"/>
			<point x="350" y="232" type="line" smooth="yes"/>
			<point x="350" y="272"/>
			<point x="363.2" y="297.2"/>
			<point x="411.2" y="297.2" type="curve" smooth="yes"/>
			<point x="490" y="297.2"/>
			<point x="490" y="264"/>
			<point x="490" y="97.2" type="curve" smooth="yes"/>
			<point x="490" y="-81.6"/>
			<point x="467.6" y="-120"/>
			<point x="352" y="-120" type="curve" smooth="yes"/>
			<point x="203.2" y="-120" type="line" smooth="yes"/>
			<point x="123.2" y="-120"/>
			<point x="70" y="-66.8"/>
			<point x="70" y="13.2" type="curve" smooth="yes"/>
			<point x="70" y="627.2" type="line" smooth="yes"/>
			<point x="70" y="706.8"/>
			<point x="123.2" y="760"/>
			<point x="203.2" y="760" type="curve" smooth="yes"/>
			<point x="357.2" y="760" type="line" smooth="yes"/>
			<point x="436.8" y="760"/>
			<point x="490" y="706.8"/>
			<point x="490" y="627.2" type="curve" smooth="yes"/>
			<point x="490" y="550" type="line" smooth="yes"/>
			<point x="490" y="538.8"/>
			<point x="498.8" y="530"/>
			<point x="510" y="530" type="curve" smooth="yes"/>
			<point x="521.2" y="530"/>
			<point x="530" y="538.8"/>
			<point x="530" y="550" type="curve" smooth="yes"/>
			<point x="530" y="627.2" type="line" smooth="yes"/>
			<point x="530" y="726"/>
			<point x="456" y="800"/>
			<point x="357.2" y="800" type="curve" smooth="yes"/>
			<point x="203.2" y="800" type="line" smooth="yes"/>
			<point x="104" y="800"/>
			<point x="30" y="726"/>
			<point x="30" y="627.2" type="curve" smooth="yes"/>
			<point x="30" y="13.2" type="line" smooth="yes"/>
			<point x="30" y="-86"/>
			<point x="104" y="-160"/>
		</contour>
	</outline>
</glyph>
<glyph name="six-tamil" format="2">
	<advance width="670"/>
	<unicode hex="0BEC"/>
	<outline>
		<contour>
			<point x="150" y="-20" type="curve" smooth="yes"/>
			<point x="219.2" y="-20"/>
			<point x="270" y="32.4"/>
			<point x="270" y="102" type="curve" smooth="yes"/>
			<point x="270" y="330" type="line"/>
			<point x="313.6" y="329.2"/>
			<point x="340" y="302"/>
			<point x="340" y="258" type="curve" smooth="yes"/>
			<point x="340" y="0" type="line" smooth="yes"/>
			<point x="340" y="-11.2"/>
			<point x="348.8" y="-20"/>
			<point x="360" y="-20" type="curve" smooth="yes"/>
			<point x="371.2" y="-20"/>
			<point x="380" y="-11.2"/>
			<point x="380" y="0" type="curve" smooth="yes"/>
			<point x="380" y="330" type="line"/>
			<point x="520" y="330" type="line"/>
			<point x="520" y="0" type="line" smooth="yes"/>
			<point x="520" y="-11.2"/>
			<point x="528.8" y="-20"/>
			<point x="540" y="-20" type="curve" smooth="yes"/>
			<point x="551.2" y="-20"/>
			<point x="560" y="-11.2"/>
			<point x="560" y="0" type="curve" smooth="yes"/>
			<point x="560" y="330" type="line"/>
			<point x="620" y="330" type="line" smooth="yes"/>
			<point x="631.2" y="330"/>
			<point x="640" y="338.8"/>
			<point x="640" y="350" type="curve" smooth="yes"/>
			<point x="640" y="361.2"/>
			<point x="631.2" y="370"/>
			<point x="620" y="370" type="curve" smooth="yes"/>
			<point x="360" y="370" type="line" smooth="yes"/>
			<point x="347.2" y="370"/>
			<point x="340" y="363.2"/>
			<point x="340" y="350" type="curve" smooth="yes"/>
			<point x="340" y="345.2" type="line"/>
			<point x="321.2" y="360.4"/>
			<point x="297.2" y="369.6"/>
			<point x="270" y="370" type="curve"/>
			<point x="270" y="580" type="line"/>
			<point x="360" y="580" type="line" smooth="yes"/>
			<point x="371.2" y="580"/>
			<point x="380" y="588.8"/>
			<point x="380" y="600" type="curve" smooth="yes"/>
			<point x="380" y="611.2"/>
			<point x="371.2" y="620"/>
			<point x="360" y="620" type="curve" smooth="yes"/>
			<point x="130" y="620" type="line" smooth="yes"/>
			<point x="117.2" y="620"/>
			<point x="110" y="612.8"/>
			<point x="110" y="600" type="curve" smooth="yes"/>
			<point x="110" y="364.8" type="line"/>
			<point x="64.8" y="350.4"/>
			<point x="30" y="305.2"/>
			<point x="30" y="248" type="curve" smooth="yes"/>
			<point x="30" y="102" type="line" smooth="yes"/>
			<point x="30" y="32.4"/>
			<point x="80.8" y="-20"/>
		</contour>
		<contour>
			<point x="150" y="20" type="curve" smooth="yes"/>
			<point x="100.4" y="20"/>
			<point x="70" y="51.2"/>
			<point x="70" y="102" type="curve" smooth="yes"/>
			<point x="70" y="248" type="line" smooth="yes"/>
			<point x="70" y="298.8"/>
			<point x="101.2" y="330"/>
			<point x="142" y="330" type="curve" smooth="yes"/>
			<point x="230" y="330" type="line"/>
			<point x="230" y="102" type="line" smooth="yes"/>
			<point x="230" y="51.2"/>
			<point x="199.6" y="20"/>
		</contour>
		<contour>
			<point x="150" y="370" type="line"/>
			<point x="150" y="580" type="line"/>
			<point x="230" y="580" type="line"/>
			<point x="230" y="370" type="line"/>
		</contour>
	</outline>
</glyph>
<glyph name="seven-tamil" format="2">
	<advance width="540"/>
	<unicode hex="0BED"/>
	<outline>
		<contour>
			<point x="370" y="-20" type="curve" smooth="yes"/>
			<point x="381.2" y="-20"/>
			<point x="390" y="-11.2"/>
			<point x="390" y="0" type="curve" smooth="yes"/>
			<point x="390" y="580" type="line"/>
			<point x="490" y="580" type="line" smooth="yes"/>
			<point x="501.2" y="580"/>
			<point x="510" y="588.8"/>
			<point x="510" y="600" type="curve" smooth="yes"/>
			<point x="510" y="611.2"/>
			<point x="501.2" y="620"/>
			<point x="490" y="620" type="curve" smooth="yes"/>
			<point x="254" y="620" type="line" smooth="yes"/>
			<point x="125.2" y="620"/>
			<point x="30" y="524.8"/>
			<point x="30" y="396" type="curve" smooth="yes"/>
			<point x="30" y="148" type="line" smooth="yes"/>
			<point x="30" y="81.6"/>
			<point x="76.4" y="30"/>
			<point x="140" y="30" type="curve" smooth="yes"/>
			<point x="204.8" y="30"/>
			<point x="250" y="82"/>
			<point x="250" y="148" type="curve" smooth="yes"/>
			<point x="250" y="192" type="line" smooth="yes"/>
			<point x="250" y="258.4"/>
			<point x="203.6" y="310"/>
			<point x="140" y="310" type="curve" smooth="yes"/>
			<point x="112.8" y="310"/>
			<point x="88.8" y="300.4"/>
			<point x="70" y="284.4" type="curve"/>
			<point x="70" y="396" type="line" smooth="yes"/>
			<point x="70" y="505.6"/>
			<point x="144.4" y="580"/>
			<point x="254" y="580" type="curve" smooth="yes"/>
			<point x="350" y="580" type="line"/>
			<point x="350" y="0" type="line" smooth="yes"/>
			<point x="350" y="-11.2"/>
			<point x="358.8" y="-20"/>
		</contour>
		<contour>
			<point x="140" y="70" type="curve" smooth="yes"/>
			<point x="96.8" y="70"/>
			<point x="70" y="99.6"/>
			<point x="70" y="148" type="curve" smooth="yes"/>
			<point x="70" y="192" type="line" smooth="yes"/>
			<point x="70" y="240.4"/>
			<point x="96.8" y="270"/>
			<point x="140" y="270" type="curve" smooth="yes"/>
			<point x="183.2" y="270"/>
			<point x="210" y="240.4"/>
			<point x="210" y="192" type="curve" smooth="yes"/>
			<point x="210" y="148" type="line" smooth="yes"/>
			<point x="210" y="99.6"/>
			<point x="184" y="70"/>
		</contour>
	</outline>
</glyph>
<glyph name="eight-tamil" format="2">
	<advance width="490"/>
	<unicode hex="0BEE"/>
	<outline>
		<contour>
			<point x="172" y="-20" type="curve" smooth="yes"/>
			<point x="238" y="-20" type="line" smooth="yes"/>
			<point x="320" y="-20"/>
			<point x="380" y="40"/>
			<point x="380" y="122" type="curve" smooth="yes"/>
			<point x="380" y="230" type="line"/>
			<point x="420" y="230" type="line"/>
			<point x="420" y="0" type="line" smooth="yes"/>
			<point x="420" y="-11.2"/>
			<point x="428.8" y="-20"/>
			<point x="440" y="-20" type="curve" smooth="yes"/>
			<point x="451.2" y="-20"/>
			<point x="460" y="-11.2"/>
			<point x="460" y="0" type="curve" smooth="yes"/>
			<point x="460" y="450" type="line" smooth="yes"/>
			<point x="460" y="461.2"/>
			<point x="451.2" y="470"/>
			<point x="440" y="470" type="curve" smooth="yes"/>
			<point x="428.8" y="470"/>
			<point x="420" y="461.2"/>
			<point x="420" y="450" type="curve" smooth="yes"/>
			<point x="420" y="270" type="line"/>
			<point x="380" y="270" type="line"/>
			<point x="380" y="478" type="line" smooth="yes"/>
			<point x="380" y="560"/>
			<point x="320" y="620"/>
			<point x="238" y="620" type="curve" smooth="yes"/>
			<point x="202" y="620" type="line" smooth="yes"/>
			<point x="120" y="620"/>
			<point x="60" y="560"/>
			<point x="60" y="478" type="curve" smooth="yes"/>
			<point x="60" y="403.2" type="line" smooth="yes"/>
			<point x="60" y="348.4"/>
			<point x="82.8" y="301.2"/>
			<point x="119.6" y="270" type="curve"/>
			<point x="50" y="270" type="line" smooth="yes"/>
			<point x="37.2" y="270"/>
			<point x="30" y="263.2"/>
			<point x="30" y="250" type="curve" smooth="yes"/>
			<point x="30" y="122" type="line" smooth="yes"/>
			<point x="30" y="40"/>
			<point x="90" y="-20"/>
		</contour>
		<contour>
			<point x="172" y="20" type="line" smooth="yes"/>
			<point x="109.2" y="20"/>
			<point x="70" y="59.2"/>
			<point x="70" y="122" type="curve" smooth="yes"/>
			<point x="70" y="230" type="line"/>
			<point x="340" y="230" type="line"/>
			<point x="340" y="122" type="line" smooth="yes"/>
			<point x="340" y="59.2"/>
			<point x="300.8" y="20"/>
			<point x="238" y="20" type="curve" smooth="yes"/>
		</contour>
		<contour>
			<point x="233.2" y="270" type="line" smooth="yes"/>
			<point x="153.2" y="270"/>
			<point x="100" y="323.2"/>
			<point x="100" y="403.2" type="curve" smooth="yes"/>
			<point x="100" y="478" type="line" smooth="yes"/>
			<point x="100" y="540.8"/>
			<point x="139.2" y="580"/>
			<point x="202" y="580" type="curve" smooth="yes"/>
			<point x="238" y="580" type="line" smooth="yes"/>
			<point x="300.8" y="580"/>
			<point x="340" y="540.8"/>
			<point x="340" y="478" type="curve" smooth="yes"/>
			<point x="340" y="270" type="line"/>
		</contour>
	</outline>
</glyph>
<glyph name="nine-tamil" format="2">
	<advance width="650"/>
	<unicode hex="0BEF"/>
	<outline>
		<contour>
			<point x="150" y="-20" type="curve" smooth="yes"/>
			<point x="219.2" y="-20"/>
			<point x="270" y="32.4"/>
			<point x="270" y="102" type="curve" smooth="yes"/>
			<point x="270" y="330" type="line"/>
			<point x="312.8" y="330" type="line"/>
			<point x="300.8" y="312.8"/>
			<point x="294" y="291.6"/>
			<point x="294" y="268" type="curve" smooth="yes"/>
			<point x="294" y="242" type="line" smooth="yes"/>
			<point x="294" y="184.8"/>
			<point x="334.4" y="140"/>
			<point x="389.2" y="140" type="curve" smooth="yes"/>
			<point x="444.8" y="140"/>
			<point x="484" y="184.8"/>
			<point x="484" y="242" type="curve" smooth="yes"/>
			<point x="484" y="268" type="line" smooth="yes"/>
			<point x="484" y="291.2"/>
			<point x="477.6" y="312"/>
			<point x="466" y="328.8" type="curve"/>
			<point x="535.2" y="321.2"/>
			<point x="580" y="270"/>
			<point x="580" y="197.2" type="curve" smooth="yes"/>
			<point x="580" y="153.2" type="line" smooth="yes"/>
			<point x="580" y="73.2"/>
			<point x="526.8" y="20"/>
			<point x="447.2" y="20" type="curve" smooth="yes"/>
			<point x="314" y="20" type="line" smooth="yes"/>
			<point x="302.8" y="20"/>
			<point x="294" y="11.2"/>
			<point x="294" y="0" type="curve" smooth="yes"/>
			<point x="294" y="-11.2"/>
			<point x="302.8" y="-20"/>
			<point x="314" y="-20" type="curve" smooth="yes"/>
			<point x="447.2" y="-20" type="line" smooth="yes"/>
			<point x="546" y="-20"/>
			<point x="620" y="54"/>
			<point x="620" y="153.2" type="curve" smooth="yes"/>
			<point x="620" y="197.2" type="line" smooth="yes"/>
			<point x="620" y="296"/>
			<point x="546" y="370"/>
			<point x="447.2" y="370" type="curve" smooth="yes"/>
			<point x="270" y="370" type="line"/>
			<point x="270" y="580" type="line"/>
			<point x="360" y="580" type="line" smooth="yes"/>
			<point x="371.2" y="580"/>
			<point x="380" y="588.8"/>
			<point x="380" y="600" type="curve" smooth="yes"/>
			<point x="380" y="611.2"/>
			<point x="371.2" y="620"/>
			<point x="360" y="620" type="curve" smooth="yes"/>
			<point x="130" y="620" type="line" smooth="yes"/>
			<point x="117.2" y="620"/>
			<point x="110" y="612.8"/>
			<point x="110" y="600" type="curve" smooth="yes"/>
			<point x="110" y="364.8" type="line"/>
			<point x="64.8" y="350.4"/>
			<point x="30" y="305.2"/>
			<point x="30" y="248" type="curve" smooth="yes"/>
			<point x="30" y="102" type="line" smooth="yes"/>
			<point x="30" y="32.4"/>
			<point x="80.8" y="-20"/>
		</contour>
		<contour>
			<point x="150" y="20" type="curve" smooth="yes"/>
			<point x="100.4" y="20"/>
			<point x="70" y="51.2"/>
			<point x="70" y="102" type="curve" smooth="yes"/>
			<point x="70" y="248" type="line" smooth="yes"/>
			<point x="70" y="298.8"/>
			<point x="101.2" y="330"/>
			<point x="142" y="330" type="curve" smooth="yes"/>
			<point x="230" y="330" type="line"/>
			<point x="230" y="102" type="line" smooth="yes"/>
			<point x="230" y="51.2"/>
			<point x="199.6" y="20"/>
		</contour>
		<contour>
			<point x="389.2" y="180" type="curve" smooth="yes"/>
			<point x="354.8" y="180"/>
			<point x="334" y="202.8"/>
			<point x="334" y="242" type="curve" smooth="yes"/>
			<point x="334" y="268" type="line" smooth="yes"/>
			<point x="334" y="307.2"/>
			<point x="354.8" y="330"/>
			<point x="389.2" y="330" type="curve" smooth="yes"/>
			<point x="423.2" y="330"/>
			<point x="444" y="307.2"/>
			<point x="444" y="268" type="curve" smooth="yes"/>
			<point x="444" y="242" type="line" smooth="yes"/>
			<point x="444" y="202.4"/>
			<point x="424" y="180"/>
		</contour>
		<contour>
			<point x="150" y="370" type="line"/>
			<point x="150" y="580" type="line"/>
			<point x="230" y="580" type="line"/>
			<point x="230" y="370" type="line"/>
		</contour>
	</outline>
</glyph>
<glyph name="ten-tamil" format="2">
	<advance width="460"/>
	<unicode hex="0BF0"/>
	<outline>
		<contour>
			<point x="140" y="-20" type="curve" smooth="yes"/>
			<point x="178" y="-20"/>
			<point x="210.4" y="-2.4"/>
			<point x="230" y="26" type="curve"/>
			<point x="249.6" y="-2.4"/>
			<point x="282" y="-20"/>
			<point x="320" y="-20" type="curve" smooth="yes"/>
			<point x="383.2" y="-20"/>
			<point x="430" y="28.4"/>
			<point x="430" y="92" type="curve" smooth="yes"/>
			<point x="430" y="608" type="line" smooth="yes"/>
			<point x="430" y="672"/>
			<point x="382" y="720"/>
			<point x="318" y="720" type="curve" smooth="yes"/>
			<point x="252" y="720" type="line" smooth="yes"/>
			<point x="188" y="720"/>
			<point x="140" y="672"/>
			<point x="140" y="608" type="curve" smooth="yes"/>
			<point x="140" y="600" type="line" smooth="yes"/>
			<point x="140" y="588.8"/>
			<point x="148.8" y="580"/>
			<point x="160" y="580" type="curve" smooth="yes"/>
			<point x="171.2" y="580"/>
			<point x="180" y="588.8"/>
			<point x="180" y="600" type="curve" smooth="yes"/>
			<point x="180" y="608" type="line" smooth="yes"/>
			<point x="180" y="652.8"/>
			<point x="207.2" y="680"/>
			<point x="252" y="680" type="curve" smooth="yes"/>
			<point x="318" y="680" type="line" smooth="yes"/>
			<point x="362.8" y="680"/>
			<point x="390" y="652.8"/>
			<point x="390" y="608" type="curve" smooth="yes"/>
			<point x="390" y="92" type="line" smooth="yes"/>
			<point x="390" y="47.2"/>
			<point x="363.6" y="20"/>
			<point x="320" y="20" type="curve" smooth="yes"/>
			<point x="276.4" y="20"/>
			<point x="250" y="47.2"/>
			<point x="250" y="92" type="curve" smooth="yes"/>
			<point x="250" y="490" type="line" smooth="yes"/>
			<point x="250" y="501.2"/>
			<point x="241.2" y="510"/>
			<point x="230" y="510" type="curve" smooth="yes"/>
			<point x="218.8" y="510"/>
			<point x="210" y="501.2"/>
			<point x="210" y="490" type="curve" smooth="yes"/>
			<point x="210" y="92" type="line" smooth="yes"/>
			<point x="210" y="47.2"/>
			<point x="183.6" y="20"/>
			<point x="140" y="20" type="curve" smooth="yes"/>
			<point x="96.4" y="20"/>
			<point x="70" y="47.2"/>
			<point x="70" y="92" type="curve" smooth="yes"/>
			<point x="70" y="490" type="line" smooth="yes"/>
			<point x="70" y="501.2"/>
			<point x="61.2" y="510"/>
			<point x="50" y="510" type="curve" smooth="yes"/>
			<point x="38.8" y="510"/>
			<point x="30" y="501.2"/>
			<point x="30" y="490" type="curve" smooth="yes"/>
			<point x="30" y="92" type="line" smooth="yes"/>
			<point x="30" y="28.4"/>
			<point x="76.8" y="-20"/>
		</contour>
	</outline>
</glyph>
<glyph name="onehundred-tamil" format="2">
	<advance width="627"/>
	<unicode hex="0BF1"/>
	<outline>
		<contour>
			<point x="50" y="-20" type="curve" smooth="yes"/>
			<point x="61.2" y="-20"/>
			<point x="70" y="-11.2"/>
			<point x="70" y="0" type="curve" smooth="yes"/>
			<point x="70" y="478" type="line" smooth="yes"/>
			<point x="70" y="540.8"/>
			<point x="109.2" y="580"/>
			<point x="172" y="580" type="curve" smooth="yes"/>
			<point x="196" y="580" type="line" smooth="yes"/>
			<point x="256.4" y="580"/>
			<point x="297.2" y="543.2"/>
			<point x="297.2" y="473.2" type="curve" smooth="yes"/>
			<point x="297.2" y="0" type="line" smooth="yes"/>
			<point x="297.2" y="-11.2"/>
			<point x="306" y="-20"/>
			<point x="317.2" y="-20" type="curve" smooth="yes"/>
			<point x="328" y="-20"/>
			<point x="337.2" y="-11.2"/>
			<point x="337.2" y="0" type="curve" smooth="yes"/>
			<point x="337.2" y="580" type="line"/>
			<point x="477.2" y="580" type="line"/>
			<point x="477.2" y="0" type="line" smooth="yes"/>
			<point x="477.2" y="-11.2"/>
			<point x="486" y="-20"/>
			<point x="497.2" y="-20" type="curve" smooth="yes"/>
			<point x="508" y="-20"/>
			<point x="517.2" y="-11.2"/>
			<point x="517.2" y="0" type="curve" smooth="yes"/>
			<point x="517.2" y="580" type="line"/>
			<point x="577.2" y="580" type="line" smooth="yes"/>
			<point x="588" y="580"/>
			<point x="597.2" y="588.8"/>
			<point x="597.2" y="600" type="curve" smooth="yes"/>
			<point x="597.2" y="611.2"/>
			<point x="588" y="620"/>
			<point x="577.2" y="620" type="curve" smooth="yes"/>
			<point x="317.2" y="620" type="line" smooth="yes"/>
			<point x="304.4" y="620"/>
			<point x="297.2" y="613.2"/>
			<point x="297.2" y="600" type="curve" smooth="yes"/>
			<point x="297.2" y="579.2" type="line"/>
			<point x="271.6" y="605.6"/>
			<point x="235.6" y="620"/>
			<point x="196" y="620" type="curve" smooth="yes"/>
			<point x="172" y="620" type="line" smooth="yes"/>
			<point x="90" y="620"/>
			<point x="30" y="560"/>
			<point x="30" y="478" type="curve" smooth="yes"/>
			<point x="30" y="0" type="line" smooth="yes"/>
			<point x="30" y="-11.2"/>
			<point x="38.8" y="-20"/>
		</contour>
	</outline>
</glyph>
<glyph name="onethousand-tamil" format="2">
	<advance width="600"/>
	<unicode hex="0BF2"/>
	<outline>
		<contour>
			<point x="295.2" y="-200" type="curve" smooth="yes"/>
			<point x="306" y="-200"/>
			<point x="315.2" y="-191.2"/>
			<point x="315.2" y="-180" type="curve" smooth="yes"/>
			<point x="315.2" y="-128" type="line" smooth="yes"/>
			<point x="315.2" y="-83.2"/>
			<point x="342.4" y="-56"/>
			<point x="387.2" y="-56" type="curve" smooth="yes"/>
			<point x="416" y="-56" type="line" smooth="yes"/>
			<point x="495.6" y="-56"/>
			<point x="531.2" y="1.6"/>
			<point x="531.2" y="87.2" type="curve" smooth="yes"/>
			<point x="531.2" y="172.8"/>
			<point x="502.4" y="226"/>
			<point x="436" y="229.6" type="curve"/>
			<point x="436" y="330" type="line"/>
			<point x="460" y="330" type="line" smooth="yes"/>
			<point x="471.2" y="330"/>
			<point x="480" y="338.8"/>
			<point x="480" y="350" type="curve" smooth="yes"/>
			<point x="480" y="361.2"/>
			<point x="471.2" y="370"/>
			<point x="460" y="370" type="curve" smooth="yes"/>
			<point x="270" y="370" type="line"/>
			<point x="270" y="580" type="line"/>
			<point x="360" y="580" type="line" smooth="yes"/>
			<point x="371.2" y="580"/>
			<point x="380" y="588.8"/>
			<point x="380" y="600" type="curve" smooth="yes"/>
			<point x="380" y="611.2"/>
			<point x="371.2" y="620"/>
			<point x="360" y="620" type="curve" smooth="yes"/>
			<point x="130" y="620" type="line" smooth="yes"/>
			<point x="117.2" y="620"/>
			<point x="110" y="613.2"/>
			<point x="110" y="600" type="curve" smooth="yes"/>
			<point x="110" y="364.4" type="line"/>
			<point x="65.2" y="349.6"/>
			<point x="31.2" y="304.8"/>
			<point x="31.2" y="248" type="curve" smooth="yes"/>
			<point x="31.2" y="102" type="line" smooth="yes"/>
			<point x="31.2" y="32.4"/>
			<point x="82" y="-20"/>
			<point x="151.2" y="-20" type="curve" smooth="yes"/>
			<point x="220" y="-20"/>
			<point x="271.2" y="32.4"/>
			<point x="271.2" y="102" type="curve" smooth="yes"/>
			<point x="271.2" y="330" type="line"/>
			<point x="396" y="330" type="line"/>
			<point x="396" y="230" type="line"/>
			<point x="357.2" y="230" type="line" smooth="yes"/>
			<point x="311.2" y="230"/>
			<point x="276" y="194.8"/>
			<point x="276" y="149.2" type="curve" smooth="yes"/>
			<point x="276" y="61.2" type="line" smooth="yes"/>
			<point x="276" y="15.2"/>
			<point x="311.2" y="-20"/>
			<point x="356" y="-20" type="curve"/>
			<point x="308" y="-32.8"/>
			<point x="275.2" y="-74.8"/>
			<point x="275.2" y="-128" type="curve" smooth="yes"/>
			<point x="275.2" y="-180" type="line" smooth="yes"/>
			<point x="275.2" y="-191.2"/>
			<point x="284" y="-200"/>
		</contour>
		<contour>
			<point x="151.2" y="20" type="curve" smooth="yes"/>
			<point x="101.6" y="20"/>
			<point x="71.2" y="51.2"/>
			<point x="71.2" y="102" type="curve" smooth="yes"/>
			<point x="71.2" y="248" type="line" smooth="yes"/>
			<point x="71.2" y="298.8"/>
			<point x="102.4" y="330"/>
			<point x="143.2" y="330" type="curve" smooth="yes"/>
			<point x="231.2" y="330" type="line"/>
			<point x="231.2" y="102" type="line" smooth="yes"/>
			<point x="231.2" y="51.2"/>
			<point x="200.4" y="20"/>
		</contour>
		<contour>
			<point x="356" y="20" type="curve" smooth="yes"/>
			<point x="330.4" y="20"/>
			<point x="316" y="34.4"/>
			<point x="316" y="61.2" type="curve" smooth="yes"/>
			<point x="316" y="149.2" type="line" smooth="yes"/>
			<point x="316" y="175.6"/>
			<point x="330.4" y="190"/>
			<point x="357.2" y="190" type="curve" smooth="yes"/>
			<point x="396" y="190" type="line"/>
			<point x="396" y="61.2" type="line" smooth="yes"/>
			<point x="396" y="34.4"/>
			<point x="381.6" y="20"/>
		</contour>
		<contour>
			<point x="381.2" y="-16" type="line"/>
			<point x="413.2" y="-6"/>
			<point x="436" y="24"/>
			<point x="436" y="61.2" type="curve" smooth="yes"/>
			<point x="436" y="189.6" type="line"/>
			<point x="476.4" y="186.4"/>
			<point x="491.2" y="158"/>
			<point x="491.2" y="87.2" type="curve" smooth="yes"/>
			<point x="491.2" y="15.6"/>
			<point x="470.8" y="-16"/>
			<point x="416" y="-16" type="curve" smooth="yes"/>
			<point x="387.2" y="-16" type="line"/>
		</contour>
		<contour>
			<point x="150" y="370" type="line"/>
			<point x="150" y="580" type="line"/>
			<point x="230" y="580" type="line"/>
			<point x="230" y="370" type="line"/>
		</contour>
	</outline>
</glyph>
<glyph name="ca_uuMatra-tamil" format="2">
	<advance width="490"/>
	<anchor x="420" y="600" name="imatra"/>
	<anchor x="245" y="600" name="top"/>
	<outline>
		<contour>
			<point x="225.2" y="-230" type="curve" smooth="yes"/>
			<point x="348" y="-230" type="line" smooth="yes"/>
			<point x="412" y="-230"/>
			<point x="460" y="-182"/>
			<point x="460" y="-118" type="curve" smooth="yes"/>
			<point x="460" y="4" type="line" smooth="yes"/>
			<point x="460" y="40.8"/>
			<point x="430.8" y="70"/>
			<point x="394" y="70" type="curve" smooth="yes"/>
			<point x="380" y="70" type="line"/>
			<point x="380" y="330" type="line"/>
			<point x="435.2" y="330" type="line" smooth="yes"/>
			<point x="446" y="330"/>
			<point x="455.2" y="338.8"/>
			<point x="455.2" y="350" type="curve" smooth="yes"/>
			<point x="455.2" y="361.2"/>
			<point x="446" y="370"/>
			<point x="435.2" y="370" type="curve" smooth="yes"/>
			<point x="270" y="370" type="line"/>
			<point x="270" y="580" type="line"/>
			<point x="360" y="580" type="line" smooth="yes"/>
			<point x="371.2" y="580"/>
			<point x="380" y="588.8"/>
			<point x="380" y="600" type="curve" smooth="yes"/>
			<point x="380" y="611.2"/>
			<point x="371.2" y="620"/>
			<point x="360" y="620" type="curve" smooth="yes"/>
			<point x="130" y="620" type="line" smooth="yes"/>
			<point x="117.2" y="620"/>
			<point x="110" y="612.8"/>
			<point x="110" y="600" type="curve" smooth="yes"/>
			<point x="110" y="364.8" type="line"/>
			<point x="64.8" y="350.4"/>
			<point x="30" y="305.2"/>
			<point x="30" y="248" type="curve" smooth="yes"/>
			<point x="30" y="102" type="line" smooth="yes"/>
			<point x="30" y="32.4"/>
			<point x="80.8" y="-20"/>
			<point x="150" y="-20" type="curve" smooth="yes"/>
			<point x="219.2" y="-20"/>
			<point x="270" y="32.4"/>
			<point x="270" y="102" type="curve" smooth="yes"/>
			<point x="270" y="330" type="line"/>
			<point x="340" y="330" type="line"/>
			<point x="340" y="0" type="line" smooth="yes"/>
			<point x="340" y="-11.2"/>
			<point x="348.8" y="-20"/>
			<point x="360" y="-20" type="curve" smooth="yes"/>
			<point x="371.2" y="-20"/>
			<point x="380" y="-11.2"/>
			<point x="380" y="0" type="curve" smooth="yes"/>
			<point x="380" y="30" type="line"/>
			<point x="394" y="30" type="line" smooth="yes"/>
			<point x="411.6" y="30"/>
			<point x="420" y="21.6"/>
			<point x="420" y="4" type="curve" smooth="yes"/>
			<point x="420" y="-118" type="line" smooth="yes"/>
			<point x="420" y="-162.8"/>
			<point x="392.8" y="-190"/>
			<point x="348" y="-190" type="curve" smooth="yes"/>
			<point x="288" y="-190" type="line"/>
			<point x="292.4" y="-180.8"/>
			<point x="295.2" y="-170.8"/>
			<point x="295.2" y="-160" type="curve" smooth="yes"/>
			<point x="295.2" y="-122"/>
			<point x="262.8" y="-90"/>
			<point x="225.2" y="-90" type="curve" smooth="yes"/>
			<point x="187.2" y="-90"/>
			<point x="155.2" y="-122"/>
			<point x="155.2" y="-160" type="curve" smooth="yes"/>
			<point x="155.2" y="-198"/>
			<point x="187.2" y="-230"/>
		</contour>
		<contour>
			<point x="225.2" y="-190" type="curve" smooth="yes"/>
			<point x="206.4" y="-190"/>
			<point x="195.2" y="-178.8"/>
			<point x="195.2" y="-160" type="curve" smooth="yes"/>
			<point x="195.2" y="-141.2"/>
			<point x="206.4" y="-130"/>
			<point x="225.2" y="-130" type="curve" smooth="yes"/>
			<point x="243.6" y="-130"/>
			<point x="255.2" y="-141.2"/>
			<point x="255.2" y="-160" type="curve" smooth="yes"/>
			<point x="255.2" y="-178.8"/>
			<point x="243.6" y="-190"/>
		</contour>
		<contour>
			<point x="150" y="20" type="curve" smooth="yes"/>
			<point x="100.4" y="20"/>
			<point x="70" y="51.2"/>
			<point x="70" y="102" type="curve" smooth="yes"/>
			<point x="70" y="248" type="line" smooth="yes"/>
			<point x="70" y="298.8"/>
			<point x="101.2" y="330"/>
			<point x="142" y="330" type="curve" smooth="yes"/>
			<point x="230" y="330" type="line"/>
			<point x="230" y="102" type="line" smooth="yes"/>
			<point x="230" y="51.2"/>
			<point x="199.6" y="20"/>
		</contour>
		<contour>
			<point x="150" y="370" type="line"/>
			<point x="150" y="580" type="line"/>
			<point x="230" y="580" type="line"/>
			<point x="230" y="370" type="line"/>
		</contour>
	</outline>
</glyph>
<glyph name="chaKeezhPaadi.001" format="2">
	<advance width="280"/>
	<outline>
		<contour>
			<point x="130" y="-20" type="curve" smooth="yes"/>
			<point x="230.8" y="-20"/>
			<point x="300" y="75.6"/>
			<point x="300" y="215.2" type="curve" smooth="yes"/>
			<point x="300" y="350" type="line" smooth="yes"/>
			<point x="300" y="362.8"/>
			<point x="292.8" y="370"/>
			<point x="280" y="370" type="curve" smooth="yes"/>
			<point x="130" y="370" type="line" smooth="yes"/>
			<point x="38.8" y="370"/>
			<point x="0" y="284.8"/>
			<point x="0" y="175.2" type="curve" smooth="yes"/>
			<point x="0" y="65.2"/>
			<point x="38.8" y="-20"/>
		</contour>
		<contour>
			<point x="130" y="20" type="curve" smooth="yes"/>
			<point x="66.8" y="20"/>
			<point x="40" y="76.4"/>
			<point x="40" y="175.2" type="curve" smooth="yes"/>
			<point x="40" y="273.6"/>
			<point x="66.8" y="330"/>
			<point x="130" y="330" type="curve" smooth="yes"/>
			<point x="260" y="330" type="line"/>
			<point x="260" y="215.2" type="line" smooth="yes"/>
			<point x="260" y="91.6"/>
			<point x="208" y="20"/>
		</contour>
	</outline>
</glyph>
<glyph name="chaKeezhPaadi" format="2">
	<advance width="200"/>
	<outline>
		<contour>
			<point x="100" y="-20" type="curve" smooth="yes"/>
			<point x="169.2" y="-20"/>
			<point x="220" y="32.4"/>
			<point x="220" y="102" type="curve" smooth="yes"/>
			<point x="220" y="350" type="line" smooth="yes"/>
			<point x="220" y="363.2"/>
			<point x="213.2" y="370"/>
			<point x="200" y="370" type="curve" smooth="yes"/>
			<point x="92" y="370" type="line" smooth="yes"/>
			<point x="32" y="370"/>
			<point x="-20" y="318"/>
			<point x="-20" y="248" type="curve" smooth="yes"/>
			<point x="-20" y="102" type="line" smooth="yes"/>
			<point x="-20" y="32.4"/>
			<point x="30.8" y="-20"/>
		</contour>
		<contour>
			<point x="100" y="20" type="curve" smooth="yes"/>
			<point x="50.4" y="20"/>
			<point x="20" y="51.2"/>
			<point x="20" y="102" type="curve" smooth="yes"/>
			<point x="20" y="248" type="line" smooth="yes"/>
			<point x="20" y="298.8"/>
			<point x="51.2" y="330"/>
			<point x="92" y="330" type="curve" smooth="yes"/>
			<point x="180" y="330" type="line"/>
			<point x="180" y="102" type="line" smooth="yes"/>
			<point x="180" y="51.2"/>
			<point x="149.6" y="20"/>
		</contour>
	</outline>
</glyph>
<glyph name="chaMelPaadi" format="2">
	<advance width="450"/>
	<outline>
		<contour>
			<point x="180" y="330" type="curve" smooth="yes"/>
			<point x="300" y="330" type="line" smooth="yes"/>
			<point x="313.2" y="330"/>
			<point x="320" y="336.8"/>
			<point x="320" y="350" type="curve" smooth="yes"/>
			<point x="320" y="580" type="line"/>
			<point x="410" y="580" type="line" smooth="yes"/>
			<point x="421.2" y="580"/>
			<point x="430" y="588.8"/>
			<point x="430" y="600" type="curve" smooth="yes"/>
			<point x="430" y="611.2"/>
			<point x="421.2" y="620"/>
			<point x="410" y="620" type="curve" smooth="yes"/>
			<point x="180" y="620" type="line" smooth="yes"/>
			<point x="167.2" y="620"/>
			<point x="160" y="613.2"/>
			<point x="160" y="600" type="curve" smooth="yes"/>
			<point x="160" y="350" type="line" smooth="yes"/>
			<point x="160" y="337.2"/>
			<point x="167.2" y="330"/>
		</contour>
		<contour>
			<point x="200" y="370" type="line"/>
			<point x="200" y="580" type="line"/>
			<point x="280" y="580" type="line"/>
			<point x="280" y="370" type="line"/>
		</contour>
	</outline>
</glyph>
<glyph name="changeTry" format="2">
	<advance width="559"/>
	<anchor x="489" y="600" name="imatra"/>
	<anchor x="280" y="600" name="top"/>
	<outline>
		<contour>
			<point x="165.2" y="-320.8" type="curve" smooth="yes"/>
			<point x="256" y="-320.8" type="line" smooth="yes"/>
			<point x="354.8" y="-320.8"/>
			<point x="429.2" y="-246.8"/>
			<point x="429.2" y="-148" type="curve" smooth="yes"/>
			<point x="429" y="-90" type="line"/>
			<point x="529" y="-90" type="line" smooth="yes"/>
			<point x="529" y="-90"/>
			<point x="529" y="-83"/>
			<point x="529" y="470" type="curve"/>
			<point x="489" y="470" type="line"/>
			<point x="489" y="-50" type="line"/>
			<point x="429" y="-50" type="line"/>
			<point x="429.2" y="145.2" type="line" smooth="yes"/>
			<point x="429.2" y="288"/>
			<point x="380.8" y="370"/>
			<point x="270" y="370" type="curve"/>
			<point x="270" y="580" type="line"/>
			<point x="380" y="580" type="line" smooth="yes"/>
			<point x="380" y="580"/>
			<point x="380" y="588.8"/>
			<point x="380" y="600" type="curve" smooth="yes"/>
			<point x="380" y="611.2"/>
			<point x="380" y="620"/>
			<point x="380" y="620" type="curve" smooth="yes"/>
			<point x="110" y="620" type="line" smooth="yes"/>
			<point x="110" y="620"/>
			<point x="110" y="612.8"/>
			<point x="110" y="600" type="curve" smooth="yes"/>
			<point x="110" y="364.8" type="line"/>
			<point x="64.8" y="350.4"/>
			<point x="30" y="305.2"/>
			<point x="30" y="248" type="curve" smooth="yes"/>
			<point x="30" y="102" type="line" smooth="yes"/>
			<point x="30" y="32.4"/>
			<point x="80.8" y="-20"/>
			<point x="150" y="-20" type="curve" smooth="yes"/>
			<point x="219.2" y="-20"/>
			<point x="270" y="32.4"/>
			<point x="270" y="102" type="curve" smooth="yes"/>
			<point x="270" y="330" type="line"/>
			<point x="355.6" y="330"/>
			<point x="389.2" y="274.4"/>
			<point x="389.2" y="145.2" type="curve" smooth="yes"/>
			<point x="389" y="-50" type="line"/>
			<point x="95" y="-50"/>
			<point x="43" y="-50"/>
			<point x="43" y="-50" type="curve" smooth="yes"/>
			<point x="43" y="-199" type="line" smooth="yes"/>
			<point x="43.2" y="-268.8"/>
			<point x="95.2" y="-320.8"/>
		</contour>
		<contour>
			<point x="165.2" y="-280.8" type="line" smooth="yes"/>
			<point x="114.4" y="-280.8"/>
			<point x="83.2" y="-249.6"/>
			<point x="83" y="-199" type="curve" smooth="yes"/>
			<point x="83" y="-90" type="line"/>
			<point x="389" y="-90" type="line"/>
			<point x="389.2" y="-148" type="line" smooth="yes"/>
			<point x="389.2" y="-227.6"/>
			<point x="335.6" y="-280.8"/>
			<point x="256" y="-280.8" type="curve" smooth="yes"/>
		</contour>
		<contour>
			<point x="150" y="20" type="curve" smooth="yes"/>
			<point x="100.4" y="20"/>
			<point x="70" y="51.2"/>
			<point x="70" y="102" type="curve" smooth="yes"/>
			<point x="70" y="248" type="line" smooth="yes"/>
			<point x="70" y="298.8"/>
			<point x="101.2" y="330"/>
			<point x="142" y="330" type="curve" smooth="yes"/>
			<point x="230" y="330" type="line"/>
			<point x="230" y="102" type="line" smooth="yes"/>
			<point x="230" y="51.2"/>
			<point x="199.6" y="20"/>
		</contour>
		<contour>
			<point x="150" y="370" type="line"/>
			<point x="150" y="580" type="line"/>
			<point x="230" y="580" type="line"/>
			<point x="230" y="370" type="line"/>
		</contour>
	</outline>
</glyph>
<glyph name="chinnaVattam.001" format="2">
	<advance width="150"/>
	<outline>
		<contour>
			<point x="75.2" y="-16.8" type="curve" smooth="yes"/>
			<point x="132.4" y="-16.8"/>
			<point x="170" y="23.2"/>
			<point x="170" y="103.2" type="curve" smooth="yes"/>
			<point x="170" y="182.8"/>
			<point x="132.4" y="223.2"/>
			<point x="75.2" y="223.2" type="curve" smooth="yes"/>
			<point x="17.6" y="223.2"/>
			<point x="-20" y="182.8"/>
			<point x="-20" y="103.2" type="curve" smooth="yes"/>
			<point x="-20" y="23.2"/>
			<point x="17.6" y="-16.8"/>
		</contour>
		<contour>
			<point x="75.2" y="23.2" type="curve" smooth="yes"/>
			<point x="37.6" y="23.2"/>
			<point x="20" y="42"/>
			<point x="20" y="103.2" type="curve" smooth="yes"/>
			<point x="20" y="164"/>
			<point x="37.6" y="183.2"/>
			<point x="75.2" y="183.2" type="curve" smooth="yes"/>
			<point x="112.4" y="183.2"/>
			<point x="130" y="164"/>
			<point x="130" y="103.2" type="curve" smooth="yes"/>
			<point x="130" y="42"/>
			<point x="112.4" y="23.2"/>
		</contour>
	</outline>
</glyph>
<glyph name="chinnaVattam" format="2">
	<advance width="150"/>
	<outline>
		<contour>
			<point x="75.2" y="-20" type="curve" smooth="yes"/>
			<point x="130.8" y="-20"/>
			<point x="170" y="24.8"/>
			<point x="170" y="82" type="curve" smooth="yes"/>
			<point x="170" y="118" type="line" smooth="yes"/>
			<point x="170" y="175.2"/>
			<point x="129.6" y="220"/>
			<point x="75.2" y="220" type="curve" smooth="yes"/>
			<point x="20.4" y="220"/>
			<point x="-20" y="175.2"/>
			<point x="-20" y="118" type="curve" smooth="yes"/>
			<point x="-20" y="82" type="line" smooth="yes"/>
			<point x="-20" y="24.8"/>
			<point x="20.4" y="-20"/>
		</contour>
		<contour>
			<point x="75.2" y="20" type="curve" smooth="yes"/>
			<point x="40.8" y="20"/>
			<point x="20" y="42.8"/>
			<point x="20" y="82" type="curve" smooth="yes"/>
			<point x="20" y="118" type="line" smooth="yes"/>
			<point x="20" y="157.2"/>
			<point x="40.8" y="180"/>
			<point x="75.2" y="180" type="curve" smooth="yes"/>
			<point x="109.2" y="180"/>
			<point x="130" y="157.2"/>
			<point x="130" y="118" type="curve" smooth="yes"/>
			<point x="130" y="82" type="line" smooth="yes"/>
			<point x="130" y="42.4"/>
			<point x="110" y="20"/>
		</contour>
	</outline>
</glyph>
<glyph name="iMatra-tamil.001" format="2">
	<advance width="75"/>
	<anchor x="-50" y="550" name="_imatra"/>
	<outline>
		<contour>
			<point x="50" y="-20" type="curve" smooth="yes"/>
			<point x="61.2" y="-20"/>
			<point x="70" y="-11.2"/>
			<point x="70" y="0" type="curve" smooth="yes"/>
			<point x="70" y="708" type="line" smooth="yes"/>
			<point x="70" y="772"/>
			<point x="22" y="820"/>
			<point x="-42" y="820" type="curve" smooth="yes"/>
			<point x="-58" y="820" type="line" smooth="yes"/>
			<point x="-122" y="820"/>
			<point x="-170" y="772"/>
			<point x="-170" y="708" type="curve" smooth="yes"/>
			<point x="-170" y="642" type="line" smooth="yes"/>
			<point x="-170" y="578"/>
			<point x="-122" y="530"/>
			<point x="-58" y="530" type="curve" smooth="yes"/>
			<point x="-50" y="530" type="line" smooth="yes"/>
			<point x="-38.8" y="530"/>
			<point x="-30" y="538.8"/>
			<point x="-30" y="550" type="curve" smooth="yes"/>
			<point x="-30" y="561.2"/>
			<point x="-38.8" y="570"/>
			<point x="-50" y="570" type="curve" smooth="yes"/>
			<point x="-58" y="570" type="line" smooth="yes"/>
			<point x="-102.8" y="570"/>
			<point x="-130" y="597.2"/>
			<point x="-130" y="642" type="curve" smooth="yes"/>
			<point x="-130" y="708" type="line" smooth="yes"/>
			<point x="-130" y="752.8"/>
			<point x="-102.8" y="780"/>
			<point x="-58" y="780" type="curve" smooth="yes"/>
			<point x="-42" y="780" type="line" smooth="yes"/>
			<point x="2.8" y="780"/>
			<point x="30" y="752.8"/>
			<point x="30" y="708" type="curve" smooth="yes"/>
			<point x="30" y="0" type="line" smooth="yes"/>
			<point x="30" y="-11.2"/>
			<point x="38.8" y="-20"/>
		</contour>
	</outline>
</glyph>
<glyph name="iiMatra-tamil.001" format="2">
	<advance width="55"/>
	<anchor x="-50" y="500" name="_imatra"/>
	<anchor x="-69" y="800" name="top"/>
	<outline>
		<contour>
			<point x="-68" y="480" type="curve" smooth="yes"/>
			<point x="-50" y="480" type="line" smooth="yes"/>
			<point x="-38.8" y="480"/>
			<point x="-30" y="488.8"/>
			<point x="-30" y="500" type="curve" smooth="yes"/>
			<point x="-30" y="511.2"/>
			<point x="-38.8" y="520"/>
			<point x="-50" y="520" type="curve" smooth="yes"/>
			<point x="-68" y="520" type="line" smooth="yes"/>
			<point x="-112.8" y="520"/>
			<point x="-140" y="547.2"/>
			<point x="-140" y="592" type="curve" smooth="yes"/>
			<point x="-140" y="708" type="line" smooth="yes"/>
			<point x="-140" y="752.8"/>
			<point x="-112.8" y="780"/>
			<point x="-68" y="780" type="curve" smooth="yes"/>
			<point x="-62" y="780" type="line" smooth="yes"/>
			<point x="-52.4" y="780"/>
			<point x="-43.2" y="778.8"/>
			<point x="-35.2" y="776.4" type="curve"/>
			<point x="-66" y="768.8"/>
			<point x="-90" y="740.8"/>
			<point x="-90" y="708" type="curve" smooth="yes"/>
			<point x="-90" y="670"/>
			<point x="-58" y="638"/>
			<point x="-20" y="638" type="curve" smooth="yes"/>
			<point x="18" y="638"/>
			<point x="50" y="670"/>
			<point x="50" y="708" type="curve" smooth="yes"/>
			<point x="50" y="772"/>
			<point x="2" y="820"/>
			<point x="-62" y="820" type="curve" smooth="yes"/>
			<point x="-68" y="820" type="line" smooth="yes"/>
			<point x="-132" y="820"/>
			<point x="-180" y="772"/>
			<point x="-180" y="708" type="curve" smooth="yes"/>
			<point x="-180" y="592" type="line" smooth="yes"/>
			<point x="-180" y="528"/>
			<point x="-132" y="480"/>
		</contour>
		<contour>
			<point x="-20" y="678" type="curve" smooth="yes"/>
			<point x="-38.8" y="678"/>
			<point x="-50" y="689.2"/>
			<point x="-50" y="708" type="curve" smooth="yes"/>
			<point x="-50" y="726.8"/>
			<point x="-38.8" y="738"/>
			<point x="-20" y="738" type="curve" smooth="yes"/>
			<point x="-1.2" y="738"/>
			<point x="10" y="726.8"/>
			<point x="10" y="708" type="curve" smooth="yes"/>
			<point x="10" y="689.2"/>
			<point x="-1.2" y="678"/>
		</contour>
	</outline>
</glyph>
<glyph name="k_ssa-tamil" format="2">
	<advance width="950"/>
	<anchor x="880" y="600" name="imatra"/>
	<anchor x="475" y="600" name="top"/>
	<outline>
		<contour>
			<point x="810" y="-316.8" type="curve" smooth="yes"/>
			<point x="821.2" y="-316.8"/>
			<point x="830" y="-308"/>
			<point x="830" y="-296.8" type="curve" smooth="yes"/>
			<point x="830" y="-20" type="line"/>
			<point x="900" y="-20" type="line" smooth="yes"/>
			<point x="911.2" y="-20"/>
			<point x="920" y="-11.2"/>
			<point x="920" y="0" type="curve" smooth="yes"/>
			<point x="920" y="11.2"/>
			<point x="911.2" y="20"/>
			<point x="900" y="20" type="curve" smooth="yes"/>
			<point x="830" y="20" type="line"/>
			<point x="830" y="198" type="line" smooth="yes"/>
			<point x="830" y="256.8"/>
			<point x="786.8" y="300"/>
			<point x="730" y="300" type="curve" smooth="yes"/>
			<point x="673.2" y="300"/>
			<point x="630" y="256.8"/>
			<point x="630" y="198" type="curve" smooth="yes"/>
			<point x="630" y="82" type="line" smooth="yes"/>
			<point x="630" y="58"/>
			<point x="637.2" y="36.8"/>
			<point x="648.8" y="20" type="curve"/>
			<point x="380" y="20" type="line" smooth="yes"/>
			<point x="359.2" y="20"/>
			<point x="349.2" y="29.6"/>
			<point x="349.2" y="50" type="curve" smooth="yes"/>
			<point x="349.2" y="70.4"/>
			<point x="359.2" y="80"/>
			<point x="380" y="80" type="curve" smooth="yes"/>
			<point x="478" y="80" type="line" smooth="yes"/>
			<point x="560" y="80"/>
			<point x="620" y="140"/>
			<point x="620" y="222" type="curve" smooth="yes"/>
			<point x="620" y="227.2" type="line" smooth="yes"/>
			<point x="620" y="308.8"/>
			<point x="560" y="370"/>
			<point x="478" y="370" type="curve" smooth="yes"/>
			<point x="270" y="370" type="line"/>
			<point x="270" y="580" type="line"/>
			<point x="360" y="580" type="line" smooth="yes"/>
			<point x="371.2" y="580"/>
			<point x="380" y="588.8"/>
			<point x="380" y="600" type="curve" smooth="yes"/>
			<point x="380" y="611.2"/>
			<point x="371.2" y="620"/>
			<point x="360" y="620" type="curve" smooth="yes"/>
			<point x="130" y="620" type="line" smooth="yes"/>
			<point x="117.2" y="620"/>
			<point x="110" y="612.8"/>
			<point x="110" y="600" type="curve" smooth="yes"/>
			<point x="110" y="364.8" type="line"/>
			<point x="64.8" y="350.4"/>
			<point x="30" y="305.2"/>
			<point x="30" y="248" type="curve" smooth="yes"/>
			<point x="30" y="102" type="line" smooth="yes"/>
			<point x="30" y="32.4"/>
			<point x="80.8" y="-20"/>
			<point x="150" y="-20" type="curve" smooth="yes"/>
			<point x="219.2" y="-20"/>
			<point x="270" y="32.4"/>
			<point x="270" y="102" type="curve" smooth="yes"/>
			<point x="270" y="330" type="line"/>
			<point x="312.8" y="330" type="line"/>
			<point x="300.8" y="312.8"/>
			<point x="294" y="291.6"/>
			<point x="294" y="268" type="curve" smooth="yes"/>
			<point x="294" y="242" type="line" smooth="yes"/>
			<point x="294" y="184.8"/>
			<point x="334.4" y="140"/>
			<point x="389.2" y="140" type="curve" smooth="yes"/>
			<point x="444.8" y="140"/>
			<point x="484" y="184.8"/>
			<point x="484" y="242" type="curve" smooth="yes"/>
			<point x="484" y="268" type="line" smooth="yes"/>
			<point x="484" y="291.6"/>
			<point x="477.2" y="312.8"/>
			<point x="465.2" y="330" type="curve"/>
			<point x="478" y="330" type="line" smooth="yes"/>
			<point x="540.8" y="330"/>
			<point x="580" y="290"/>
			<point x="580" y="227.2" type="curve" smooth="yes"/>
			<point x="580" y="222" type="line" smooth="yes"/>
			<point x="580" y="159.2"/>
			<point x="540.8" y="120"/>
			<point x="478" y="120" type="curve" smooth="yes"/>
			<point x="380" y="120" type="line" smooth="yes"/>
			<point x="340.4" y="120"/>
			<point x="309.2" y="90"/>
			<point x="309.2" y="50" type="curve" smooth="yes"/>
			<point x="309.2" y="10"/>
			<point x="340.4" y="-20"/>
			<point x="380" y="-20" type="curve" smooth="yes"/>
			<point x="790" y="-20" type="line"/>
			<point x="790" y="-296.8" type="line" smooth="yes"/>
			<point x="790" y="-308"/>
			<point x="798.8" y="-316.8"/>
		</contour>
		<contour>
			<point x="150" y="20" type="curve" smooth="yes"/>
			<point x="100.4" y="20"/>
			<point x="70" y="51.2"/>
			<point x="70" y="102" type="curve" smooth="yes"/>
			<point x="70" y="248" type="line" smooth="yes"/>
			<point x="70" y="298.8"/>
			<point x="101.2" y="330"/>
			<point x="142" y="330" type="curve" smooth="yes"/>
			<point x="230" y="330" type="line"/>
			<point x="230" y="102" type="line" smooth="yes"/>
			<point x="230" y="51.2"/>
			<point x="199.6" y="20"/>
		</contour>
		<contour>
			<point x="389.2" y="180" type="curve" smooth="yes"/>
			<point x="354.8" y="180"/>
			<point x="334" y="202.8"/>
			<point x="334" y="242" type="curve" smooth="yes"/>
			<point x="334" y="268" type="line" smooth="yes"/>
			<point x="334" y="307.2"/>
			<point x="354.8" y="330"/>
			<point x="389.2" y="330" type="curve" smooth="yes"/>
			<point x="423.2" y="330"/>
			<point x="444" y="307.2"/>
			<point x="444" y="268" type="curve" smooth="yes"/>
			<point x="444" y="242" type="line" smooth="yes"/>
			<point x="444" y="202.4"/>
			<point x="424" y="180"/>
		</contour>
		<contour>
			<point x="150" y="370" type="line"/>
			<point x="150" y="580" type="line"/>
			<point x="230" y="580" type="line"/>
			<point x="230" y="370" type="line"/>
		</contour>
		<contour>
			<point x="724" y="20" type="line" smooth="yes"/>
			<point x="692.4" y="20"/>
			<point x="670" y="42.4"/>
			<point x="670" y="82" type="curve" smooth="yes"/>
			<point x="670" y="198" type="line" smooth="yes"/>
			<point x="670" y="237.6"/>
			<point x="692.4" y="260"/>
			<point x="730" y="260" type="curve" smooth="yes"/>
			<point x="767.6" y="260"/>
			<point x="790" y="237.6"/>
			<point x="790" y="198" type="curve" smooth="yes"/>
			<point x="790" y="20" type="line"/>
		</contour>
	</outline>
</glyph>
<glyph name="kaKeezhPaadi.001" format="2">
	<advance width="200"/>
	<outline>
		<contour>
			<point x="100" y="-20" type="curve" smooth="yes"/>
			<point x="169.2" y="-20"/>
			<point x="220" y="32.4"/>
			<point x="220" y="102" type="curve" smooth="yes"/>
			<point x="220" y="248" type="line" smooth="yes"/>
			<point x="220" y="318"/>
			<point x="168" y="370"/>
			<point x="108" y="370" type="curve" smooth="yes"/>
			<point x="51.2" y="370" type="line" smooth="yes"/>
			<point x="40" y="370"/>
			<point x="31.2" y="361.2"/>
			<point x="31.2" y="350" type="curve" smooth="yes"/>
			<point x="31.2" y="338.8"/>
			<point x="40" y="330"/>
			<point x="51.2" y="330" type="curve" smooth="yes"/>
			<point x="108" y="330" type="line" smooth="yes"/>
			<point x="148.8" y="330"/>
			<point x="180" y="298.8"/>
			<point x="180" y="248" type="curve" smooth="yes"/>
			<point x="180" y="102" type="line" smooth="yes"/>
			<point x="180" y="51.2"/>
			<point x="149.6" y="20"/>
			<point x="100" y="20" type="curve" smooth="yes"/>
			<point x="50.4" y="20"/>
			<point x="20" y="51.2"/>
			<point x="20" y="101.2" type="curve" smooth="yes"/>
			<point x="20" y="112"/>
			<point x="11.2" y="121.2"/>
			<point x="0" y="121.2" type="curve" smooth="yes"/>
			<point x="-11.2" y="121.2"/>
			<point x="-20" y="112"/>
			<point x="-20" y="101.2" type="curve" smooth="yes"/>
			<point x="-20" y="32.4"/>
			<point x="30.8" y="-20"/>
		</contour>
	</outline>
</glyph>
<glyph name="kaKeezhPaadi" format="2">
	<advance width="179"/>
	<outline>
		<contour>
			<point x="69.2" y="-20" type="curve" smooth="yes"/>
			<point x="169.2" y="-20"/>
			<point x="199.2" y="71.6"/>
			<point x="199.2" y="175.2" type="curve" smooth="yes"/>
			<point x="199.2" y="278.8"/>
			<point x="168.8" y="370"/>
			<point x="59.2" y="370" type="curve" smooth="yes"/>
			<point x="19.2" y="370" type="line" smooth="yes"/>
			<point x="8" y="370"/>
			<point x="-0.8" y="361.2"/>
			<point x="-0.8" y="350" type="curve" smooth="yes"/>
			<point x="-0.8" y="338.8"/>
			<point x="8" y="330"/>
			<point x="19.2" y="330" type="curve" smooth="yes"/>
			<point x="59.2" y="330" type="line" smooth="yes"/>
			<point x="138.8" y="330"/>
			<point x="159.2" y="269.6"/>
			<point x="159.2" y="175.2" type="curve" smooth="yes"/>
			<point x="159.2" y="80.4"/>
			<point x="138.8" y="20"/>
			<point x="69.2" y="20" type="curve" smooth="yes"/>
			<point x="47.2" y="20"/>
			<point x="29.2" y="25.6"/>
			<point x="10.4" y="36.4" type="curve"/>
			<point x="10" y="36.4" type="line"/>
			<point x="6.8" y="38"/>
			<point x="3.6" y="39.2"/>
			<point x="0" y="39.2" type="curve" smooth="yes"/>
			<point x="-11.2" y="39.2"/>
			<point x="-20" y="30"/>
			<point x="-20" y="19.2" type="curve" smooth="yes"/>
			<point x="-20" y="11.6"/>
			<point x="-16" y="5.2"/>
			<point x="-10" y="1.6" type="curve"/>
			<point x="-9.6" y="1.6" type="line"/>
			<point x="13.6" y="-11.6"/>
			<point x="40.8" y="-20"/>
		</contour>
	</outline>
</glyph>
<glyph name="ka_uMatra-tamil" format="2">
	<advance width="530"/>
	<anchor x="460" y="600" name="imatra"/>
	<anchor x="265" y="600" name="top"/>
	<outline>
		<contour>
			<point x="203.2" y="-160" type="curve" smooth="yes"/>
			<point x="327.2" y="-160" type="line" smooth="yes"/>
			<point x="426" y="-160"/>
			<point x="500" y="-86"/>
			<point x="500" y="13.2" type="curve" smooth="yes"/>
			<point x="500" y="191.2" type="line" smooth="yes"/>
			<point x="500" y="274.8"/>
			<point x="501.2" y="363.6"/>
			<point x="340" y="371.6" type="curve"/>
			<point x="340" y="580" type="line"/>
			<point x="430" y="580" type="line" smooth="yes"/>
			<point x="441.2" y="580"/>
			<point x="450" y="588.8"/>
			<point x="450" y="600" type="curve" smooth="yes"/>
			<point x="450" y="611.2"/>
			<point x="441.2" y="620"/>
			<point x="430" y="620" type="curve" smooth="yes"/>
			<point x="200" y="620" type="line" smooth="yes"/>
			<point x="187.2" y="620"/>
			<point x="180" y="612.8"/>
			<point x="180" y="600" type="curve" smooth="yes"/>
			<point x="180" y="364.8" type="line"/>
			<point x="134.8" y="350.4"/>
			<point x="100" y="305.2"/>
			<point x="100" y="248" type="curve" smooth="yes"/>
			<point x="100" y="102" type="line" smooth="yes"/>
			<point x="100" y="32.4"/>
			<point x="150.8" y="-20"/>
			<point x="220" y="-20" type="curve" smooth="yes"/>
			<point x="289.2" y="-20"/>
			<point x="340" y="32.4"/>
			<point x="340" y="102" type="curve" smooth="yes"/>
			<point x="340" y="331.6" type="line"/>
			<point x="460.8" y="325.6"/>
			<point x="460" y="274"/>
			<point x="460" y="191.2" type="curve" smooth="yes"/>
			<point x="460" y="13.2" type="line" smooth="yes"/>
			<point x="460" y="-66.8"/>
			<point x="406.8" y="-120"/>
			<point x="327.2" y="-120" type="curve" smooth="yes"/>
			<point x="203.2" y="-120" type="line" smooth="yes"/>
			<point x="123.2" y="-120"/>
			<point x="70" y="-66.8"/>
			<point x="70" y="13.2" type="curve" smooth="yes"/>
			<point x="70" y="627.2" type="line" smooth="yes"/>
			<point x="70" y="706.8"/>
			<point x="123.2" y="760"/>
			<point x="203.2" y="760" type="curve" smooth="yes"/>
			<point x="327.2" y="760" type="line" smooth="yes"/>
			<point x="406.8" y="760"/>
			<point x="460" y="706.8"/>
			<point x="460" y="627.2" type="curve" smooth="yes"/>
			<point x="460" y="600" type="line" smooth="yes"/>
			<point x="460" y="588.8"/>
			<point x="468.8" y="580"/>
			<point x="480" y="580" type="curve" smooth="yes"/>
			<point x="491.2" y="580"/>
			<point x="500" y="588.8"/>
			<point x="500" y="600" type="curve" smooth="yes"/>
			<point x="500" y="627.2" type="line" smooth="yes"/>
			<point x="500" y="726"/>
			<point x="426" y="800"/>
			<point x="327.2" y="800" type="curve" smooth="yes"/>
			<point x="203.2" y="800" type="line" smooth="yes"/>
			<point x="104" y="800"/>
			<point x="30" y="726"/>
			<point x="30" y="627.2" type="curve" smooth="yes"/>
			<point x="30" y="13.2" type="line" smooth="yes"/>
			<point x="30" y="-86"/>
			<point x="104" y="-160"/>
		</contour>
		<contour>
			<point x="220" y="20" type="curve" smooth="yes"/>
			<point x="170.4" y="20"/>
			<point x="140" y="51.2"/>
			<point x="140" y="102" type="curve" smooth="yes"/>
			<point x="140" y="248" type="line" smooth="yes"/>
			<point x="140" y="298.8"/>
			<point x="171.2" y="330"/>
			<point x="212" y="330" type="curve" smooth="yes"/>
			<point x="300" y="330" type="line"/>
			<point x="300" y="102" type="line" smooth="yes"/>
			<point x="300" y="51.2"/>
			<point x="269.6" y="20"/>
		</contour>
		<contour>
			<point x="220" y="370" type="line"/>
			<point x="220" y="580" type="line"/>
			<point x="300" y="580" type="line"/>
			<point x="300" y="370" type="line"/>
		</contour>
	</outline>
</glyph>
<glyph name="ka_uuMatra-tamil" format="2">
	<advance width="750"/>
	<anchor x="680" y="600" name="imatra"/>
	<anchor x="375" y="600" name="top"/>
	<outline>
		<contour>
			<point x="150" y="-20" type="curve" smooth="yes"/>
			<point x="219.2" y="-20"/>
			<point x="270" y="32.4"/>
			<point x="270" y="102" type="curve" smooth="yes"/>
			<point x="270" y="330" type="line"/>
			<point x="312.8" y="330" type="line"/>
			<point x="300.8" y="312.8"/>
			<point x="294" y="291.6"/>
			<point x="294" y="268" type="curve" smooth="yes"/>
			<point x="294" y="242" type="line" smooth="yes"/>
			<point x="294" y="184.8"/>
			<point x="334.4" y="140"/>
			<point x="389.2" y="140" type="curve" smooth="yes"/>
			<point x="444.8" y="140"/>
			<point x="484" y="184.8"/>
			<point x="484" y="242" type="curve" smooth="yes"/>
			<point x="484" y="268" type="line" smooth="yes"/>
			<point x="484" y="291.6"/>
			<point x="477.2" y="312.8"/>
			<point x="465.2" y="330" type="curve"/>
			<point x="478" y="330" type="line" smooth="yes"/>
			<point x="540.8" y="330"/>
			<point x="580" y="290"/>
			<point x="580" y="227.2" type="curve" smooth="yes"/>
			<point x="580" y="222" type="line" smooth="yes"/>
			<point x="580" y="159.2"/>
			<point x="540.8" y="120"/>
			<point x="478" y="120" type="curve" smooth="yes"/>
			<point x="380" y="120" type="line" smooth="yes"/>
			<point x="340.4" y="120"/>
			<point x="309.2" y="90"/>
			<point x="309.2" y="50" type="curve" smooth="yes"/>
			<point x="309.2" y="10"/>
			<point x="340.4" y="-20"/>
			<point x="380" y="-20" type="curve" smooth="yes"/>
			<point x="700" y="-20" type="line" smooth="yes"/>
			<point x="711.2" y="-20"/>
			<point x="720" y="-11.2"/>
			<point x="720" y="0" type="curve" smooth="yes"/>
			<point x="720" y="11.2"/>
			<point x="711.2" y="20"/>
			<point x="700" y="20" type="curve" smooth="yes"/>
			<point x="380" y="20" type="line" smooth="yes"/>
			<point x="359.2" y="20"/>
			<point x="349.2" y="29.6"/>
			<point x="349.2" y="50" type="curve" smooth="yes"/>
			<point x="349.2" y="70.4"/>
			<point x="359.2" y="80"/>
			<point x="380" y="80" type="curve" smooth="yes"/>
			<point x="478" y="80" type="line" smooth="yes"/>
			<point x="560" y="80"/>
			<point x="620" y="140"/>
			<point x="620" y="222" type="curve" smooth="yes"/>
			<point x="620" y="227.2" type="line" smooth="yes"/>
			<point x="620" y="308.8"/>
			<point x="560" y="370"/>
			<point x="478" y="370" type="curve" smooth="yes"/>
			<point x="270" y="370" type="line"/>
			<point x="270" y="580" type="line"/>
			<point x="360" y="580" type="line" smooth="yes"/>
			<point x="371.2" y="580"/>
			<point x="380" y="588.8"/>
			<point x="380" y="600" type="curve" smooth="yes"/>
			<point x="380" y="611.2"/>
			<point x="371.2" y="620"/>
			<point x="360" y="620" type="curve" smooth="yes"/>
			<point x="130" y="620" type="line" smooth="yes"/>
			<point x="117.2" y="620"/>
			<point x="110" y="612.8"/>
			<point x="110" y="600" type="curve" smooth="yes"/>
			<point x="110" y="364.8" type="line"/>
			<point x="64.8" y="350.4"/>
			<point x="30" y="305.2"/>
			<point x="30" y="248" type="curve" smooth="yes"/>
			<point x="30" y="102" type="line" smooth="yes"/>
			<point x="30" y="32.4"/>
			<point x="80.8" y="-20"/>
		</contour>
		<contour>
			<point x="150" y="20" type="curve" smooth="yes"/>
			<point x="100.4" y="20"/>
			<point x="70" y="51.2"/>
			<point x="70" y="102" type="curve" smooth="yes"/>
			<point x="70" y="248" type="line" smooth="yes"/>
			<point x="70" y="298.8"/>
			<point x="101.2" y="330"/>
			<point x="142" y="330" type="curve" smooth="yes"/>
			<point x="230" y="330" type="line"/>
			<point x="230" y="102" type="line" smooth="yes"/>
			<point x="230" y="51.2"/>
			<point x="199.6" y="20"/>
		</contour>
		<contour>
			<point x="389.2" y="180" type="curve" smooth="yes"/>
			<point x="354.8" y="180"/>
			<point x="334" y="202.8"/>
			<point x="334" y="242" type="curve" smooth="yes"/>
			<point x="334" y="268" type="line" smooth="yes"/>
			<point x="334" y="307.2"/>
			<point x="354.8" y="330"/>
			<point x="389.2" y="330" type="curve" smooth="yes"/>
			<point x="423.2" y="330"/>
			<point x="444" y="307.2"/>
			<point x="444" y="268" type="curve" smooth="yes"/>
			<point x="444" y="242" type="line" smooth="yes"/>
			<point x="444" y="202.4"/>
			<point x="424" y="180"/>
		</contour>
		<contour>
			<point x="150" y="370" type="line"/>
			<point x="150" y="580" type="line"/>
			<point x="230" y="580" type="line"/>
			<point x="230" y="370" type="line"/>
		</contour>
	</outline>
</glyph>
<glyph name="kokkiVattam" format="2">
	<advance width="100"/>
	<outline>
		<contour>
			<point x="50" y="-20" type="curve" smooth="yes"/>
			<point x="88" y="-20"/>
			<point x="120" y="12"/>
			<point x="120" y="50" type="curve" smooth="yes"/>
			<point x="120" y="88"/>
			<point x="88" y="120"/>
			<point x="50" y="120" type="curve" smooth="yes"/>
			<point x="12" y="120"/>
			<point x="-20" y="88"/>
			<point x="-20" y="50" type="curve" smooth="yes"/>
			<point x="-20" y="12"/>
			<point x="12" y="-20"/>
		</contour>
		<contour>
			<point x="50" y="20" type="curve" smooth="yes"/>
			<point x="31.2" y="20"/>
			<point x="20" y="31.2"/>
			<point x="20" y="50" type="curve" smooth="yes"/>
			<point x="20" y="68.8"/>
			<point x="31.2" y="80"/>
			<point x="50" y="80" type="curve" smooth="yes"/>
			<point x="68.8" y="80"/>
			<point x="80" y="68.8"/>
			<point x="80" y="50" type="curve" smooth="yes"/>
			<point x="80" y="31.2"/>
			<point x="68.8" y="20"/>
		</contour>
	</outline>
</glyph>
<glyph name="la_iMatra-tamil" format="2">
	<advance width="597"/>
	<anchor x="527" y="600" name="imatra"/>
	<anchor x="299" y="600" name="top"/>
	<outline>
		<contour>
			<point x="170" y="-20" type="curve" smooth="yes"/>
			<point x="172" y="-20" type="line" smooth="yes"/>
			<point x="226.4" y="-18.8"/>
			<point x="265.2" y="25.6"/>
			<point x="265.2" y="82" type="curve" smooth="yes"/>
			<point x="265.2" y="118" type="line" smooth="yes"/>
			<point x="265.2" y="175.2"/>
			<point x="224.4" y="220"/>
			<point x="170" y="220" type="curve" smooth="yes"/>
			<point x="115.6" y="220"/>
			<point x="75.2" y="175.2"/>
			<point x="75.2" y="118" type="curve" smooth="yes"/>
			<point x="75.2" y="86.4" type="line"/>
			<point x="71.6" y="97.2"/>
			<point x="70" y="109.2"/>
			<point x="70" y="122" type="curve" smooth="yes"/>
			<point x="70" y="478" type="line" smooth="yes"/>
			<point x="70" y="540.8"/>
			<point x="109.2" y="580"/>
			<point x="172" y="580" type="curve" smooth="yes"/>
			<point x="196" y="580" type="line" smooth="yes"/>
			<point x="256.4" y="580"/>
			<point x="297.2" y="543.2"/>
			<point x="297.2" y="473.2" type="curve" smooth="yes"/>
			<point x="297.2" y="76" type="line" smooth="yes"/>
			<point x="297.2" y="21.2"/>
			<point x="338" y="-20"/>
			<point x="392" y="-20" type="curve" smooth="yes"/>
			<point x="446" y="-20"/>
			<point x="487.2" y="21.2"/>
			<point x="487.2" y="76" type="curve" smooth="yes"/>
			<point x="487.2" y="523.2" type="line" smooth="yes"/>
			<point x="487.2" y="577.6"/>
			<point x="446" y="620"/>
			<point x="391.2" y="620" type="curve" smooth="yes"/>
			<point x="380" y="620"/>
			<point x="371.2" y="611.2"/>
			<point x="371.2" y="600" type="curve" smooth="yes"/>
			<point x="371.2" y="588.8"/>
			<point x="380" y="580"/>
			<point x="391.2" y="580" type="curve" smooth="yes"/>
			<point x="426.4" y="580"/>
			<point x="447.2" y="558.8"/>
			<point x="447.2" y="523.2" type="curve" smooth="yes"/>
			<point x="447.2" y="520" type="line"/>
			<point x="439.2" y="520" type="line" smooth="yes"/>
			<point x="394.4" y="520"/>
			<point x="367.2" y="547.2"/>
			<point x="367.2" y="592" type="curve" smooth="yes"/>
			<point x="367.2" y="708" type="line" smooth="yes"/>
			<point x="367.2" y="752.8"/>
			<point x="394.4" y="780"/>
			<point x="439.2" y="780" type="curve" smooth="yes"/>
			<point x="455.2" y="780" type="line" smooth="yes"/>
			<point x="499.6" y="780"/>
			<point x="527.2" y="752.8"/>
			<point x="527.2" y="708" type="curve" smooth="yes"/>
			<point x="527.2" y="0" type="line" smooth="yes"/>
			<point x="527.2" y="-11.2"/>
			<point x="536" y="-20"/>
			<point x="547.2" y="-20" type="curve" smooth="yes"/>
			<point x="558" y="-20"/>
			<point x="567.2" y="-11.2"/>
			<point x="567.2" y="0" type="curve" smooth="yes"/>
			<point x="567.2" y="708" type="line" smooth="yes"/>
			<point x="567.2" y="772"/>
			<point x="518.8" y="820"/>
			<point x="455.2" y="820" type="curve" smooth="yes"/>
			<point x="439.2" y="820" type="line" smooth="yes"/>
			<point x="375.2" y="820"/>
			<point x="327.2" y="772"/>
			<point x="327.2" y="708" type="curve" smooth="yes"/>
			<point x="327.2" y="592" type="line" smooth="yes"/>
			<point x="327.2" y="528"/>
			<point x="375.2" y="480"/>
			<point x="439.2" y="480" type="curve" smooth="yes"/>
			<point x="447.2" y="480" type="line"/>
			<point x="447.2" y="76" type="line" smooth="yes"/>
			<point x="447.2" y="40.4"/>
			<point x="426.8" y="20"/>
			<point x="392" y="20" type="curve" smooth="yes"/>
			<point x="357.2" y="20"/>
			<point x="337.2" y="40.4"/>
			<point x="337.2" y="76" type="curve" smooth="yes"/>
			<point x="337.2" y="473.2" type="line" smooth="yes"/>
			<point x="337.2" y="563.6"/>
			<point x="274.4" y="620"/>
			<point x="196" y="620" type="curve" smooth="yes"/>
			<point x="172" y="620" type="line" smooth="yes"/>
			<point x="90" y="620"/>
			<point x="30" y="560"/>
			<point x="30" y="478" type="curve" smooth="yes"/>
			<point x="30" y="122" type="line" smooth="yes"/>
			<point x="30" y="43.2"/>
			<point x="86.8" y="-15.6"/>
			<point x="162.8" y="-19.6" type="curve" smooth="yes"/>
			<point x="165.2" y="-20"/>
			<point x="167.6" y="-20"/>
		</contour>
		<contour>
			<point x="164.8" y="20" type="line" smooth="yes"/>
			<point x="133.6" y="22.4"/>
			<point x="115.2" y="44.8"/>
			<point x="115.2" y="82" type="curve" smooth="yes"/>
			<point x="115.2" y="118" type="line" smooth="yes"/>
			<point x="115.2" y="157.2"/>
			<point x="136" y="180"/>
			<point x="170" y="180" type="curve" smooth="yes"/>
			<point x="204" y="180"/>
			<point x="225.2" y="157.2"/>
			<point x="225.2" y="118" type="curve" smooth="yes"/>
			<point x="225.2" y="82" type="line" smooth="yes"/>
			<point x="225.2" y="42.8"/>
			<point x="205.2" y="20.4"/>
			<point x="170.8" y="20" type="curve" smooth="yes"/>
		</contour>
	</outline>
</glyph>
<glyph name="la_uMatra-tamil" format="2">
	<advance width="618"/>
	<anchor x="548" y="600" name="imatra"/>
	<anchor x="309" y="600" name="top"/>
	<outline>
		<contour>
			<point x="152" y="-320.8" type="curve" smooth="yes"/>
			<point x="240" y="-320.8" type="line" smooth="yes"/>
			<point x="338.8" y="-320.8"/>
			<point x="413.2" y="-246.8"/>
			<point x="413.2" y="-148" type="curve" smooth="yes"/>
			<point x="413.2" y="-80" type="line"/>
			<point x="568" y="-80" type="line" smooth="yes"/>
			<point x="581.2" y="-80"/>
			<point x="588" y="-72.8"/>
			<point x="588" y="-60" type="curve" smooth="yes"/>
			<point x="588" y="450" type="line" smooth="yes"/>
			<point x="588" y="461.2"/>
			<point x="579.2" y="470"/>
			<point x="568" y="470" type="curve" smooth="yes"/>
			<point x="556.8" y="470"/>
			<point x="548" y="461.2"/>
			<point x="548" y="450" type="curve" smooth="yes"/>
			<point x="548" y="-40" type="line"/>
			<point x="413.2" y="-40" type="line"/>
			<point x="413.2" y="-18" type="line"/>
			<point x="456.8" y="-9.2"/>
			<point x="488" y="28"/>
			<point x="488" y="76" type="curve" smooth="yes"/>
			<point x="488" y="523.2" type="line" smooth="yes"/>
			<point x="488" y="577.6"/>
			<point x="447.2" y="620"/>
			<point x="392" y="620" type="curve" smooth="yes"/>
			<point x="366" y="620" type="line" smooth="yes"/>
			<point x="354.8" y="620"/>
			<point x="346" y="611.2"/>
			<point x="346" y="600" type="curve" smooth="yes"/>
			<point x="346" y="588.8"/>
			<point x="354.8" y="580"/>
			<point x="366" y="580" type="curve" smooth="yes"/>
			<point x="392" y="580" type="line" smooth="yes"/>
			<point x="427.6" y="580"/>
			<point x="448" y="558.8"/>
			<point x="448" y="523.2" type="curve" smooth="yes"/>
			<point x="448" y="76" type="line" smooth="yes"/>
			<point x="448" y="40.4"/>
			<point x="427.6" y="20"/>
			<point x="393.2" y="20" type="curve" smooth="yes"/>
			<point x="358.4" y="20"/>
			<point x="338" y="40.4"/>
			<point x="338" y="76" type="curve" smooth="yes"/>
			<point x="338" y="473.2" type="line" smooth="yes"/>
			<point x="338" y="563.6"/>
			<point x="275.2" y="620"/>
			<point x="197.2" y="620" type="curve" smooth="yes"/>
			<point x="173.2" y="620" type="line" smooth="yes"/>
			<point x="91.2" y="620"/>
			<point x="31.2" y="560"/>
			<point x="31.2" y="478" type="curve" smooth="yes"/>
			<point x="31.2" y="122" type="line" smooth="yes"/>
			<point x="31.2" y="43.2"/>
			<point x="87.6" y="-15.6"/>
			<point x="164" y="-19.6" type="curve" smooth="yes"/>
			<point x="166.4" y="-20"/>
			<point x="168.8" y="-20"/>
			<point x="171.2" y="-20" type="curve" smooth="yes"/>
			<point x="173.2" y="-20" type="line" smooth="yes"/>
			<point x="227.6" y="-18.8"/>
			<point x="266" y="25.6"/>
			<point x="266" y="82" type="curve" smooth="yes"/>
			<point x="266" y="118" type="line" smooth="yes"/>
			<point x="266" y="175.2"/>
			<point x="225.6" y="220"/>
			<point x="171.2" y="220" type="curve" smooth="yes"/>
			<point x="116.4" y="220"/>
			<point x="76" y="175.2"/>
			<point x="76" y="118" type="curve" smooth="yes"/>
			<point x="76" y="86.4" type="line"/>
			<point x="72.8" y="97.2"/>
			<point x="71.2" y="109.2"/>
			<point x="71.2" y="122" type="curve" smooth="yes"/>
			<point x="71.2" y="478" type="line" smooth="yes"/>
			<point x="71.2" y="540.8"/>
			<point x="110.4" y="580"/>
			<point x="173.2" y="580" type="curve" smooth="yes"/>
			<point x="197.2" y="580" type="line" smooth="yes"/>
			<point x="257.2" y="580"/>
			<point x="298" y="543.2"/>
			<point x="298" y="473.2" type="curve" smooth="yes"/>
			<point x="298" y="76" type="line" smooth="yes"/>
			<point x="298" y="28"/>
			<point x="329.2" y="-9.2"/>
			<point x="373.2" y="-18" type="curve"/>
			<point x="373.2" y="-40" type="line"/>
			<point x="152" y="-40" type="line" smooth="yes"/>
			<point x="82" y="-40"/>
			<point x="30" y="-92"/>
			<point x="30" y="-162" type="curve" smooth="yes"/>
			<point x="30" y="-198.8" type="line" smooth="yes"/>
			<point x="30" y="-268.8"/>
			<point x="82" y="-320.8"/>
		</contour>
		<contour>
			<point x="152" y="-280.8" type="line" smooth="yes"/>
			<point x="101.2" y="-280.8"/>
			<point x="70" y="-249.6"/>
			<point x="70" y="-198.8" type="curve" smooth="yes"/>
			<point x="70" y="-162" type="line" smooth="yes"/>
			<point x="70" y="-111.2"/>
			<point x="101.2" y="-80"/>
			<point x="152" y="-80" type="curve" smooth="yes"/>
			<point x="373.2" y="-80" type="line"/>
			<point x="373.2" y="-148" type="line" smooth="yes"/>
			<point x="373.2" y="-227.6"/>
			<point x="319.6" y="-280.8"/>
			<point x="240" y="-280.8" type="curve" smooth="yes"/>
		</contour>
		<contour>
			<point x="165.6" y="20" type="line" smooth="yes"/>
			<point x="134.8" y="22.4"/>
			<point x="116" y="44.8"/>
			<point x="116" y="82" type="curve" smooth="yes"/>
			<point x="116" y="118" type="line" smooth="yes"/>
			<point x="116" y="157.2"/>
			<point x="136.8" y="180"/>
			<point x="171.2" y="180" type="curve" smooth="yes"/>
			<point x="205.2" y="180"/>
			<point x="226" y="157.2"/>
			<point x="226" y="118" type="curve" smooth="yes"/>
			<point x="226" y="82" type="line" smooth="yes"/>
			<point x="226" y="42.8"/>
			<point x="206.4" y="20.4"/>
			<point x="172" y="20" type="curve" smooth="yes"/>
		</contour>
	</outline>
</glyph>
<glyph name="lla_uMatra-tamil" format="2">
	<advance width="827"/>
	<anchor x="757" y="600" name="imatra"/>
	<anchor x="414" y="600" name="top"/>
	<outline>
		<contour>
			<point x="203.2" y="-160" type="curve" smooth="yes"/>
			<point x="619.2" y="-160" type="line" smooth="yes"/>
			<point x="761.2" y="-160"/>
			<point x="797.2" y="-53.6"/>
			<point x="797.2" y="37.2" type="curve" smooth="yes"/>
			<point x="797.2" y="194"/>
			<point x="797.2" y="267.2"/>
			<point x="678" y="267.2" type="curve" smooth="yes"/>
			<point x="652.4" y="267.2"/>
			<point x="632" y="260.8"/>
			<point x="617.2" y="250" type="curve"/>
			<point x="617.2" y="580" type="line"/>
			<point x="697.2" y="580" type="line" smooth="yes"/>
			<point x="708" y="580"/>
			<point x="717.2" y="588.8"/>
			<point x="717.2" y="600" type="curve" smooth="yes"/>
			<point x="717.2" y="611.2"/>
			<point x="708" y="620"/>
			<point x="697.2" y="620" type="curve" smooth="yes"/>
			<point x="417.2" y="620" type="line" smooth="yes"/>
			<point x="404.4" y="620"/>
			<point x="397.2" y="613.2"/>
			<point x="397.2" y="600" type="curve" smooth="yes"/>
			<point x="397.2" y="579.2" type="line"/>
			<point x="371.6" y="605.6"/>
			<point x="335.6" y="620"/>
			<point x="296" y="620" type="curve" smooth="yes"/>
			<point x="272" y="620" type="line" smooth="yes"/>
			<point x="190" y="620"/>
			<point x="130" y="560"/>
			<point x="130" y="478" type="curve" smooth="yes"/>
			<point x="130" y="122" type="line" smooth="yes"/>
			<point x="130" y="43.2"/>
			<point x="186.8" y="-15.6"/>
			<point x="262.8" y="-19.6" type="curve" smooth="yes"/>
			<point x="265.2" y="-20"/>
			<point x="267.6" y="-20"/>
			<point x="270" y="-20" type="curve" smooth="yes"/>
			<point x="272" y="-20" type="line" smooth="yes"/>
			<point x="326.4" y="-18.8"/>
			<point x="365.2" y="25.6"/>
			<point x="365.2" y="82" type="curve" smooth="yes"/>
			<point x="365.2" y="118" type="line" smooth="yes"/>
			<point x="365.2" y="175.2"/>
			<point x="324.4" y="220"/>
			<point x="270" y="220" type="curve" smooth="yes"/>
			<point x="215.6" y="220"/>
			<point x="175.2" y="175.2"/>
			<point x="175.2" y="118" type="curve" smooth="yes"/>
			<point x="175.2" y="86.4" type="line"/>
			<point x="171.6" y="97.2"/>
			<point x="170" y="109.2"/>
			<point x="170" y="122" type="curve" smooth="yes"/>
			<point x="170" y="478" type="line" smooth="yes"/>
			<point x="170" y="540.8"/>
			<point x="209.2" y="580"/>
			<point x="272" y="580" type="curve" smooth="yes"/>
			<point x="296" y="580" type="line" smooth="yes"/>
			<point x="356.4" y="580"/>
			<point x="397.2" y="543.2"/>
			<point x="397.2" y="473.2" type="curve" smooth="yes"/>
			<point x="397.2" y="200" type="line" smooth="yes"/>
			<point x="397.2" y="188.8"/>
			<point x="406" y="180"/>
			<point x="417.2" y="180" type="curve" smooth="yes"/>
			<point x="428" y="180"/>
			<point x="437.2" y="188.8"/>
			<point x="437.2" y="200" type="curve" smooth="yes"/>
			<point x="437.2" y="580" type="line"/>
			<point x="577.2" y="580" type="line"/>
			<point x="577.2" y="0" type="line" smooth="yes"/>
			<point x="577.2" y="-11.2"/>
			<point x="586" y="-20"/>
			<point x="597.2" y="-20" type="curve" smooth="yes"/>
			<point x="608" y="-20"/>
			<point x="617.2" y="-11.2"/>
			<point x="617.2" y="0" type="curve" smooth="yes"/>
			<point x="617.2" y="162" type="line" smooth="yes"/>
			<point x="617.2" y="202"/>
			<point x="630" y="227.2"/>
			<point x="678" y="227.2" type="curve" smooth="yes"/>
			<point x="757.2" y="227.2"/>
			<point x="757.2" y="194"/>
			<point x="757.2" y="37.2" type="curve" smooth="yes"/>
			<point x="757.2" y="-43.6"/>
			<point x="731.6" y="-120"/>
			<point x="619.2" y="-120" type="curve" smooth="yes"/>
			<point x="203.2" y="-120" type="line" smooth="yes"/>
			<point x="123.2" y="-120"/>
			<point x="70" y="-66.8"/>
			<point x="70" y="13.2" type="curve" smooth="yes"/>
			<point x="70" y="247.2" type="line" smooth="yes"/>
			<point x="70" y="258"/>
			<point x="61.2" y="267.2"/>
			<point x="50" y="267.2" type="curve" smooth="yes"/>
			<point x="38.8" y="267.2"/>
			<point x="30" y="258"/>
			<point x="30" y="247.2" type="curve" smooth="yes"/>
			<point x="30" y="13.2" type="line" smooth="yes"/>
			<point x="30" y="-86"/>
			<point x="104" y="-160"/>
		</contour>
		<contour>
			<point x="264.8" y="20" type="line" smooth="yes"/>
			<point x="233.6" y="22.4"/>
			<point x="215.2" y="44.8"/>
			<point x="215.2" y="82" type="curve" smooth="yes"/>
			<point x="215.2" y="118" type="line" smooth="yes"/>
			<point x="215.2" y="157.2"/>
			<point x="236" y="180"/>
			<point x="270" y="180" type="curve" smooth="yes"/>
			<point x="304" y="180"/>
			<point x="325.2" y="157.2"/>
			<point x="325.2" y="118" type="curve" smooth="yes"/>
			<point x="325.2" y="82" type="line" smooth="yes"/>
			<point x="325.2" y="42.8"/>
			<point x="305.2" y="20.4"/>
			<point x="270.8" y="20" type="curve" smooth="yes"/>
		</contour>
	</outline>
</glyph>
<glyph name="lla_uuMatra-tamil" format="2">
	<advance width="887"/>
	<anchor x="817" y="600" name="imatra"/>
	<anchor x="444" y="600" name="top"/>
	<outline>
		<contour>
			<point x="203.2" y="-160" type="curve" smooth="yes"/>
			<point x="679.2" y="-160" type="line" smooth="yes"/>
			<point x="821.2" y="-160"/>
			<point x="857.2" y="-53.6"/>
			<point x="857.2" y="37.2" type="curve" smooth="yes"/>
			<point x="857.2" y="194"/>
			<point x="857.2" y="267.2"/>
			<point x="738" y="267.2" type="curve" smooth="yes"/>
			<point x="712.4" y="267.2"/>
			<point x="692" y="260.8"/>
			<point x="677.2" y="250" type="curve"/>
			<point x="677.2" y="580" type="line"/>
			<point x="757.2" y="580" type="line" smooth="yes"/>
			<point x="768" y="580"/>
			<point x="777.2" y="588.8"/>
			<point x="777.2" y="600" type="curve" smooth="yes"/>
			<point x="777.2" y="611.2"/>
			<point x="768" y="620"/>
			<point x="757.2" y="620" type="curve" smooth="yes"/>
			<point x="477.2" y="620" type="line" smooth="yes"/>
			<point x="464.4" y="620"/>
			<point x="457.2" y="613.2"/>
			<point x="457.2" y="600" type="curve" smooth="yes"/>
			<point x="457.2" y="579.2" type="line"/>
			<point x="431.6" y="605.6"/>
			<point x="395.6" y="620"/>
			<point x="356" y="620" type="curve" smooth="yes"/>
			<point x="332" y="620" type="line" smooth="yes"/>
			<point x="250" y="620"/>
			<point x="190" y="560"/>
			<point x="190" y="478" type="curve" smooth="yes"/>
			<point x="190" y="122" type="line" smooth="yes"/>
			<point x="190" y="43.2"/>
			<point x="246.8" y="-15.6"/>
			<point x="322.8" y="-19.6" type="curve" smooth="yes"/>
			<point x="325.2" y="-20"/>
			<point x="327.6" y="-20"/>
			<point x="330" y="-20" type="curve" smooth="yes"/>
			<point x="332" y="-20" type="line" smooth="yes"/>
			<point x="386.4" y="-18.8"/>
			<point x="425.2" y="25.6"/>
			<point x="425.2" y="82" type="curve" smooth="yes"/>
			<point x="425.2" y="118" type="line" smooth="yes"/>
			<point x="425.2" y="175.2"/>
			<point x="384.4" y="220"/>
			<point x="330" y="220" type="curve" smooth="yes"/>
			<point x="275.6" y="220"/>
			<point x="235.2" y="175.2"/>
			<point x="235.2" y="118" type="curve" smooth="yes"/>
			<point x="235.2" y="86.4" type="line"/>
			<point x="231.6" y="97.2"/>
			<point x="230" y="109.2"/>
			<point x="230" y="122" type="curve" smooth="yes"/>
			<point x="230" y="478" type="line" smooth="yes"/>
			<point x="230" y="540.8"/>
			<point x="269.2" y="580"/>
			<point x="332" y="580" type="curve" smooth="yes"/>
			<point x="356" y="580" type="line" smooth="yes"/>
			<point x="416.4" y="580"/>
			<point x="457.2" y="543.2"/>
			<point x="457.2" y="473.2" type="curve" smooth="yes"/>
			<point x="457.2" y="200" type="line" smooth="yes"/>
			<point x="457.2" y="188.8"/>
			<point x="466" y="180"/>
			<point x="477.2" y="180" type="curve" smooth="yes"/>
			<point x="488" y="180"/>
			<point x="497.2" y="188.8"/>
			<point x="497.2" y="200" type="curve" smooth="yes"/>
			<point x="497.2" y="580" type="line"/>
			<point x="637.2" y="580" type="line"/>
			<point x="637.2" y="0" type="line" smooth="yes"/>
			<point x="637.2" y="-11.2"/>
			<point x="646" y="-20"/>
			<point x="657.2" y="-20" type="curve" smooth="yes"/>
			<point x="668" y="-20"/>
			<point x="677.2" y="-11.2"/>
			<point x="677.2" y="0" type="curve" smooth="yes"/>
			<point x="677.2" y="162" type="line" smooth="yes"/>
			<point x="677.2" y="202"/>
			<point x="690" y="227.2"/>
			<point x="738" y="227.2" type="curve" smooth="yes"/>
			<point x="817.2" y="227.2"/>
			<point x="817.2" y="194"/>
			<point x="817.2" y="37.2" type="curve" smooth="yes"/>
			<point x="817.2" y="-43.6"/>
			<point x="791.6" y="-120"/>
			<point x="679.2" y="-120" type="curve" smooth="yes"/>
			<point x="203.2" y="-120" type="line" smooth="yes"/>
			<point x="123.2" y="-120"/>
			<point x="70" y="-66.8"/>
			<point x="70" y="13.2" type="curve" smooth="yes"/>
			<point x="70" y="184" type="line"/>
			<point x="79.2" y="179.6"/>
			<point x="89.2" y="177.2"/>
			<point x="100" y="177.2" type="curve" smooth="yes"/>
			<point x="138" y="177.2"/>
			<point x="170" y="209.2"/>
			<point x="170" y="247.2" type="curve" smooth="yes"/>
			<point x="170" y="284.8"/>
			<point x="138" y="317.2"/>
			<point x="100" y="317.2" type="curve" smooth="yes"/>
			<point x="62" y="317.2"/>
			<point x="30" y="284.8"/>
			<point x="30" y="247.2" type="curve" smooth="yes"/>
			<point x="30" y="13.2" type="line" smooth="yes"/>
			<point x="30" y="-86"/>
			<point x="104" y="-160"/>
		</contour>
		<contour>
			<point x="100" y="217.2" type="curve" smooth="yes"/>
			<point x="81.2" y="217.2"/>
			<point x="70" y="228.4"/>
			<point x="70" y="247.2" type="curve" smooth="yes"/>
			<point x="70" y="265.6"/>
			<point x="81.2" y="277.2"/>
			<point x="100" y="277.2" type="curve" smooth="yes"/>
			<point x="118.8" y="277.2"/>
			<point x="130" y="265.6"/>
			<point x="130" y="247.2" type="curve" smooth="yes"/>
			<point x="130" y="228.4"/>
			<point x="118.8" y="217.2"/>
		</contour>
		<contour>
			<point x="324.8" y="20" type="line" smooth="yes"/>
			<point x="293.6" y="22.4"/>
			<point x="275.2" y="44.8"/>
			<point x="275.2" y="82" type="curve" smooth="yes"/>
			<point x="275.2" y="118" type="line" smooth="yes"/>
			<point x="275.2" y="157.2"/>
			<point x="296" y="180"/>
			<point x="330" y="180" type="curve" smooth="yes"/>
			<point x="364" y="180"/>
			<point x="385.2" y="157.2"/>
			<point x="385.2" y="118" type="curve" smooth="yes"/>
			<point x="385.2" y="82" type="line" smooth="yes"/>
			<point x="385.2" y="42.8"/>
			<point x="365.2" y="20.4"/>
			<point x="330.8" y="20" type="curve" smooth="yes"/>
		</contour>
	</outline>
</glyph>
